%TF.GenerationSoftware,KiCad,Pcbnew,(5.1.6)-1*%
%TF.CreationDate,2021-02-23T20:11:17-06:00*%
%TF.ProjectId,WALKING RING,57414c4b-494e-4472-9052-494e472e6b69,rev?*%
%TF.SameCoordinates,Original*%
%TF.FileFunction,Copper,L1,Top*%
%TF.FilePolarity,Positive*%
%FSLAX46Y46*%
G04 Gerber Fmt 4.6, Leading zero omitted, Abs format (unit mm)*
G04 Created by KiCad (PCBNEW (5.1.6)-1) date 2021-02-23 20:11:17*
%MOMM*%
%LPD*%
G01*
G04 APERTURE LIST*
%TA.AperFunction,ComponentPad*%
%ADD10O,1.600000X1.600000*%
%TD*%
%TA.AperFunction,ComponentPad*%
%ADD11C,1.600000*%
%TD*%
%TA.AperFunction,ComponentPad*%
%ADD12C,2.000000*%
%TD*%
%TA.AperFunction,ComponentPad*%
%ADD13C,2.400000*%
%TD*%
%TA.AperFunction,ComponentPad*%
%ADD14C,0.100000*%
%TD*%
%TA.AperFunction,ComponentPad*%
%ADD15R,1.800000X1.800000*%
%TD*%
%TA.AperFunction,ComponentPad*%
%ADD16C,1.800000*%
%TD*%
%TA.AperFunction,ComponentPad*%
%ADD17C,3.240000*%
%TD*%
%TA.AperFunction,ComponentPad*%
%ADD18R,1.600000X1.600000*%
%TD*%
%TA.AperFunction,ComponentPad*%
%ADD19R,2.000000X2.000000*%
%TD*%
%TA.AperFunction,ComponentPad*%
%ADD20O,1.300000X5.200000*%
%TD*%
%TA.AperFunction,ComponentPad*%
%ADD21C,2.130000*%
%TD*%
%TA.AperFunction,ComponentPad*%
%ADD22R,1.830000X1.930000*%
%TD*%
%TA.AperFunction,ComponentPad*%
%ADD23R,1.500000X1.500000*%
%TD*%
%TA.AperFunction,ComponentPad*%
%ADD24C,1.500000*%
%TD*%
%TA.AperFunction,Conductor*%
%ADD25C,0.635000*%
%TD*%
G04 APERTURE END LIST*
D10*
%TO.P,REF\u002A\u002A,2*%
%TO.N,N/C*%
X74650000Y-89330000D03*
D11*
%TO.P,REF\u002A\u002A,1*%
X74650000Y-99490000D03*
%TD*%
D10*
%TO.P,REF\u002A\u002A,2*%
%TO.N,N/C*%
X203650000Y-76640000D03*
D11*
%TO.P,REF\u002A\u002A,1*%
X203650000Y-86800000D03*
%TD*%
%TO.P,REF\u002A\u002A,1*%
%TO.N,N/C*%
X199860000Y-86800000D03*
D10*
%TO.P,REF\u002A\u002A,2*%
X199860000Y-76640000D03*
%TD*%
D11*
%TO.P,REF\u002A\u002A,1*%
%TO.N,N/C*%
X167470000Y-76610000D03*
D10*
%TO.P,REF\u002A\u002A,2*%
X157310000Y-76610000D03*
%TD*%
%TO.P,REF\u002A\u002A,2*%
%TO.N,N/C*%
X151010000Y-72790000D03*
D11*
%TO.P,REF\u002A\u002A,1*%
X161170000Y-72790000D03*
%TD*%
%TO.P,REF\u002A\u002A,1*%
%TO.N,N/C*%
X156040000Y-68950000D03*
D10*
%TO.P,REF\u002A\u002A,2*%
%TO.N,SENSE*%
X156040000Y-58790000D03*
%TD*%
%TO.P,REF\u002A\u002A,2*%
%TO.N,N/C*%
X156650000Y-80420000D03*
D11*
%TO.P,REF\u002A\u002A,1*%
X166810000Y-80420000D03*
%TD*%
D10*
%TO.P,REF\u002A\u002A,2*%
%TO.N,N/C*%
X175030000Y-75890000D03*
D11*
%TO.P,REF\u002A\u002A,1*%
X175030000Y-86050000D03*
%TD*%
%TO.P,REF\u002A\u002A,1*%
%TO.N,N/C*%
X196020000Y-72230000D03*
D10*
%TO.P,REF\u002A\u002A,2*%
%TO.N,SENSE*%
X196020000Y-62070000D03*
%TD*%
D12*
%TO.P,REF\u002A\u002A,1*%
%TO.N,N/C*%
X148400000Y-65750000D03*
%TD*%
D13*
%TO.P,REF\u002A\u002A,2*%
%TO.N,N/C*%
X163005961Y-63901759D03*
%TA.AperFunction,ComponentPad*%
D14*
%TO.P,REF\u002A\u002A,1*%
G36*
X169320147Y-63796609D02*
G01*
X168903391Y-66160147D01*
X166539853Y-65743391D01*
X166956609Y-63379853D01*
X169320147Y-63796609D01*
G37*
%TD.AperFunction*%
%TD*%
D15*
%TO.P,REF\u002A\u002A,1*%
%TO.N,N/C*%
X163000000Y-99560000D03*
D16*
%TO.P,REF\u002A\u002A,2*%
X160500000Y-99560000D03*
%TO.P,REF\u002A\u002A,3*%
X158000000Y-99560000D03*
D17*
%TO.P,REF\u002A\u002A,*%
%TO.N,*%
X155700000Y-107060000D03*
X165300000Y-107060000D03*
%TD*%
D10*
%TO.P,REF\u002A\u002A,16*%
%TO.N,N/C*%
X121730000Y-85460000D03*
%TO.P,REF\u002A\u002A,8*%
X103950000Y-77840000D03*
%TO.P,REF\u002A\u002A,15*%
X119190000Y-85460000D03*
%TO.P,REF\u002A\u002A,7*%
X106490000Y-77840000D03*
%TO.P,REF\u002A\u002A,14*%
X116650000Y-85460000D03*
%TO.P,REF\u002A\u002A,6*%
X109030000Y-77840000D03*
%TO.P,REF\u002A\u002A,13*%
X114110000Y-85460000D03*
%TO.P,REF\u002A\u002A,5*%
X111570000Y-77840000D03*
%TO.P,REF\u002A\u002A,12*%
X111570000Y-85460000D03*
%TO.P,REF\u002A\u002A,4*%
X114110000Y-77840000D03*
%TO.P,REF\u002A\u002A,11*%
X109030000Y-85460000D03*
%TO.P,REF\u002A\u002A,3*%
X116650000Y-77840000D03*
%TO.P,REF\u002A\u002A,10*%
X106490000Y-85460000D03*
%TO.P,REF\u002A\u002A,2*%
X119190000Y-77840000D03*
%TO.P,REF\u002A\u002A,9*%
X103950000Y-85460000D03*
D18*
%TO.P,REF\u002A\u002A,1*%
X121730000Y-77840000D03*
%TD*%
D10*
%TO.P,REF\u002A\u002A,14*%
%TO.N,N/C*%
X180150000Y-77860000D03*
%TO.P,REF\u002A\u002A,7*%
X195390000Y-85480000D03*
%TO.P,REF\u002A\u002A,13*%
X182690000Y-77860000D03*
%TO.P,REF\u002A\u002A,6*%
X192850000Y-85480000D03*
%TO.P,REF\u002A\u002A,12*%
X185230000Y-77860000D03*
%TO.P,REF\u002A\u002A,5*%
X190310000Y-85480000D03*
%TO.P,REF\u002A\u002A,11*%
X187770000Y-77860000D03*
%TO.P,REF\u002A\u002A,4*%
X187770000Y-85480000D03*
%TO.P,REF\u002A\u002A,10*%
X190310000Y-77860000D03*
%TO.P,REF\u002A\u002A,3*%
X185230000Y-85480000D03*
%TO.P,REF\u002A\u002A,9*%
X192850000Y-77860000D03*
%TO.P,REF\u002A\u002A,2*%
X182690000Y-85480000D03*
%TO.P,REF\u002A\u002A,8*%
X195390000Y-77860000D03*
D18*
%TO.P,REF\u002A\u002A,1*%
X180150000Y-85480000D03*
%TD*%
D12*
%TO.P,REF\u002A\u002A,1*%
%TO.N,N/C*%
X123690000Y-93220000D03*
%TD*%
D11*
%TO.P,REF\u002A\u002A,2*%
%TO.N,N/C*%
X140160000Y-67090000D03*
%TO.P,REF\u002A\u002A,1*%
X135160000Y-67090000D03*
%TD*%
D18*
%TO.P,REF\u002A\u002A,1*%
%TO.N,N/C*%
X153550000Y-77830000D03*
D10*
%TO.P,REF\u002A\u002A,9*%
X135770000Y-85450000D03*
%TO.P,REF\u002A\u002A,2*%
X151010000Y-77830000D03*
%TO.P,REF\u002A\u002A,10*%
X138310000Y-85450000D03*
%TO.P,REF\u002A\u002A,3*%
X148470000Y-77830000D03*
%TO.P,REF\u002A\u002A,11*%
X140850000Y-85450000D03*
%TO.P,REF\u002A\u002A,4*%
X145930000Y-77830000D03*
%TO.P,REF\u002A\u002A,12*%
X143390000Y-85450000D03*
%TO.P,REF\u002A\u002A,5*%
X143390000Y-77830000D03*
%TO.P,REF\u002A\u002A,13*%
X145930000Y-85450000D03*
%TO.P,REF\u002A\u002A,6*%
X140850000Y-77830000D03*
%TO.P,REF\u002A\u002A,14*%
X148470000Y-85450000D03*
%TO.P,REF\u002A\u002A,7*%
X138310000Y-77830000D03*
%TO.P,REF\u002A\u002A,15*%
X151010000Y-85450000D03*
%TO.P,REF\u002A\u002A,8*%
X135770000Y-77830000D03*
%TO.P,REF\u002A\u002A,16*%
X153550000Y-85450000D03*
%TD*%
D19*
%TO.P,REF\u002A\u002A,1*%
%TO.N,N/C*%
X202390000Y-56270000D03*
%TD*%
D17*
%TO.P,REF\u002A\u002A,*%
%TO.N,*%
X179190000Y-59600000D03*
X188790000Y-59600000D03*
D16*
%TO.P,REF\u002A\u002A,3*%
%TO.N,N/C*%
X186490000Y-67100000D03*
%TO.P,REF\u002A\u002A,2*%
X183990000Y-67100000D03*
D15*
%TO.P,REF\u002A\u002A,1*%
X181490000Y-67100000D03*
%TD*%
D18*
%TO.P,REF\u002A\u002A,1*%
%TO.N,N/C*%
X88650000Y-77840000D03*
D10*
%TO.P,REF\u002A\u002A,9*%
X70870000Y-85460000D03*
%TO.P,REF\u002A\u002A,2*%
X86110000Y-77840000D03*
%TO.P,REF\u002A\u002A,10*%
X73410000Y-85460000D03*
%TO.P,REF\u002A\u002A,3*%
X83570000Y-77840000D03*
%TO.P,REF\u002A\u002A,11*%
X75950000Y-85460000D03*
%TO.P,REF\u002A\u002A,4*%
X81030000Y-77840000D03*
%TO.P,REF\u002A\u002A,12*%
X78490000Y-85460000D03*
%TO.P,REF\u002A\u002A,5*%
X78490000Y-77840000D03*
%TO.P,REF\u002A\u002A,13*%
X81030000Y-85460000D03*
%TO.P,REF\u002A\u002A,6*%
X75950000Y-77840000D03*
%TO.P,REF\u002A\u002A,14*%
X83570000Y-85460000D03*
%TO.P,REF\u002A\u002A,7*%
X73410000Y-77840000D03*
%TO.P,REF\u002A\u002A,15*%
X86110000Y-85460000D03*
%TO.P,REF\u002A\u002A,8*%
X70870000Y-77840000D03*
%TO.P,REF\u002A\u002A,16*%
X88650000Y-85460000D03*
%TD*%
D11*
%TO.P,REF\u002A\u002A,1*%
%TO.N,N/C*%
X130600000Y-72770000D03*
%TO.P,REF\u002A\u002A,2*%
X130600000Y-67770000D03*
%TD*%
D19*
%TO.P,REF\u002A\u002A,1*%
%TO.N,N/C*%
X203460000Y-98110000D03*
%TD*%
D16*
%TO.P,.,2*%
%TO.N,N/C*%
X202560000Y-71490000D03*
D15*
%TO.P,.,1*%
X205100000Y-71490000D03*
%TD*%
D20*
%TO.P,REF\u002A\u002A,1*%
%TO.N,N/C*%
X203540000Y-106890000D03*
D21*
%TO.P,REF\u002A\u002A,TN*%
X200160000Y-106890000D03*
D22*
%TO.P,REF\u002A\u002A,S*%
X197060000Y-106890000D03*
D21*
%TO.P,REF\u002A\u002A,T*%
X208460000Y-106890000D03*
%TD*%
D11*
%TO.P,REF\u002A\u002A,1*%
%TO.N,N/C*%
X173830269Y-113224764D03*
%TO.P,REF\u002A\u002A,2*%
%TA.AperFunction,ComponentPad*%
G36*
G01*
X170628960Y-104429241D02*
X170628960Y-104429241D01*
G75*
G02*
X169603590Y-103951103I-273616J751754D01*
G01*
X169603590Y-103951103D01*
G75*
G02*
X170081728Y-102925733I751754J273616D01*
G01*
X170081728Y-102925733D01*
G75*
G02*
X171107098Y-103403871I273616J-751754D01*
G01*
X171107098Y-103403871D01*
G75*
G02*
X170628960Y-104429241I-751754J-273616D01*
G01*
G37*
%TD.AperFunction*%
%TD*%
D10*
%TO.P,REF\u002A\u002A,2*%
%TO.N,N/C*%
X175579535Y-116658705D03*
D11*
%TO.P,REF\u002A\u002A,1*%
X185739535Y-116658705D03*
%TD*%
D23*
%TO.P,.,1*%
%TO.N,N/C*%
X169940000Y-112520000D03*
D24*
%TO.P,.,3*%
X169940000Y-117600000D03*
%TO.P,.,2*%
X169940000Y-115060000D03*
%TD*%
D10*
%TO.P,REF\u002A\u002A,2*%
%TO.N,N/C*%
X207810000Y-76640000D03*
D11*
%TO.P,REF\u002A\u002A,1*%
X207810000Y-86800000D03*
%TD*%
%TO.P,REF\u002A\u002A,2*%
%TO.N,N/C*%
%TA.AperFunction,ComponentPad*%
G36*
G01*
X156200000Y-96805998D02*
X156200000Y-96805998D01*
G75*
G02*
X157292820Y-97098818I400000J-692820D01*
G01*
X157292820Y-97098818D01*
G75*
G02*
X157000000Y-98191638I-692820J-400000D01*
G01*
X157000000Y-98191638D01*
G75*
G02*
X155907180Y-97898818I-400000J692820D01*
G01*
X155907180Y-97898818D01*
G75*
G02*
X156200000Y-96805998I692820J400000D01*
G01*
G37*
%TD.AperFunction*%
%TO.P,REF\u002A\u002A,1*%
X151520000Y-88700000D03*
%TD*%
%TO.P,REF\u002A\u002A,2*%
%TO.N,N/C*%
%TA.AperFunction,ComponentPad*%
G36*
G01*
X135415523Y-91361309D02*
X135415523Y-91361309D01*
G75*
G02*
X136440893Y-90883171I751754J-273616D01*
G01*
X136440893Y-90883171D01*
G75*
G02*
X136919031Y-91908541I-273616J-751754D01*
G01*
X136919031Y-91908541D01*
G75*
G02*
X135893661Y-92386679I-751754J273616D01*
G01*
X135893661Y-92386679D01*
G75*
G02*
X135415523Y-91361309I273616J751754D01*
G01*
G37*
%TD.AperFunction*%
%TO.P,REF\u002A\u002A,1*%
X126620000Y-88160000D03*
%TD*%
%TO.P,REF\u002A\u002A,2*%
%TO.N,N/C*%
%TA.AperFunction,ComponentPad*%
G36*
G01*
X171868691Y-97485523D02*
X171868691Y-97485523D01*
G75*
G02*
X172346829Y-98510893I-273616J-751754D01*
G01*
X172346829Y-98510893D01*
G75*
G02*
X171321459Y-98989031I-751754J273616D01*
G01*
X171321459Y-98989031D01*
G75*
G02*
X170843321Y-97963661I273616J751754D01*
G01*
X170843321Y-97963661D01*
G75*
G02*
X171868691Y-97485523I751754J-273616D01*
G01*
G37*
%TD.AperFunction*%
%TO.P,REF\u002A\u002A,1*%
X175070000Y-88690000D03*
%TD*%
%TO.P,REF\u002A\u002A,1*%
%TO.N,N/C*%
X124930000Y-65170000D03*
%TO.P,REF\u002A\u002A,2*%
%TA.AperFunction,ComponentPad*%
G36*
G01*
X121728691Y-73965523D02*
X121728691Y-73965523D01*
G75*
G02*
X122206829Y-74990893I-273616J-751754D01*
G01*
X122206829Y-74990893D01*
G75*
G02*
X121181459Y-75469031I-751754J273616D01*
G01*
X121181459Y-75469031D01*
G75*
G02*
X120703321Y-74443661I273616J751754D01*
G01*
X120703321Y-74443661D01*
G75*
G02*
X121728691Y-73965523I751754J-273616D01*
G01*
G37*
%TD.AperFunction*%
%TD*%
%TO.P,REF\u002A\u002A,2*%
%TO.N,N/C*%
X196550127Y-94440000D03*
%TO.P,REF\u002A\u002A,1*%
X192220000Y-91940000D03*
%TD*%
D10*
%TO.P,REF\u002A\u002A,2*%
%TO.N,N/C*%
X175080000Y-73450000D03*
D11*
%TO.P,REF\u002A\u002A,1*%
X185240000Y-73450000D03*
%TD*%
%TO.P,REF\u002A\u002A,1*%
%TO.N,N/C*%
X135670000Y-72790000D03*
%TO.P,REF\u002A\u002A,2*%
X140670000Y-72790000D03*
%TD*%
D23*
%TO.P,REF\u002A\u002A,1*%
%TO.N,N/C*%
X141660000Y-93540000D03*
D24*
%TO.P,REF\u002A\u002A,3*%
X141660000Y-88460000D03*
%TO.P,REF\u002A\u002A,2*%
X139120000Y-91000000D03*
%TD*%
%TO.P,REF\u002A\u002A,2*%
%TO.N,N/C*%
X148720000Y-91200000D03*
%TO.P,REF\u002A\u002A,3*%
X146180000Y-93740000D03*
D23*
%TO.P,REF\u002A\u002A,1*%
X146180000Y-88660000D03*
%TD*%
D11*
%TO.P,REF\u002A\u002A,1*%
%TO.N,N/C*%
X180760000Y-69610000D03*
D10*
%TO.P,REF\u002A\u002A,2*%
X170600000Y-69610000D03*
%TD*%
%TO.P,REF\u002A\u002A,2*%
%TO.N,N/C*%
%TA.AperFunction,ComponentPad*%
G36*
G01*
X194625998Y-100320000D02*
X194625998Y-100320000D01*
G75*
G02*
X195718818Y-100027180I692820J-400000D01*
G01*
X195718818Y-100027180D01*
G75*
G02*
X196011638Y-101120000I-400000J-692820D01*
G01*
X196011638Y-101120000D01*
G75*
G02*
X194918818Y-101412820I-692820J400000D01*
G01*
X194918818Y-101412820D01*
G75*
G02*
X194625998Y-100320000I400000J692820D01*
G01*
G37*
%TD.AperFunction*%
D11*
%TO.P,REF\u002A\u002A,1*%
X186520000Y-95640000D03*
%TD*%
%TO.P,REF\u002A\u002A,1*%
%TO.N,N/C*%
X182930000Y-90400000D03*
%TO.P,REF\u002A\u002A,2*%
%TA.AperFunction,ComponentPad*%
G36*
G01*
X176913508Y-97570176D02*
X176913508Y-97570176D01*
G75*
G02*
X177012114Y-98697242I-514230J-612836D01*
G01*
X177012114Y-98697242D01*
G75*
G02*
X175885048Y-98795848I-612836J514230D01*
G01*
X175885048Y-98795848D01*
G75*
G02*
X175786442Y-97668782I514230J612836D01*
G01*
X175786442Y-97668782D01*
G75*
G02*
X176913508Y-97570176I612836J-514230D01*
G01*
G37*
%TD.AperFunction*%
%TD*%
%TO.P,REF\u002A\u002A,1*%
%TO.N,N/C*%
X155360000Y-88020000D03*
%TO.P,REF\u002A\u002A,2*%
%TA.AperFunction,ComponentPad*%
G36*
G01*
X162530176Y-94036492D02*
X162530176Y-94036492D01*
G75*
G02*
X163657242Y-93937886I612836J-514230D01*
G01*
X163657242Y-93937886D01*
G75*
G02*
X163755848Y-95064952I-514230J-612836D01*
G01*
X163755848Y-95064952D01*
G75*
G02*
X162628782Y-95163558I-612836J514230D01*
G01*
X162628782Y-95163558D01*
G75*
G02*
X162530176Y-94036492I514230J612836D01*
G01*
G37*
%TD.AperFunction*%
%TD*%
%TO.P,REF\u002A\u002A,1*%
%TO.N,N/C*%
X159770000Y-84230000D03*
%TO.P,REF\u002A\u002A,2*%
%TA.AperFunction,ComponentPad*%
G36*
G01*
X168987801Y-85855346D02*
X168987801Y-85855346D01*
G75*
G02*
X169914566Y-85206419I787846J-138919D01*
G01*
X169914566Y-85206419D01*
G75*
G02*
X170563493Y-86133184I-138919J-787846D01*
G01*
X170563493Y-86133184D01*
G75*
G02*
X169636728Y-86782111I-787846J138919D01*
G01*
X169636728Y-86782111D01*
G75*
G02*
X168987801Y-85855346I138919J787846D01*
G01*
G37*
%TD.AperFunction*%
%TD*%
%TO.P,REF\u002A\u002A,2*%
%TO.N,N/C*%
%TA.AperFunction,ComponentPad*%
G36*
G01*
X89650000Y-73405998D02*
X89650000Y-73405998D01*
G75*
G02*
X89942820Y-74498818I-400000J-692820D01*
G01*
X89942820Y-74498818D01*
G75*
G02*
X88850000Y-74791638I-692820J400000D01*
G01*
X88850000Y-74791638D01*
G75*
G02*
X88557180Y-73698818I400000J692820D01*
G01*
X88557180Y-73698818D01*
G75*
G02*
X89650000Y-73405998I692820J-400000D01*
G01*
G37*
%TD.AperFunction*%
%TO.P,REF\u002A\u002A,1*%
X94330000Y-65300000D03*
%TD*%
%TO.P,REF\u002A\u002A,2*%
%TO.N,N/C*%
%TA.AperFunction,ComponentPad*%
G36*
G01*
X78895346Y-71787801D02*
X78895346Y-71787801D01*
G75*
G02*
X79822111Y-72436728I138919J-787846D01*
G01*
X79822111Y-72436728D01*
G75*
G02*
X79173184Y-73363493I-787846J-138919D01*
G01*
X79173184Y-73363493D01*
G75*
G02*
X78246419Y-72714566I-138919J787846D01*
G01*
X78246419Y-72714566D01*
G75*
G02*
X78895346Y-71787801I787846J138919D01*
G01*
G37*
%TD.AperFunction*%
%TO.P,REF\u002A\u002A,1*%
X77270000Y-62570000D03*
%TD*%
%TO.P,REF\u002A\u002A,2*%
%TO.N,N/C*%
%TA.AperFunction,ComponentPad*%
G36*
G01*
X109278691Y-90104477D02*
X109278691Y-90104477D01*
G75*
G02*
X108253321Y-89626339I-273616J751754D01*
G01*
X108253321Y-89626339D01*
G75*
G02*
X108731459Y-88600969I751754J273616D01*
G01*
X108731459Y-88600969D01*
G75*
G02*
X109756829Y-89079107I273616J-751754D01*
G01*
X109756829Y-89079107D01*
G75*
G02*
X109278691Y-90104477I-751754J-273616D01*
G01*
G37*
%TD.AperFunction*%
%TO.P,REF\u002A\u002A,1*%
X112480000Y-98900000D03*
%TD*%
%TO.P,REF\u002A\u002A,2*%
%TO.N,N/C*%
%TA.AperFunction,ComponentPad*%
G36*
G01*
X108361309Y-72665523D02*
X108361309Y-72665523D01*
G75*
G02*
X109386679Y-73143661I273616J-751754D01*
G01*
X109386679Y-73143661D01*
G75*
G02*
X108908541Y-74169031I-751754J-273616D01*
G01*
X108908541Y-74169031D01*
G75*
G02*
X107883171Y-73690893I-273616J751754D01*
G01*
X107883171Y-73690893D01*
G75*
G02*
X108361309Y-72665523I751754J273616D01*
G01*
G37*
%TD.AperFunction*%
%TO.P,REF\u002A\u002A,1*%
X105160000Y-63870000D03*
%TD*%
%TO.P,REF\u002A\u002A,1*%
%TO.N,SENSE*%
X168150000Y-49300000D03*
%TO.P,REF\u002A\u002A,2*%
%TO.N,N/C*%
%TA.AperFunction,ComponentPad*%
G36*
G01*
X171351309Y-58095523D02*
X171351309Y-58095523D01*
G75*
G02*
X172376679Y-58573661I273616J-751754D01*
G01*
X172376679Y-58573661D01*
G75*
G02*
X171898541Y-59599031I-751754J-273616D01*
G01*
X171898541Y-59599031D01*
G75*
G02*
X170873171Y-59120893I-273616J751754D01*
G01*
X170873171Y-59120893D01*
G75*
G02*
X171351309Y-58095523I751754J273616D01*
G01*
G37*
%TD.AperFunction*%
%TD*%
%TO.P,REF\u002A\u002A,1*%
%TO.N,N/C*%
X68750000Y-65610000D03*
%TO.P,REF\u002A\u002A,2*%
%TA.AperFunction,ComponentPad*%
G36*
G01*
X74766492Y-72780176D02*
X74766492Y-72780176D01*
G75*
G02*
X75893558Y-72878782I514230J-612836D01*
G01*
X75893558Y-72878782D01*
G75*
G02*
X75794952Y-74005848I-612836J-514230D01*
G01*
X75794952Y-74005848D01*
G75*
G02*
X74667886Y-73907242I-514230J612836D01*
G01*
X74667886Y-73907242D01*
G75*
G02*
X74766492Y-72780176I612836J514230D01*
G01*
G37*
%TD.AperFunction*%
%TD*%
%TO.P,REF\u002A\u002A,2*%
%TO.N,N/C*%
%TA.AperFunction,ComponentPad*%
G36*
G01*
X117494654Y-73767801D02*
X117494654Y-73767801D01*
G75*
G02*
X118143581Y-74694566I-138919J-787846D01*
G01*
X118143581Y-74694566D01*
G75*
G02*
X117216816Y-75343493I-787846J138919D01*
G01*
X117216816Y-75343493D01*
G75*
G02*
X116567889Y-74416728I138919J787846D01*
G01*
X116567889Y-74416728D01*
G75*
G02*
X117494654Y-73767801I787846J-138919D01*
G01*
G37*
%TD.AperFunction*%
%TO.P,REF\u002A\u002A,1*%
X119120000Y-64550000D03*
%TD*%
%TO.P,REF\u002A\u002A,1*%
%TO.N,N/C*%
X86200000Y-63600000D03*
%TO.P,REF\u002A\u002A,2*%
%TA.AperFunction,ComponentPad*%
G36*
G01*
X83777454Y-72641065D02*
X83777454Y-72641065D01*
G75*
G02*
X84343140Y-73620861I-207055J-772741D01*
G01*
X84343140Y-73620861D01*
G75*
G02*
X83363344Y-74186547I-772741J207055D01*
G01*
X83363344Y-74186547D01*
G75*
G02*
X82797658Y-73206751I207055J772741D01*
G01*
X82797658Y-73206751D01*
G75*
G02*
X83777454Y-72641065I772741J-207055D01*
G01*
G37*
%TD.AperFunction*%
%TD*%
%TO.P,REF\u002A\u002A,2*%
%TO.N,N/C*%
%TA.AperFunction,ComponentPad*%
G36*
G01*
X81661309Y-98045523D02*
X81661309Y-98045523D01*
G75*
G02*
X82686679Y-98523661I273616J-751754D01*
G01*
X82686679Y-98523661D01*
G75*
G02*
X82208541Y-99549031I-751754J-273616D01*
G01*
X82208541Y-99549031D01*
G75*
G02*
X81183171Y-99070893I-273616J751754D01*
G01*
X81183171Y-99070893D01*
G75*
G02*
X81661309Y-98045523I751754J273616D01*
G01*
G37*
%TD.AperFunction*%
%TO.P,REF\u002A\u002A,1*%
X78460000Y-89250000D03*
%TD*%
%TO.P,REF\u002A\u002A,1*%
%TO.N,N/C*%
X106970000Y-99270000D03*
%TO.P,REF\u002A\u002A,2*%
%TA.AperFunction,ComponentPad*%
G36*
G01*
X103768691Y-90474477D02*
X103768691Y-90474477D01*
G75*
G02*
X102743321Y-89996339I-273616J751754D01*
G01*
X102743321Y-89996339D01*
G75*
G02*
X103221459Y-88970969I751754J273616D01*
G01*
X103221459Y-88970969D01*
G75*
G02*
X104246829Y-89449107I273616J-751754D01*
G01*
X104246829Y-89449107D01*
G75*
G02*
X103768691Y-90474477I-751754J-273616D01*
G01*
G37*
%TD.AperFunction*%
%TD*%
%TO.P,REF\u002A\u002A,1*%
%TO.N,N/C*%
X112820000Y-63820000D03*
D10*
%TO.P,REF\u002A\u002A,2*%
X112820000Y-73980000D03*
%TD*%
%TO.P,REF\u002A\u002A,2*%
%TO.N,N/C*%
%TA.AperFunction,ComponentPad*%
G36*
G01*
X196446492Y-55080176D02*
X196446492Y-55080176D01*
G75*
G02*
X197573558Y-55178782I514230J-612836D01*
G01*
X197573558Y-55178782D01*
G75*
G02*
X197474952Y-56305848I-612836J-514230D01*
G01*
X197474952Y-56305848D01*
G75*
G02*
X196347886Y-56207242I-514230J612836D01*
G01*
X196347886Y-56207242D01*
G75*
G02*
X196446492Y-55080176I612836J514230D01*
G01*
G37*
%TD.AperFunction*%
D11*
%TO.P,REF\u002A\u002A,1*%
%TO.N,SENSE*%
X190430000Y-47910000D03*
%TD*%
%TO.P,REF\u002A\u002A,1*%
%TO.N,N/C*%
X82040000Y-89090000D03*
%TO.P,REF\u002A\u002A,2*%
%TA.AperFunction,ComponentPad*%
G36*
G01*
X88056492Y-96260176D02*
X88056492Y-96260176D01*
G75*
G02*
X89183558Y-96358782I514230J-612836D01*
G01*
X89183558Y-96358782D01*
G75*
G02*
X89084952Y-97485848I-612836J-514230D01*
G01*
X89084952Y-97485848D01*
G75*
G02*
X87957886Y-97387242I-514230J612836D01*
G01*
X87957886Y-97387242D01*
G75*
G02*
X88056492Y-96260176I612836J514230D01*
G01*
G37*
%TD.AperFunction*%
%TD*%
%TO.P,REF\u002A\u002A,1*%
%TO.N,N/C*%
X191980000Y-113020000D03*
D10*
%TO.P,REF\u002A\u002A,2*%
X202140000Y-113020000D03*
%TD*%
D11*
%TO.P,REF\u002A\u002A,1*%
%TO.N,N/C*%
X117580000Y-98860000D03*
%TO.P,REF\u002A\u002A,2*%
%TA.AperFunction,ComponentPad*%
G36*
G01*
X114378691Y-90064477D02*
X114378691Y-90064477D01*
G75*
G02*
X113353321Y-89586339I-273616J751754D01*
G01*
X113353321Y-89586339D01*
G75*
G02*
X113831459Y-88560969I751754J273616D01*
G01*
X113831459Y-88560969D01*
G75*
G02*
X114856829Y-89039107I273616J-751754D01*
G01*
X114856829Y-89039107D01*
G75*
G02*
X114378691Y-90064477I-751754J-273616D01*
G01*
G37*
%TD.AperFunction*%
%TD*%
%TO.P,REF\u002A\u002A,2*%
%TO.N,N/C*%
%TA.AperFunction,ComponentPad*%
G36*
G01*
X66140000Y-97385998D02*
X66140000Y-97385998D01*
G75*
G02*
X66432820Y-98478818I-400000J-692820D01*
G01*
X66432820Y-98478818D01*
G75*
G02*
X65340000Y-98771638I-692820J400000D01*
G01*
X65340000Y-98771638D01*
G75*
G02*
X65047180Y-97678818I400000J692820D01*
G01*
X65047180Y-97678818D01*
G75*
G02*
X66140000Y-97385998I692820J-400000D01*
G01*
G37*
%TD.AperFunction*%
%TO.P,REF\u002A\u002A,1*%
X70820000Y-89280000D03*
%TD*%
D17*
%TO.P,REF\u002A\u002A,*%
%TO.N,*%
X187440000Y-107060000D03*
X177840000Y-107060000D03*
D16*
%TO.P,REF\u002A\u002A,3*%
%TO.N,N/C*%
X180140000Y-99560000D03*
%TO.P,REF\u002A\u002A,2*%
X182640000Y-99560000D03*
D15*
%TO.P,REF\u002A\u002A,1*%
X185140000Y-99560000D03*
%TD*%
D25*
%TO.N,*%
X141660000Y-93540000D02*
X146180000Y-93740000D01*
X196960722Y-55693012D02*
X202390000Y-56270000D01*
X169940000Y-115060000D02*
X171995033Y-115060000D01*
X203550000Y-110380000D02*
X203540000Y-106890000D01*
X182640000Y-99560000D02*
X184710000Y-112310000D01*
X202140000Y-113020000D02*
X203550000Y-110380000D01*
X171995033Y-115060000D02*
X175579535Y-116658705D01*
X135670000Y-72790000D02*
X130600000Y-72770000D01*
X184710000Y-112310000D02*
X191980000Y-113020000D01*
X135160000Y-67090000D02*
X130600000Y-67770000D01*
X171995033Y-115060000D02*
X173830269Y-113224764D01*
X185739535Y-116658705D02*
X184710000Y-112310000D01*
X203550000Y-110380000D02*
X208460000Y-106890000D01*
X186550000Y-65150000D02*
X186490000Y-67100000D01*
X186540000Y-76600000D02*
X187790000Y-71410000D01*
X167548087Y-61238087D02*
X178290000Y-63880000D01*
X183990000Y-67100000D02*
X185240000Y-73450000D01*
X170600000Y-69610000D02*
X169890000Y-67950000D01*
X182130000Y-74070000D02*
X185230000Y-77860000D01*
X196020000Y-72230000D02*
X190410000Y-71510000D01*
X175080000Y-73450000D02*
X182130000Y-74070000D01*
X148400000Y-65750000D02*
X163005961Y-63901759D01*
X175080000Y-73450000D02*
X175080000Y-75840000D01*
X180760000Y-69610000D02*
X181490000Y-67100000D01*
X163005961Y-63901759D02*
X167226612Y-61426612D01*
X167226612Y-61426612D02*
X171624925Y-58847277D01*
X169890000Y-67950000D02*
X167930000Y-64770000D01*
X187790000Y-71410000D02*
X186490000Y-67100000D01*
X187770000Y-77860000D02*
X186540000Y-76600000D01*
X178290000Y-63880000D02*
X186550000Y-65150000D01*
X175080000Y-75840000D02*
X175030000Y-75890000D01*
X140160000Y-67090000D02*
X140670000Y-72790000D01*
X135770000Y-77830000D02*
X136940000Y-80430000D01*
X169775647Y-85994265D02*
X174530000Y-83540000D01*
X166810000Y-80420000D02*
X170680000Y-81720000D01*
X171910000Y-79760000D02*
X180140000Y-80440000D01*
X136940000Y-80430000D02*
X141970000Y-80480000D01*
X106490000Y-77840000D02*
X107680000Y-79780000D01*
X153740000Y-82880000D02*
X159770000Y-84230000D01*
X105810000Y-88020000D02*
X106490000Y-85460000D01*
X180140000Y-80440000D02*
X182690000Y-77860000D01*
X148370000Y-72800000D02*
X148470000Y-77830000D01*
X140670000Y-72790000D02*
X140850000Y-77830000D01*
X119190000Y-85460000D02*
X119130000Y-84230000D01*
X143390000Y-77830000D02*
X145840000Y-72750000D01*
X145840000Y-72750000D02*
X148400000Y-65750000D01*
X136570000Y-82960000D02*
X148380000Y-82930000D01*
X128020000Y-77830000D02*
X135770000Y-77830000D01*
X161170000Y-72790000D02*
X167540000Y-72790000D01*
X148470000Y-85450000D02*
X150890000Y-83030000D01*
X195390000Y-77860000D02*
X200570000Y-80380000D01*
X157310000Y-76610000D02*
X156650000Y-80420000D01*
X192850000Y-77860000D02*
X195390000Y-77860000D01*
X187770000Y-88700000D02*
X187770000Y-85480000D01*
X176340000Y-83550000D02*
X180150000Y-85480000D01*
X167540000Y-72790000D02*
X172610000Y-77860000D01*
X111570000Y-85460000D02*
X114105075Y-89312723D01*
X107680000Y-79780000D02*
X119160000Y-79790000D01*
X151010000Y-72790000D02*
X148370000Y-72800000D01*
X190410000Y-71510000D02*
X190310000Y-77860000D01*
X196020000Y-72230000D02*
X199860000Y-76640000D01*
X200570000Y-80380000D02*
X203650000Y-76640000D01*
X189070000Y-81730000D02*
X190310000Y-85480000D01*
X192850000Y-85480000D02*
X195390000Y-85480000D01*
X182660000Y-88060000D02*
X182690000Y-85480000D01*
X167470000Y-76610000D02*
X171910000Y-79760000D01*
X172610000Y-77860000D02*
X180150000Y-77860000D01*
X126100000Y-81040000D02*
X116570000Y-83620000D01*
X103495075Y-89722723D02*
X105810000Y-88020000D01*
X135670000Y-72790000D02*
X138310000Y-77830000D01*
X128020000Y-77830000D02*
X126100000Y-81040000D01*
X105810000Y-81090000D02*
X120410000Y-81050000D01*
X109030000Y-85460000D02*
X109005075Y-89352723D01*
X150890000Y-83030000D02*
X153740000Y-82880000D01*
X148380000Y-82930000D02*
X151010000Y-77830000D01*
X141970000Y-80480000D02*
X143390000Y-77830000D01*
X103950000Y-85460000D02*
X105810000Y-81090000D01*
X116830000Y-69570000D02*
X126810000Y-70300000D01*
X126810000Y-70300000D02*
X128020000Y-77830000D01*
X187770000Y-88700000D02*
X194760000Y-88700000D01*
X175030000Y-86050000D02*
X175070000Y-88690000D01*
X120410000Y-81050000D02*
X121730000Y-77840000D01*
X122230000Y-83640000D02*
X136570000Y-82960000D01*
X105800000Y-71450000D02*
X116830000Y-69570000D01*
X182930000Y-90400000D02*
X187770000Y-88700000D01*
X194760000Y-88700000D02*
X199860000Y-86800000D01*
X175070000Y-88690000D02*
X182660000Y-88060000D01*
X119130000Y-84230000D02*
X122230000Y-83640000D01*
X116570000Y-83620000D02*
X116650000Y-85460000D01*
X119160000Y-79790000D02*
X119190000Y-77840000D01*
X170680000Y-81720000D02*
X184020000Y-82360000D01*
X184020000Y-82360000D02*
X185230000Y-85480000D01*
X156040000Y-68950000D02*
X157310000Y-76610000D01*
X140850000Y-85450000D02*
X141660000Y-88460000D01*
X174530000Y-83540000D02*
X176340000Y-83550000D01*
X79034265Y-72575647D02*
X81030000Y-77840000D01*
X84820000Y-79800000D02*
X86110000Y-77840000D01*
X72760000Y-81080000D02*
X87410000Y-81040000D01*
X70870000Y-85460000D02*
X72760000Y-81080000D01*
X87410000Y-81040000D02*
X88650000Y-77840000D01*
X84730000Y-82350000D02*
X92560000Y-82310000D01*
X97630000Y-81650000D02*
X103950000Y-77840000D01*
X168070000Y-93150000D02*
X163000000Y-99560000D01*
X78490000Y-85460000D02*
X78460000Y-89250000D01*
X182930000Y-90400000D02*
X168070000Y-93150000D01*
X168070000Y-93150000D02*
X163660000Y-88030000D01*
X83570000Y-85460000D02*
X84730000Y-82350000D01*
X70820000Y-89280000D02*
X73410000Y-85460000D01*
X163660000Y-88030000D02*
X157270000Y-85490000D01*
X176345013Y-98237277D02*
X176399278Y-98183012D01*
X171595075Y-98237277D02*
X176345013Y-98237277D01*
X109030000Y-77840000D02*
X106490000Y-75410000D01*
X121455075Y-74717277D02*
X120450000Y-75300000D01*
X120450000Y-75300000D02*
X119190000Y-77840000D01*
X116650000Y-77840000D02*
X117355735Y-74555647D01*
X72730000Y-71540000D02*
X82330000Y-68970000D01*
X83570399Y-73413806D02*
X83570000Y-77840000D01*
X92560000Y-82310000D02*
X97630000Y-81650000D01*
X111570000Y-77840000D02*
X108634925Y-73417277D01*
X75280722Y-73393012D02*
X78490000Y-77840000D01*
X112820000Y-73980000D02*
X114110000Y-77840000D01*
X73370000Y-75410000D02*
X75950000Y-77840000D01*
X70870000Y-77840000D02*
X73370000Y-75410000D01*
X105800000Y-71450000D02*
X106490000Y-75410000D01*
X82330000Y-68970000D02*
X105800000Y-71450000D01*
X73370000Y-75410000D02*
X72730000Y-71540000D01*
X73410000Y-77840000D02*
X74660000Y-79770000D01*
X75950000Y-85460000D02*
X74650000Y-89330000D01*
X157270000Y-85490000D02*
X153550000Y-85450000D01*
X106490000Y-75410000D02*
X103950000Y-77840000D01*
X86110000Y-77840000D02*
X87400000Y-75280000D01*
X87400000Y-75280000D02*
X89250000Y-74098818D01*
X74660000Y-79770000D02*
X84820000Y-79800000D01*
X81030000Y-85460000D02*
X82040000Y-89090000D01*
X160500000Y-99560000D02*
X163143012Y-94550722D01*
X106550000Y-95040000D02*
X123690000Y-93220000D01*
X124315000Y-90465000D02*
X126620000Y-88160000D01*
X196690000Y-103300000D02*
X205410000Y-89230000D01*
X205630000Y-84240000D02*
X189070000Y-81730000D01*
X131550000Y-99470000D02*
X161770000Y-103220000D01*
X93090000Y-93810000D02*
X106550000Y-95040000D01*
X205410000Y-89230000D02*
X205630000Y-84240000D01*
X195318818Y-100720000D02*
X196550127Y-94440000D01*
X88650000Y-85460000D02*
X93090000Y-93810000D01*
X161770000Y-103220000D02*
X163000000Y-99560000D01*
X124315000Y-90465000D02*
X121730000Y-85460000D01*
X123690000Y-93220000D02*
X124315000Y-90465000D01*
X123690000Y-93220000D02*
X131550000Y-99470000D01*
X156600000Y-97498818D02*
X158000000Y-99560000D01*
X185140000Y-99560000D02*
X196690000Y-103300000D01*
X180140000Y-99560000D02*
X184650000Y-93160000D01*
X184650000Y-93160000D02*
X192220000Y-91940000D01*
X203650000Y-86800000D02*
X196550127Y-94440000D01*
X189070000Y-81730000D02*
X187770000Y-77860000D01*
X139120000Y-91000000D02*
X143840000Y-91000000D01*
X143840000Y-91000000D02*
X146180000Y-88660000D01*
X185140000Y-99560000D02*
X186520000Y-95640000D01*
X146180000Y-93740000D02*
X151270000Y-96660000D01*
X151270000Y-96660000D02*
X156600000Y-97498818D01*
X151520000Y-88700000D02*
X155360000Y-88020000D01*
X148720000Y-91200000D02*
X151520000Y-88700000D01*
X139120000Y-91000000D02*
X136167277Y-91634925D01*
%TD*%
M02*
