M48
; DRILL file {KiCad (5.1.6)-1} date 02/23/21 20:11:20
; FORMAT={-:-/ absolute / inch / decimal}
; #@! TF.CreationDate,2021-02-23T20:11:20-06:00
; #@! TF.GenerationSoftware,Kicad,Pcbnew,(5.1.6)-1
; #@! TF.FileFunction,Plated,1,2,PTH
FMAT,2
INCH
T1C0.0217
T2C0.0315
T3C0.0354
T4C0.0394
T5C0.0472
T6C0.0480
T7C0.0559
T8C0.0563
T9C0.0709
%
G90
G05
T2
X6.6906Y-4.4299
X6.6906Y-4.5299
X6.6906Y-4.6299
X5.7551Y-3.4906
X5.7551Y-3.6906
X5.8551Y-3.5906
X5.9654Y-3.4921
X6.1654Y-3.8385
X2.7902Y-3.0646
X2.7902Y-3.3646
X2.8902Y-3.0646
X2.8902Y-3.3646
X2.9902Y-3.0646
X2.9902Y-3.3646
X3.0902Y-3.0646
X3.0902Y-3.3646
X3.1902Y-3.0646
X3.1902Y-3.3646
X3.2902Y-3.0646
X3.2902Y-3.3646
X3.3902Y-3.0646
X3.3902Y-3.3646
X3.4902Y-3.0646
X3.4902Y-3.3646
X6.8929Y-2.8917
X7.2929Y-2.8917
X4.0925Y-3.0646
X4.0925Y-3.3646
X4.1925Y-3.0646
X4.1925Y-3.3646
X4.2925Y-3.0646
X4.2925Y-3.3646
X4.3925Y-3.0646
X4.3925Y-3.3646
X4.4925Y-3.0646
X4.4925Y-3.3646
X4.5925Y-3.0646
X4.5925Y-3.3646
X4.6925Y-3.0646
X4.6925Y-3.3646
X4.7925Y-3.0646
X4.7925Y-3.3646
X6.8909Y-2.9878
X6.8909Y-3.3878
X8.1815Y-3.0173
X8.1815Y-3.4173
X2.5882Y-3.8614
X2.7882Y-3.515
X4.4923Y-3.5162
X4.6291Y-3.8921
X6.1165Y-3.4654
X6.423Y-3.7225
X7.7173Y-2.4437
X7.7173Y-2.8437
X8.0177Y-3.0173
X8.0177Y-3.4173
X6.6201Y-1.9409
X6.7569Y-2.3168
X7.5677Y-3.6197
X7.7382Y-3.7181
X6.2902Y-3.3161
X6.6841Y-3.3856
X7.5583Y-4.4496
X7.9583Y-4.4496
X2.7067Y-2.5831
X2.9638Y-2.8895
X5.3453Y-3.0642
X5.3453Y-3.3642
X5.4453Y-3.0642
X5.4453Y-3.3642
X5.5453Y-3.0642
X5.5453Y-3.3642
X5.6453Y-3.0642
X5.6453Y-3.3642
X5.7453Y-3.0642
X5.7453Y-3.3642
X5.8453Y-3.0642
X5.8453Y-3.3642
X5.9453Y-3.0642
X5.9453Y-3.3642
X6.0453Y-3.0642
X6.0453Y-3.3642
X4.2915Y-3.5178
X4.4283Y-3.8937
X4.985Y-3.4709
X5.3609Y-3.6077
X4.6203Y-2.9353
X4.6898Y-2.5413
X3.2902Y-2.8903
X3.3937Y-2.5039
X4.7817Y-2.9416
X4.9185Y-2.5657
X6.1673Y-3.1661
X6.5673Y-3.1661
X5.9453Y-2.8657
X6.3453Y-2.8657
X2.939Y-3.5169
X2.939Y-3.9169
X4.1402Y-2.5146
X4.277Y-2.8904
X4.4417Y-2.5126
X4.4417Y-2.9126
X3.089Y-3.5138
X3.2258Y-3.8897
X6.1933Y-3.0161
X6.5933Y-3.0161
X6.7165Y-2.7406
X7.1165Y-2.7406
X4.0746Y-3.5324
X4.2114Y-3.9083
X3.5138Y-2.9173
X3.7138Y-2.5709
X6.7557Y-3.8676
X6.8925Y-3.4917
X3.0421Y-2.4634
X3.1116Y-2.8573
X7.0925Y-3.0654
X7.0925Y-3.3654
X7.1925Y-3.0654
X7.1925Y-3.3654
X7.2925Y-3.0654
X7.2925Y-3.3654
X7.3925Y-3.0654
X7.3925Y-3.3654
X7.4925Y-3.0654
X7.4925Y-3.3654
X7.5925Y-3.0654
X7.5925Y-3.3654
X7.6925Y-3.0654
X7.6925Y-3.3654
X6.1433Y-2.3146
X6.1433Y-2.7146
X6.7069Y-4.0818
X6.8437Y-4.4577
X6.9126Y-4.5929
X7.3126Y-4.5929
X6.9449Y-3.8655
X7.202Y-3.5591
X3.2299Y-3.5075
X3.487Y-3.8139
X7.3433Y-3.7654
X7.6897Y-3.9654
X7.4972Y-1.8862
X7.7544Y-2.1926
X5.3213Y-2.6413
X5.5181Y-2.6413
X5.3413Y-2.8657
X5.5382Y-2.8657
X7.8685Y-3.0173
X7.8685Y-3.4173
X5.1417Y-2.6681
X5.1417Y-2.865
X5.4772Y-3.5827
X5.5772Y-3.4827
X5.5772Y-3.6827
T3
X7.9748Y-2.8146
X8.0748Y-2.8146
T4
X8.0102Y-3.8626
X7.0921Y-3.9197
X7.1906Y-3.9197
X7.289Y-3.9197
X4.8697Y-3.6701
X7.1453Y-2.6417
X7.2437Y-2.6417
X7.3421Y-2.6417
X6.2205Y-3.9197
X6.3189Y-3.9197
X6.4173Y-3.9197
X7.9681Y-2.2154
X5.8425Y-2.5886
T5
X6.4176Y-2.5158
X6.6114Y-2.55
T6
X7.7583Y-4.2083
T7
X7.8803Y-4.2083
T8
X8.2071Y-4.2083
T9
X7.0016Y-4.215
X7.3795Y-4.215
X7.0547Y-2.3465
X7.4327Y-2.3465
X6.1299Y-4.215
X6.5079Y-4.215
T1
G00X8.0134Y-4.286
M15
G01X8.0134Y-4.1305
M16
G05
T0
M30
