%TF.GenerationSoftware,KiCad,Pcbnew,(5.1.6)-1*%
%TF.CreationDate,2021-02-23T20:11:17-06:00*%
%TF.ProjectId,WALKING RING,57414c4b-494e-4472-9052-494e472e6b69,rev?*%
%TF.SameCoordinates,Original*%
%TF.FileFunction,Soldermask,Bot*%
%TF.FilePolarity,Negative*%
%FSLAX46Y46*%
G04 Gerber Fmt 4.6, Leading zero omitted, Abs format (unit mm)*
G04 Created by KiCad (PCBNEW (5.1.6)-1) date 2021-02-23 20:11:17*
%MOMM*%
%LPD*%
G01*
G04 APERTURE LIST*
%ADD10C,0.010000*%
%ADD11O,1.700000X1.700000*%
%ADD12C,1.700000*%
%ADD13C,2.100000*%
%ADD14C,2.500000*%
%ADD15C,0.100000*%
%ADD16R,1.900000X1.900000*%
%ADD17C,1.900000*%
%ADD18C,3.340000*%
%ADD19R,1.700000X1.700000*%
%ADD20R,2.100000X2.100000*%
%ADD21C,3.300000*%
%ADD22O,1.400000X5.300000*%
%ADD23C,2.230000*%
%ADD24R,1.930000X2.030000*%
%ADD25R,1.600000X1.600000*%
%ADD26C,1.600000*%
%ADD27C,0.254000*%
G04 APERTURE END LIST*
D10*
%TO.C,G\u002A\u002A\u002A*%
G36*
X66367643Y-102469131D02*
G01*
X66864047Y-102469199D01*
X67314245Y-102469343D01*
X67720561Y-102469587D01*
X68085317Y-102469958D01*
X68410838Y-102470478D01*
X68699444Y-102471175D01*
X68953461Y-102472071D01*
X69175209Y-102473194D01*
X69367012Y-102474567D01*
X69531194Y-102476215D01*
X69670076Y-102478163D01*
X69785982Y-102480437D01*
X69881235Y-102483061D01*
X69958158Y-102486060D01*
X70019073Y-102489460D01*
X70066303Y-102493284D01*
X70102171Y-102497559D01*
X70129001Y-102502308D01*
X70149114Y-102507558D01*
X70164835Y-102513332D01*
X70170460Y-102515816D01*
X70275608Y-102577387D01*
X70348542Y-102657274D01*
X70398319Y-102754147D01*
X70403384Y-102770383D01*
X70407997Y-102795246D01*
X70412180Y-102831001D01*
X70415951Y-102879915D01*
X70419331Y-102944252D01*
X70422341Y-103026280D01*
X70425000Y-103128263D01*
X70427328Y-103252468D01*
X70429347Y-103401159D01*
X70431075Y-103576604D01*
X70432534Y-103781067D01*
X70433742Y-104016815D01*
X70434721Y-104286113D01*
X70435490Y-104591227D01*
X70436070Y-104934422D01*
X70436481Y-105317965D01*
X70436743Y-105744122D01*
X70436876Y-106215158D01*
X70436900Y-106733338D01*
X70436869Y-107088252D01*
X70436780Y-107632818D01*
X70436646Y-108128858D01*
X70436443Y-108578695D01*
X70436144Y-108984656D01*
X70435725Y-109349063D01*
X70435160Y-109674241D01*
X70434424Y-109962515D01*
X70433491Y-110216209D01*
X70432337Y-110437648D01*
X70430936Y-110629156D01*
X70429263Y-110793058D01*
X70427291Y-110931677D01*
X70424997Y-111047339D01*
X70422355Y-111142367D01*
X70419339Y-111219087D01*
X70415925Y-111279822D01*
X70412086Y-111326897D01*
X70407798Y-111362637D01*
X70403035Y-111389366D01*
X70397773Y-111409408D01*
X70391985Y-111425088D01*
X70389609Y-111430460D01*
X70328037Y-111535608D01*
X70248150Y-111608542D01*
X70151277Y-111658319D01*
X70135041Y-111663384D01*
X70110178Y-111667997D01*
X70074423Y-111672180D01*
X70025510Y-111675951D01*
X69961172Y-111679331D01*
X69879144Y-111682341D01*
X69777161Y-111685000D01*
X69652957Y-111687328D01*
X69504265Y-111689347D01*
X69328821Y-111691075D01*
X69124357Y-111692534D01*
X68888610Y-111693742D01*
X68619312Y-111694721D01*
X68314198Y-111695490D01*
X67971002Y-111696070D01*
X67587459Y-111696481D01*
X67161302Y-111696743D01*
X66690267Y-111696876D01*
X66172086Y-111696900D01*
X65817172Y-111696869D01*
X65272606Y-111696780D01*
X64776567Y-111696646D01*
X64326729Y-111696443D01*
X63920769Y-111696144D01*
X63556362Y-111695725D01*
X63231184Y-111695160D01*
X62942909Y-111694424D01*
X62689215Y-111693491D01*
X62467776Y-111692337D01*
X62276268Y-111690936D01*
X62112367Y-111689263D01*
X61973748Y-111687291D01*
X61858086Y-111684997D01*
X61763057Y-111682355D01*
X61686338Y-111679339D01*
X61625602Y-111675925D01*
X61578527Y-111672086D01*
X61542787Y-111667798D01*
X61516058Y-111663035D01*
X61496016Y-111657773D01*
X61480336Y-111651985D01*
X61474964Y-111649609D01*
X61369816Y-111588037D01*
X61296882Y-111508150D01*
X61247105Y-111411277D01*
X61242037Y-111395024D01*
X61237419Y-111370125D01*
X61233231Y-111334314D01*
X61229453Y-111285325D01*
X61226064Y-111220889D01*
X61223043Y-111138740D01*
X61220371Y-111036610D01*
X61218027Y-110912234D01*
X61215990Y-110763343D01*
X61214239Y-110587671D01*
X61212755Y-110382951D01*
X61211517Y-110146915D01*
X61210504Y-109877297D01*
X61209696Y-109571830D01*
X61209072Y-109228246D01*
X61208612Y-108844278D01*
X61208296Y-108417660D01*
X61208103Y-107946125D01*
X61208012Y-107427405D01*
X61207998Y-107082712D01*
X61208036Y-106533738D01*
X61208163Y-106033348D01*
X61208402Y-105579275D01*
X61208770Y-105169251D01*
X61209291Y-104801010D01*
X61209982Y-104472284D01*
X61210866Y-104180808D01*
X61211963Y-103924313D01*
X61213293Y-103700532D01*
X61214877Y-103507199D01*
X61216734Y-103342046D01*
X61218887Y-103202807D01*
X61221354Y-103087215D01*
X61224157Y-102993002D01*
X61227316Y-102917901D01*
X61230852Y-102859646D01*
X61234784Y-102815969D01*
X61239134Y-102784603D01*
X61243923Y-102763281D01*
X61247105Y-102754147D01*
X61305679Y-102644472D01*
X61382078Y-102568164D01*
X61474964Y-102515816D01*
X61489570Y-102509823D01*
X61507632Y-102504364D01*
X61531472Y-102499416D01*
X61563415Y-102494953D01*
X61605781Y-102490950D01*
X61660896Y-102487382D01*
X61731081Y-102484225D01*
X61818659Y-102481452D01*
X61925953Y-102479040D01*
X62055287Y-102476963D01*
X62208982Y-102475197D01*
X62389362Y-102473716D01*
X62598750Y-102472496D01*
X62839469Y-102471511D01*
X63113841Y-102470737D01*
X63424189Y-102470148D01*
X63772837Y-102469720D01*
X64162107Y-102469428D01*
X64594322Y-102469247D01*
X65071804Y-102469151D01*
X65596878Y-102469117D01*
X65822712Y-102469114D01*
X66367643Y-102469131D01*
G37*
X66367643Y-102469131D02*
X66864047Y-102469199D01*
X67314245Y-102469343D01*
X67720561Y-102469587D01*
X68085317Y-102469958D01*
X68410838Y-102470478D01*
X68699444Y-102471175D01*
X68953461Y-102472071D01*
X69175209Y-102473194D01*
X69367012Y-102474567D01*
X69531194Y-102476215D01*
X69670076Y-102478163D01*
X69785982Y-102480437D01*
X69881235Y-102483061D01*
X69958158Y-102486060D01*
X70019073Y-102489460D01*
X70066303Y-102493284D01*
X70102171Y-102497559D01*
X70129001Y-102502308D01*
X70149114Y-102507558D01*
X70164835Y-102513332D01*
X70170460Y-102515816D01*
X70275608Y-102577387D01*
X70348542Y-102657274D01*
X70398319Y-102754147D01*
X70403384Y-102770383D01*
X70407997Y-102795246D01*
X70412180Y-102831001D01*
X70415951Y-102879915D01*
X70419331Y-102944252D01*
X70422341Y-103026280D01*
X70425000Y-103128263D01*
X70427328Y-103252468D01*
X70429347Y-103401159D01*
X70431075Y-103576604D01*
X70432534Y-103781067D01*
X70433742Y-104016815D01*
X70434721Y-104286113D01*
X70435490Y-104591227D01*
X70436070Y-104934422D01*
X70436481Y-105317965D01*
X70436743Y-105744122D01*
X70436876Y-106215158D01*
X70436900Y-106733338D01*
X70436869Y-107088252D01*
X70436780Y-107632818D01*
X70436646Y-108128858D01*
X70436443Y-108578695D01*
X70436144Y-108984656D01*
X70435725Y-109349063D01*
X70435160Y-109674241D01*
X70434424Y-109962515D01*
X70433491Y-110216209D01*
X70432337Y-110437648D01*
X70430936Y-110629156D01*
X70429263Y-110793058D01*
X70427291Y-110931677D01*
X70424997Y-111047339D01*
X70422355Y-111142367D01*
X70419339Y-111219087D01*
X70415925Y-111279822D01*
X70412086Y-111326897D01*
X70407798Y-111362637D01*
X70403035Y-111389366D01*
X70397773Y-111409408D01*
X70391985Y-111425088D01*
X70389609Y-111430460D01*
X70328037Y-111535608D01*
X70248150Y-111608542D01*
X70151277Y-111658319D01*
X70135041Y-111663384D01*
X70110178Y-111667997D01*
X70074423Y-111672180D01*
X70025510Y-111675951D01*
X69961172Y-111679331D01*
X69879144Y-111682341D01*
X69777161Y-111685000D01*
X69652957Y-111687328D01*
X69504265Y-111689347D01*
X69328821Y-111691075D01*
X69124357Y-111692534D01*
X68888610Y-111693742D01*
X68619312Y-111694721D01*
X68314198Y-111695490D01*
X67971002Y-111696070D01*
X67587459Y-111696481D01*
X67161302Y-111696743D01*
X66690267Y-111696876D01*
X66172086Y-111696900D01*
X65817172Y-111696869D01*
X65272606Y-111696780D01*
X64776567Y-111696646D01*
X64326729Y-111696443D01*
X63920769Y-111696144D01*
X63556362Y-111695725D01*
X63231184Y-111695160D01*
X62942909Y-111694424D01*
X62689215Y-111693491D01*
X62467776Y-111692337D01*
X62276268Y-111690936D01*
X62112367Y-111689263D01*
X61973748Y-111687291D01*
X61858086Y-111684997D01*
X61763057Y-111682355D01*
X61686338Y-111679339D01*
X61625602Y-111675925D01*
X61578527Y-111672086D01*
X61542787Y-111667798D01*
X61516058Y-111663035D01*
X61496016Y-111657773D01*
X61480336Y-111651985D01*
X61474964Y-111649609D01*
X61369816Y-111588037D01*
X61296882Y-111508150D01*
X61247105Y-111411277D01*
X61242037Y-111395024D01*
X61237419Y-111370125D01*
X61233231Y-111334314D01*
X61229453Y-111285325D01*
X61226064Y-111220889D01*
X61223043Y-111138740D01*
X61220371Y-111036610D01*
X61218027Y-110912234D01*
X61215990Y-110763343D01*
X61214239Y-110587671D01*
X61212755Y-110382951D01*
X61211517Y-110146915D01*
X61210504Y-109877297D01*
X61209696Y-109571830D01*
X61209072Y-109228246D01*
X61208612Y-108844278D01*
X61208296Y-108417660D01*
X61208103Y-107946125D01*
X61208012Y-107427405D01*
X61207998Y-107082712D01*
X61208036Y-106533738D01*
X61208163Y-106033348D01*
X61208402Y-105579275D01*
X61208770Y-105169251D01*
X61209291Y-104801010D01*
X61209982Y-104472284D01*
X61210866Y-104180808D01*
X61211963Y-103924313D01*
X61213293Y-103700532D01*
X61214877Y-103507199D01*
X61216734Y-103342046D01*
X61218887Y-103202807D01*
X61221354Y-103087215D01*
X61224157Y-102993002D01*
X61227316Y-102917901D01*
X61230852Y-102859646D01*
X61234784Y-102815969D01*
X61239134Y-102784603D01*
X61243923Y-102763281D01*
X61247105Y-102754147D01*
X61305679Y-102644472D01*
X61382078Y-102568164D01*
X61474964Y-102515816D01*
X61489570Y-102509823D01*
X61507632Y-102504364D01*
X61531472Y-102499416D01*
X61563415Y-102494953D01*
X61605781Y-102490950D01*
X61660896Y-102487382D01*
X61731081Y-102484225D01*
X61818659Y-102481452D01*
X61925953Y-102479040D01*
X62055287Y-102476963D01*
X62208982Y-102475197D01*
X62389362Y-102473716D01*
X62598750Y-102472496D01*
X62839469Y-102471511D01*
X63113841Y-102470737D01*
X63424189Y-102470148D01*
X63772837Y-102469720D01*
X64162107Y-102469428D01*
X64594322Y-102469247D01*
X65071804Y-102469151D01*
X65596878Y-102469117D01*
X65822712Y-102469114D01*
X66367643Y-102469131D01*
G36*
X111694583Y-52391984D02*
G01*
X111941364Y-52402573D01*
X112167140Y-52422009D01*
X112357784Y-52450187D01*
X112367880Y-52452170D01*
X112847009Y-52572426D01*
X113300871Y-52736587D01*
X113728898Y-52944351D01*
X114130519Y-53195417D01*
X114505167Y-53489485D01*
X114732916Y-53702509D01*
X115053044Y-54058140D01*
X115331893Y-54442802D01*
X115568328Y-54854307D01*
X115761211Y-55290469D01*
X115909405Y-55749099D01*
X115994882Y-56129950D01*
X116017882Y-56298575D01*
X116033643Y-56503845D01*
X116042165Y-56732072D01*
X116043447Y-56969568D01*
X116037490Y-57202644D01*
X116024294Y-57417613D01*
X116003858Y-57600786D01*
X115994882Y-57655475D01*
X115884308Y-58124978D01*
X115729306Y-58573070D01*
X115532253Y-58997368D01*
X115295528Y-59395487D01*
X115021508Y-59765043D01*
X114712572Y-60103652D01*
X114371098Y-60408929D01*
X113999465Y-60678490D01*
X113600049Y-60909951D01*
X113175230Y-61100927D01*
X112727386Y-61249035D01*
X112318188Y-61341646D01*
X112216704Y-61355609D01*
X112080276Y-61368399D01*
X111920140Y-61379560D01*
X111747536Y-61388638D01*
X111573703Y-61395178D01*
X111409878Y-61398725D01*
X111267299Y-61398823D01*
X111157207Y-61395018D01*
X111110480Y-61390540D01*
X110846752Y-61350046D01*
X110621695Y-61308485D01*
X110423148Y-61263372D01*
X110242691Y-61213359D01*
X109793216Y-61051505D01*
X109369219Y-60846927D01*
X108972906Y-60602118D01*
X108606485Y-60319568D01*
X108272163Y-60001769D01*
X107972147Y-59651213D01*
X107708643Y-59270389D01*
X107483859Y-58861790D01*
X107300003Y-58427907D01*
X107159281Y-57971231D01*
X107090543Y-57655475D01*
X107067543Y-57486850D01*
X107051782Y-57281580D01*
X107043260Y-57053353D01*
X107041978Y-56815857D01*
X107047935Y-56582781D01*
X107061131Y-56367812D01*
X107081567Y-56184639D01*
X107090543Y-56129950D01*
X107202204Y-55654552D01*
X107359159Y-55200539D01*
X107560361Y-54769925D01*
X107804760Y-54364722D01*
X108091309Y-53986946D01*
X108355460Y-53700574D01*
X108715130Y-53377859D01*
X109101941Y-53097959D01*
X109514509Y-52861596D01*
X109951448Y-52669488D01*
X110411375Y-52522355D01*
X110779950Y-52440231D01*
X110969481Y-52414366D01*
X111194515Y-52397775D01*
X111440924Y-52390349D01*
X111694583Y-52391984D01*
G37*
X111694583Y-52391984D02*
X111941364Y-52402573D01*
X112167140Y-52422009D01*
X112357784Y-52450187D01*
X112367880Y-52452170D01*
X112847009Y-52572426D01*
X113300871Y-52736587D01*
X113728898Y-52944351D01*
X114130519Y-53195417D01*
X114505167Y-53489485D01*
X114732916Y-53702509D01*
X115053044Y-54058140D01*
X115331893Y-54442802D01*
X115568328Y-54854307D01*
X115761211Y-55290469D01*
X115909405Y-55749099D01*
X115994882Y-56129950D01*
X116017882Y-56298575D01*
X116033643Y-56503845D01*
X116042165Y-56732072D01*
X116043447Y-56969568D01*
X116037490Y-57202644D01*
X116024294Y-57417613D01*
X116003858Y-57600786D01*
X115994882Y-57655475D01*
X115884308Y-58124978D01*
X115729306Y-58573070D01*
X115532253Y-58997368D01*
X115295528Y-59395487D01*
X115021508Y-59765043D01*
X114712572Y-60103652D01*
X114371098Y-60408929D01*
X113999465Y-60678490D01*
X113600049Y-60909951D01*
X113175230Y-61100927D01*
X112727386Y-61249035D01*
X112318188Y-61341646D01*
X112216704Y-61355609D01*
X112080276Y-61368399D01*
X111920140Y-61379560D01*
X111747536Y-61388638D01*
X111573703Y-61395178D01*
X111409878Y-61398725D01*
X111267299Y-61398823D01*
X111157207Y-61395018D01*
X111110480Y-61390540D01*
X110846752Y-61350046D01*
X110621695Y-61308485D01*
X110423148Y-61263372D01*
X110242691Y-61213359D01*
X109793216Y-61051505D01*
X109369219Y-60846927D01*
X108972906Y-60602118D01*
X108606485Y-60319568D01*
X108272163Y-60001769D01*
X107972147Y-59651213D01*
X107708643Y-59270389D01*
X107483859Y-58861790D01*
X107300003Y-58427907D01*
X107159281Y-57971231D01*
X107090543Y-57655475D01*
X107067543Y-57486850D01*
X107051782Y-57281580D01*
X107043260Y-57053353D01*
X107041978Y-56815857D01*
X107047935Y-56582781D01*
X107061131Y-56367812D01*
X107081567Y-56184639D01*
X107090543Y-56129950D01*
X107202204Y-55654552D01*
X107359159Y-55200539D01*
X107560361Y-54769925D01*
X107804760Y-54364722D01*
X108091309Y-53986946D01*
X108355460Y-53700574D01*
X108715130Y-53377859D01*
X109101941Y-53097959D01*
X109514509Y-52861596D01*
X109951448Y-52669488D01*
X110411375Y-52522355D01*
X110779950Y-52440231D01*
X110969481Y-52414366D01*
X111194515Y-52397775D01*
X111440924Y-52390349D01*
X111694583Y-52391984D01*
G36*
X112057643Y-102489131D02*
G01*
X112554047Y-102489199D01*
X113004245Y-102489343D01*
X113410561Y-102489587D01*
X113775317Y-102489958D01*
X114100838Y-102490478D01*
X114389444Y-102491175D01*
X114643461Y-102492071D01*
X114865209Y-102493194D01*
X115057012Y-102494567D01*
X115221194Y-102496215D01*
X115360076Y-102498163D01*
X115475982Y-102500437D01*
X115571235Y-102503061D01*
X115648158Y-102506060D01*
X115709073Y-102509460D01*
X115756303Y-102513284D01*
X115792171Y-102517559D01*
X115819001Y-102522308D01*
X115839114Y-102527558D01*
X115854835Y-102533332D01*
X115860460Y-102535816D01*
X115965608Y-102597387D01*
X116038542Y-102677274D01*
X116088319Y-102774147D01*
X116093384Y-102790383D01*
X116097997Y-102815246D01*
X116102180Y-102851001D01*
X116105951Y-102899915D01*
X116109331Y-102964252D01*
X116112341Y-103046280D01*
X116115000Y-103148263D01*
X116117328Y-103272468D01*
X116119347Y-103421159D01*
X116121075Y-103596604D01*
X116122534Y-103801067D01*
X116123742Y-104036815D01*
X116124721Y-104306113D01*
X116125490Y-104611227D01*
X116126070Y-104954422D01*
X116126481Y-105337965D01*
X116126743Y-105764122D01*
X116126876Y-106235158D01*
X116126900Y-106753338D01*
X116126869Y-107108252D01*
X116126780Y-107652818D01*
X116126646Y-108148858D01*
X116126443Y-108598695D01*
X116126144Y-109004656D01*
X116125725Y-109369063D01*
X116125160Y-109694241D01*
X116124424Y-109982515D01*
X116123491Y-110236209D01*
X116122337Y-110457648D01*
X116120936Y-110649156D01*
X116119263Y-110813058D01*
X116117291Y-110951677D01*
X116114997Y-111067339D01*
X116112355Y-111162367D01*
X116109339Y-111239087D01*
X116105925Y-111299822D01*
X116102086Y-111346897D01*
X116097798Y-111382637D01*
X116093035Y-111409366D01*
X116087773Y-111429408D01*
X116081985Y-111445088D01*
X116079609Y-111450460D01*
X116018037Y-111555608D01*
X115938150Y-111628542D01*
X115841277Y-111678319D01*
X115825041Y-111683384D01*
X115800178Y-111687997D01*
X115764423Y-111692180D01*
X115715510Y-111695951D01*
X115651172Y-111699331D01*
X115569144Y-111702341D01*
X115467161Y-111705000D01*
X115342957Y-111707328D01*
X115194265Y-111709347D01*
X115018821Y-111711075D01*
X114814357Y-111712534D01*
X114578610Y-111713742D01*
X114309312Y-111714721D01*
X114004198Y-111715490D01*
X113661002Y-111716070D01*
X113277459Y-111716481D01*
X112851302Y-111716743D01*
X112380267Y-111716876D01*
X111862086Y-111716900D01*
X111507172Y-111716869D01*
X110962606Y-111716780D01*
X110466567Y-111716646D01*
X110016729Y-111716443D01*
X109610769Y-111716144D01*
X109246362Y-111715725D01*
X108921184Y-111715160D01*
X108632909Y-111714424D01*
X108379215Y-111713491D01*
X108157776Y-111712337D01*
X107966268Y-111710936D01*
X107802367Y-111709263D01*
X107663748Y-111707291D01*
X107548086Y-111704997D01*
X107453057Y-111702355D01*
X107376338Y-111699339D01*
X107315602Y-111695925D01*
X107268527Y-111692086D01*
X107232787Y-111687798D01*
X107206058Y-111683035D01*
X107186016Y-111677773D01*
X107170336Y-111671985D01*
X107164964Y-111669609D01*
X107059816Y-111608037D01*
X106986882Y-111528150D01*
X106937105Y-111431277D01*
X106932037Y-111415024D01*
X106927419Y-111390125D01*
X106923231Y-111354314D01*
X106919453Y-111305325D01*
X106916064Y-111240889D01*
X106913043Y-111158740D01*
X106910371Y-111056610D01*
X106908027Y-110932234D01*
X106905990Y-110783343D01*
X106904239Y-110607671D01*
X106902755Y-110402951D01*
X106901517Y-110166915D01*
X106900504Y-109897297D01*
X106899696Y-109591830D01*
X106899072Y-109248246D01*
X106898612Y-108864278D01*
X106898296Y-108437660D01*
X106898103Y-107966125D01*
X106898012Y-107447405D01*
X106897998Y-107102712D01*
X106898036Y-106553738D01*
X106898163Y-106053348D01*
X106898402Y-105599275D01*
X106898770Y-105189251D01*
X106899291Y-104821010D01*
X106899982Y-104492284D01*
X106900866Y-104200808D01*
X106901963Y-103944313D01*
X106903293Y-103720532D01*
X106904877Y-103527199D01*
X106906734Y-103362046D01*
X106908887Y-103222807D01*
X106911354Y-103107215D01*
X106914157Y-103013002D01*
X106917316Y-102937901D01*
X106920852Y-102879646D01*
X106924784Y-102835969D01*
X106929134Y-102804603D01*
X106933923Y-102783281D01*
X106937105Y-102774147D01*
X106995679Y-102664472D01*
X107072078Y-102588164D01*
X107164964Y-102535816D01*
X107179570Y-102529823D01*
X107197632Y-102524364D01*
X107221472Y-102519416D01*
X107253415Y-102514953D01*
X107295781Y-102510950D01*
X107350896Y-102507382D01*
X107421081Y-102504225D01*
X107508659Y-102501452D01*
X107615953Y-102499040D01*
X107745287Y-102496963D01*
X107898982Y-102495197D01*
X108079362Y-102493716D01*
X108288750Y-102492496D01*
X108529469Y-102491511D01*
X108803841Y-102490737D01*
X109114189Y-102490148D01*
X109462837Y-102489720D01*
X109852107Y-102489428D01*
X110284322Y-102489247D01*
X110761804Y-102489151D01*
X111286878Y-102489117D01*
X111512712Y-102489114D01*
X112057643Y-102489131D01*
G37*
X112057643Y-102489131D02*
X112554047Y-102489199D01*
X113004245Y-102489343D01*
X113410561Y-102489587D01*
X113775317Y-102489958D01*
X114100838Y-102490478D01*
X114389444Y-102491175D01*
X114643461Y-102492071D01*
X114865209Y-102493194D01*
X115057012Y-102494567D01*
X115221194Y-102496215D01*
X115360076Y-102498163D01*
X115475982Y-102500437D01*
X115571235Y-102503061D01*
X115648158Y-102506060D01*
X115709073Y-102509460D01*
X115756303Y-102513284D01*
X115792171Y-102517559D01*
X115819001Y-102522308D01*
X115839114Y-102527558D01*
X115854835Y-102533332D01*
X115860460Y-102535816D01*
X115965608Y-102597387D01*
X116038542Y-102677274D01*
X116088319Y-102774147D01*
X116093384Y-102790383D01*
X116097997Y-102815246D01*
X116102180Y-102851001D01*
X116105951Y-102899915D01*
X116109331Y-102964252D01*
X116112341Y-103046280D01*
X116115000Y-103148263D01*
X116117328Y-103272468D01*
X116119347Y-103421159D01*
X116121075Y-103596604D01*
X116122534Y-103801067D01*
X116123742Y-104036815D01*
X116124721Y-104306113D01*
X116125490Y-104611227D01*
X116126070Y-104954422D01*
X116126481Y-105337965D01*
X116126743Y-105764122D01*
X116126876Y-106235158D01*
X116126900Y-106753338D01*
X116126869Y-107108252D01*
X116126780Y-107652818D01*
X116126646Y-108148858D01*
X116126443Y-108598695D01*
X116126144Y-109004656D01*
X116125725Y-109369063D01*
X116125160Y-109694241D01*
X116124424Y-109982515D01*
X116123491Y-110236209D01*
X116122337Y-110457648D01*
X116120936Y-110649156D01*
X116119263Y-110813058D01*
X116117291Y-110951677D01*
X116114997Y-111067339D01*
X116112355Y-111162367D01*
X116109339Y-111239087D01*
X116105925Y-111299822D01*
X116102086Y-111346897D01*
X116097798Y-111382637D01*
X116093035Y-111409366D01*
X116087773Y-111429408D01*
X116081985Y-111445088D01*
X116079609Y-111450460D01*
X116018037Y-111555608D01*
X115938150Y-111628542D01*
X115841277Y-111678319D01*
X115825041Y-111683384D01*
X115800178Y-111687997D01*
X115764423Y-111692180D01*
X115715510Y-111695951D01*
X115651172Y-111699331D01*
X115569144Y-111702341D01*
X115467161Y-111705000D01*
X115342957Y-111707328D01*
X115194265Y-111709347D01*
X115018821Y-111711075D01*
X114814357Y-111712534D01*
X114578610Y-111713742D01*
X114309312Y-111714721D01*
X114004198Y-111715490D01*
X113661002Y-111716070D01*
X113277459Y-111716481D01*
X112851302Y-111716743D01*
X112380267Y-111716876D01*
X111862086Y-111716900D01*
X111507172Y-111716869D01*
X110962606Y-111716780D01*
X110466567Y-111716646D01*
X110016729Y-111716443D01*
X109610769Y-111716144D01*
X109246362Y-111715725D01*
X108921184Y-111715160D01*
X108632909Y-111714424D01*
X108379215Y-111713491D01*
X108157776Y-111712337D01*
X107966268Y-111710936D01*
X107802367Y-111709263D01*
X107663748Y-111707291D01*
X107548086Y-111704997D01*
X107453057Y-111702355D01*
X107376338Y-111699339D01*
X107315602Y-111695925D01*
X107268527Y-111692086D01*
X107232787Y-111687798D01*
X107206058Y-111683035D01*
X107186016Y-111677773D01*
X107170336Y-111671985D01*
X107164964Y-111669609D01*
X107059816Y-111608037D01*
X106986882Y-111528150D01*
X106937105Y-111431277D01*
X106932037Y-111415024D01*
X106927419Y-111390125D01*
X106923231Y-111354314D01*
X106919453Y-111305325D01*
X106916064Y-111240889D01*
X106913043Y-111158740D01*
X106910371Y-111056610D01*
X106908027Y-110932234D01*
X106905990Y-110783343D01*
X106904239Y-110607671D01*
X106902755Y-110402951D01*
X106901517Y-110166915D01*
X106900504Y-109897297D01*
X106899696Y-109591830D01*
X106899072Y-109248246D01*
X106898612Y-108864278D01*
X106898296Y-108437660D01*
X106898103Y-107966125D01*
X106898012Y-107447405D01*
X106897998Y-107102712D01*
X106898036Y-106553738D01*
X106898163Y-106053348D01*
X106898402Y-105599275D01*
X106898770Y-105189251D01*
X106899291Y-104821010D01*
X106899982Y-104492284D01*
X106900866Y-104200808D01*
X106901963Y-103944313D01*
X106903293Y-103720532D01*
X106904877Y-103527199D01*
X106906734Y-103362046D01*
X106908887Y-103222807D01*
X106911354Y-103107215D01*
X106914157Y-103013002D01*
X106917316Y-102937901D01*
X106920852Y-102879646D01*
X106924784Y-102835969D01*
X106929134Y-102804603D01*
X106933923Y-102783281D01*
X106937105Y-102774147D01*
X106995679Y-102664472D01*
X107072078Y-102588164D01*
X107164964Y-102535816D01*
X107179570Y-102529823D01*
X107197632Y-102524364D01*
X107221472Y-102519416D01*
X107253415Y-102514953D01*
X107295781Y-102510950D01*
X107350896Y-102507382D01*
X107421081Y-102504225D01*
X107508659Y-102501452D01*
X107615953Y-102499040D01*
X107745287Y-102496963D01*
X107898982Y-102495197D01*
X108079362Y-102493716D01*
X108288750Y-102492496D01*
X108529469Y-102491511D01*
X108803841Y-102490737D01*
X109114189Y-102490148D01*
X109462837Y-102489720D01*
X109852107Y-102489428D01*
X110284322Y-102489247D01*
X110761804Y-102489151D01*
X111286878Y-102489117D01*
X111512712Y-102489114D01*
X112057643Y-102489131D01*
G36*
X123104583Y-102641984D02*
G01*
X123351364Y-102652573D01*
X123577140Y-102672009D01*
X123767784Y-102700187D01*
X123777880Y-102702170D01*
X124257009Y-102822426D01*
X124710871Y-102986587D01*
X125138898Y-103194351D01*
X125540519Y-103445417D01*
X125915167Y-103739485D01*
X126142916Y-103952509D01*
X126463044Y-104308140D01*
X126741893Y-104692802D01*
X126978328Y-105104307D01*
X127171211Y-105540469D01*
X127319405Y-105999099D01*
X127404882Y-106379950D01*
X127427882Y-106548575D01*
X127443643Y-106753845D01*
X127452165Y-106982072D01*
X127453447Y-107219568D01*
X127447490Y-107452644D01*
X127434294Y-107667613D01*
X127413858Y-107850786D01*
X127404882Y-107905475D01*
X127294308Y-108374978D01*
X127139306Y-108823070D01*
X126942253Y-109247368D01*
X126705528Y-109645487D01*
X126431508Y-110015043D01*
X126122572Y-110353652D01*
X125781098Y-110658929D01*
X125409465Y-110928490D01*
X125010049Y-111159951D01*
X124585230Y-111350927D01*
X124137386Y-111499035D01*
X123728188Y-111591646D01*
X123626704Y-111605609D01*
X123490276Y-111618399D01*
X123330140Y-111629560D01*
X123157536Y-111638638D01*
X122983703Y-111645178D01*
X122819878Y-111648725D01*
X122677299Y-111648823D01*
X122567207Y-111645018D01*
X122520480Y-111640540D01*
X122256752Y-111600046D01*
X122031695Y-111558485D01*
X121833148Y-111513372D01*
X121652691Y-111463359D01*
X121203216Y-111301505D01*
X120779219Y-111096927D01*
X120382906Y-110852118D01*
X120016485Y-110569568D01*
X119682163Y-110251769D01*
X119382147Y-109901213D01*
X119118643Y-109520389D01*
X118893859Y-109111790D01*
X118710003Y-108677907D01*
X118569281Y-108221231D01*
X118500543Y-107905475D01*
X118477543Y-107736850D01*
X118461782Y-107531580D01*
X118453260Y-107303353D01*
X118451978Y-107065857D01*
X118457935Y-106832781D01*
X118471131Y-106617812D01*
X118491567Y-106434639D01*
X118500543Y-106379950D01*
X118612204Y-105904552D01*
X118769159Y-105450539D01*
X118970361Y-105019925D01*
X119214760Y-104614722D01*
X119501309Y-104236946D01*
X119765460Y-103950574D01*
X120125130Y-103627859D01*
X120511941Y-103347959D01*
X120924509Y-103111596D01*
X121361448Y-102919488D01*
X121821375Y-102772355D01*
X122189950Y-102690231D01*
X122379481Y-102664366D01*
X122604515Y-102647775D01*
X122850924Y-102640349D01*
X123104583Y-102641984D01*
G37*
X123104583Y-102641984D02*
X123351364Y-102652573D01*
X123577140Y-102672009D01*
X123767784Y-102700187D01*
X123777880Y-102702170D01*
X124257009Y-102822426D01*
X124710871Y-102986587D01*
X125138898Y-103194351D01*
X125540519Y-103445417D01*
X125915167Y-103739485D01*
X126142916Y-103952509D01*
X126463044Y-104308140D01*
X126741893Y-104692802D01*
X126978328Y-105104307D01*
X127171211Y-105540469D01*
X127319405Y-105999099D01*
X127404882Y-106379950D01*
X127427882Y-106548575D01*
X127443643Y-106753845D01*
X127452165Y-106982072D01*
X127453447Y-107219568D01*
X127447490Y-107452644D01*
X127434294Y-107667613D01*
X127413858Y-107850786D01*
X127404882Y-107905475D01*
X127294308Y-108374978D01*
X127139306Y-108823070D01*
X126942253Y-109247368D01*
X126705528Y-109645487D01*
X126431508Y-110015043D01*
X126122572Y-110353652D01*
X125781098Y-110658929D01*
X125409465Y-110928490D01*
X125010049Y-111159951D01*
X124585230Y-111350927D01*
X124137386Y-111499035D01*
X123728188Y-111591646D01*
X123626704Y-111605609D01*
X123490276Y-111618399D01*
X123330140Y-111629560D01*
X123157536Y-111638638D01*
X122983703Y-111645178D01*
X122819878Y-111648725D01*
X122677299Y-111648823D01*
X122567207Y-111645018D01*
X122520480Y-111640540D01*
X122256752Y-111600046D01*
X122031695Y-111558485D01*
X121833148Y-111513372D01*
X121652691Y-111463359D01*
X121203216Y-111301505D01*
X120779219Y-111096927D01*
X120382906Y-110852118D01*
X120016485Y-110569568D01*
X119682163Y-110251769D01*
X119382147Y-109901213D01*
X119118643Y-109520389D01*
X118893859Y-109111790D01*
X118710003Y-108677907D01*
X118569281Y-108221231D01*
X118500543Y-107905475D01*
X118477543Y-107736850D01*
X118461782Y-107531580D01*
X118453260Y-107303353D01*
X118451978Y-107065857D01*
X118457935Y-106832781D01*
X118471131Y-106617812D01*
X118491567Y-106434639D01*
X118500543Y-106379950D01*
X118612204Y-105904552D01*
X118769159Y-105450539D01*
X118970361Y-105019925D01*
X119214760Y-104614722D01*
X119501309Y-104236946D01*
X119765460Y-103950574D01*
X120125130Y-103627859D01*
X120511941Y-103347959D01*
X120924509Y-103111596D01*
X121361448Y-102919488D01*
X121821375Y-102772355D01*
X122189950Y-102690231D01*
X122379481Y-102664366D01*
X122604515Y-102647775D01*
X122850924Y-102640349D01*
X123104583Y-102641984D01*
G36*
X134937643Y-102499131D02*
G01*
X135434047Y-102499199D01*
X135884245Y-102499343D01*
X136290561Y-102499587D01*
X136655317Y-102499958D01*
X136980838Y-102500478D01*
X137269444Y-102501175D01*
X137523461Y-102502071D01*
X137745209Y-102503194D01*
X137937012Y-102504567D01*
X138101194Y-102506215D01*
X138240076Y-102508163D01*
X138355982Y-102510437D01*
X138451235Y-102513061D01*
X138528158Y-102516060D01*
X138589073Y-102519460D01*
X138636303Y-102523284D01*
X138672171Y-102527559D01*
X138699001Y-102532308D01*
X138719114Y-102537558D01*
X138734835Y-102543332D01*
X138740460Y-102545816D01*
X138845608Y-102607387D01*
X138918542Y-102687274D01*
X138968319Y-102784147D01*
X138973384Y-102800383D01*
X138977997Y-102825246D01*
X138982180Y-102861001D01*
X138985951Y-102909915D01*
X138989331Y-102974252D01*
X138992341Y-103056280D01*
X138995000Y-103158263D01*
X138997328Y-103282468D01*
X138999347Y-103431159D01*
X139001075Y-103606604D01*
X139002534Y-103811067D01*
X139003742Y-104046815D01*
X139004721Y-104316113D01*
X139005490Y-104621227D01*
X139006070Y-104964422D01*
X139006481Y-105347965D01*
X139006743Y-105774122D01*
X139006876Y-106245158D01*
X139006900Y-106763338D01*
X139006869Y-107118252D01*
X139006780Y-107662818D01*
X139006646Y-108158858D01*
X139006443Y-108608695D01*
X139006144Y-109014656D01*
X139005725Y-109379063D01*
X139005160Y-109704241D01*
X139004424Y-109992515D01*
X139003491Y-110246209D01*
X139002337Y-110467648D01*
X139000936Y-110659156D01*
X138999263Y-110823058D01*
X138997291Y-110961677D01*
X138994997Y-111077339D01*
X138992355Y-111172367D01*
X138989339Y-111249087D01*
X138985925Y-111309822D01*
X138982086Y-111356897D01*
X138977798Y-111392637D01*
X138973035Y-111419366D01*
X138967773Y-111439408D01*
X138961985Y-111455088D01*
X138959609Y-111460460D01*
X138898037Y-111565608D01*
X138818150Y-111638542D01*
X138721277Y-111688319D01*
X138705041Y-111693384D01*
X138680178Y-111697997D01*
X138644423Y-111702180D01*
X138595510Y-111705951D01*
X138531172Y-111709331D01*
X138449144Y-111712341D01*
X138347161Y-111715000D01*
X138222957Y-111717328D01*
X138074265Y-111719347D01*
X137898821Y-111721075D01*
X137694357Y-111722534D01*
X137458610Y-111723742D01*
X137189312Y-111724721D01*
X136884198Y-111725490D01*
X136541002Y-111726070D01*
X136157459Y-111726481D01*
X135731302Y-111726743D01*
X135260267Y-111726876D01*
X134742086Y-111726900D01*
X134387172Y-111726869D01*
X133842606Y-111726780D01*
X133346567Y-111726646D01*
X132896729Y-111726443D01*
X132490769Y-111726144D01*
X132126362Y-111725725D01*
X131801184Y-111725160D01*
X131512909Y-111724424D01*
X131259215Y-111723491D01*
X131037776Y-111722337D01*
X130846268Y-111720936D01*
X130682367Y-111719263D01*
X130543748Y-111717291D01*
X130428086Y-111714997D01*
X130333057Y-111712355D01*
X130256338Y-111709339D01*
X130195602Y-111705925D01*
X130148527Y-111702086D01*
X130112787Y-111697798D01*
X130086058Y-111693035D01*
X130066016Y-111687773D01*
X130050336Y-111681985D01*
X130044964Y-111679609D01*
X129939816Y-111618037D01*
X129866882Y-111538150D01*
X129817105Y-111441277D01*
X129812037Y-111425024D01*
X129807419Y-111400125D01*
X129803231Y-111364314D01*
X129799453Y-111315325D01*
X129796064Y-111250889D01*
X129793043Y-111168740D01*
X129790371Y-111066610D01*
X129788027Y-110942234D01*
X129785990Y-110793343D01*
X129784239Y-110617671D01*
X129782755Y-110412951D01*
X129781517Y-110176915D01*
X129780504Y-109907297D01*
X129779696Y-109601830D01*
X129779072Y-109258246D01*
X129778612Y-108874278D01*
X129778296Y-108447660D01*
X129778103Y-107976125D01*
X129778012Y-107457405D01*
X129777998Y-107112712D01*
X129778036Y-106563738D01*
X129778163Y-106063348D01*
X129778402Y-105609275D01*
X129778770Y-105199251D01*
X129779291Y-104831010D01*
X129779982Y-104502284D01*
X129780866Y-104210808D01*
X129781963Y-103954313D01*
X129783293Y-103730532D01*
X129784877Y-103537199D01*
X129786734Y-103372046D01*
X129788887Y-103232807D01*
X129791354Y-103117215D01*
X129794157Y-103023002D01*
X129797316Y-102947901D01*
X129800852Y-102889646D01*
X129804784Y-102845969D01*
X129809134Y-102814603D01*
X129813923Y-102793281D01*
X129817105Y-102784147D01*
X129875679Y-102674472D01*
X129952078Y-102598164D01*
X130044964Y-102545816D01*
X130059570Y-102539823D01*
X130077632Y-102534364D01*
X130101472Y-102529416D01*
X130133415Y-102524953D01*
X130175781Y-102520950D01*
X130230896Y-102517382D01*
X130301081Y-102514225D01*
X130388659Y-102511452D01*
X130495953Y-102509040D01*
X130625287Y-102506963D01*
X130778982Y-102505197D01*
X130959362Y-102503716D01*
X131168750Y-102502496D01*
X131409469Y-102501511D01*
X131683841Y-102500737D01*
X131994189Y-102500148D01*
X132342837Y-102499720D01*
X132732107Y-102499428D01*
X133164322Y-102499247D01*
X133641804Y-102499151D01*
X134166878Y-102499117D01*
X134392712Y-102499114D01*
X134937643Y-102499131D01*
G37*
X134937643Y-102499131D02*
X135434047Y-102499199D01*
X135884245Y-102499343D01*
X136290561Y-102499587D01*
X136655317Y-102499958D01*
X136980838Y-102500478D01*
X137269444Y-102501175D01*
X137523461Y-102502071D01*
X137745209Y-102503194D01*
X137937012Y-102504567D01*
X138101194Y-102506215D01*
X138240076Y-102508163D01*
X138355982Y-102510437D01*
X138451235Y-102513061D01*
X138528158Y-102516060D01*
X138589073Y-102519460D01*
X138636303Y-102523284D01*
X138672171Y-102527559D01*
X138699001Y-102532308D01*
X138719114Y-102537558D01*
X138734835Y-102543332D01*
X138740460Y-102545816D01*
X138845608Y-102607387D01*
X138918542Y-102687274D01*
X138968319Y-102784147D01*
X138973384Y-102800383D01*
X138977997Y-102825246D01*
X138982180Y-102861001D01*
X138985951Y-102909915D01*
X138989331Y-102974252D01*
X138992341Y-103056280D01*
X138995000Y-103158263D01*
X138997328Y-103282468D01*
X138999347Y-103431159D01*
X139001075Y-103606604D01*
X139002534Y-103811067D01*
X139003742Y-104046815D01*
X139004721Y-104316113D01*
X139005490Y-104621227D01*
X139006070Y-104964422D01*
X139006481Y-105347965D01*
X139006743Y-105774122D01*
X139006876Y-106245158D01*
X139006900Y-106763338D01*
X139006869Y-107118252D01*
X139006780Y-107662818D01*
X139006646Y-108158858D01*
X139006443Y-108608695D01*
X139006144Y-109014656D01*
X139005725Y-109379063D01*
X139005160Y-109704241D01*
X139004424Y-109992515D01*
X139003491Y-110246209D01*
X139002337Y-110467648D01*
X139000936Y-110659156D01*
X138999263Y-110823058D01*
X138997291Y-110961677D01*
X138994997Y-111077339D01*
X138992355Y-111172367D01*
X138989339Y-111249087D01*
X138985925Y-111309822D01*
X138982086Y-111356897D01*
X138977798Y-111392637D01*
X138973035Y-111419366D01*
X138967773Y-111439408D01*
X138961985Y-111455088D01*
X138959609Y-111460460D01*
X138898037Y-111565608D01*
X138818150Y-111638542D01*
X138721277Y-111688319D01*
X138705041Y-111693384D01*
X138680178Y-111697997D01*
X138644423Y-111702180D01*
X138595510Y-111705951D01*
X138531172Y-111709331D01*
X138449144Y-111712341D01*
X138347161Y-111715000D01*
X138222957Y-111717328D01*
X138074265Y-111719347D01*
X137898821Y-111721075D01*
X137694357Y-111722534D01*
X137458610Y-111723742D01*
X137189312Y-111724721D01*
X136884198Y-111725490D01*
X136541002Y-111726070D01*
X136157459Y-111726481D01*
X135731302Y-111726743D01*
X135260267Y-111726876D01*
X134742086Y-111726900D01*
X134387172Y-111726869D01*
X133842606Y-111726780D01*
X133346567Y-111726646D01*
X132896729Y-111726443D01*
X132490769Y-111726144D01*
X132126362Y-111725725D01*
X131801184Y-111725160D01*
X131512909Y-111724424D01*
X131259215Y-111723491D01*
X131037776Y-111722337D01*
X130846268Y-111720936D01*
X130682367Y-111719263D01*
X130543748Y-111717291D01*
X130428086Y-111714997D01*
X130333057Y-111712355D01*
X130256338Y-111709339D01*
X130195602Y-111705925D01*
X130148527Y-111702086D01*
X130112787Y-111697798D01*
X130086058Y-111693035D01*
X130066016Y-111687773D01*
X130050336Y-111681985D01*
X130044964Y-111679609D01*
X129939816Y-111618037D01*
X129866882Y-111538150D01*
X129817105Y-111441277D01*
X129812037Y-111425024D01*
X129807419Y-111400125D01*
X129803231Y-111364314D01*
X129799453Y-111315325D01*
X129796064Y-111250889D01*
X129793043Y-111168740D01*
X129790371Y-111066610D01*
X129788027Y-110942234D01*
X129785990Y-110793343D01*
X129784239Y-110617671D01*
X129782755Y-110412951D01*
X129781517Y-110176915D01*
X129780504Y-109907297D01*
X129779696Y-109601830D01*
X129779072Y-109258246D01*
X129778612Y-108874278D01*
X129778296Y-108447660D01*
X129778103Y-107976125D01*
X129778012Y-107457405D01*
X129777998Y-107112712D01*
X129778036Y-106563738D01*
X129778163Y-106063348D01*
X129778402Y-105609275D01*
X129778770Y-105199251D01*
X129779291Y-104831010D01*
X129779982Y-104502284D01*
X129780866Y-104210808D01*
X129781963Y-103954313D01*
X129783293Y-103730532D01*
X129784877Y-103537199D01*
X129786734Y-103372046D01*
X129788887Y-103232807D01*
X129791354Y-103117215D01*
X129794157Y-103023002D01*
X129797316Y-102947901D01*
X129800852Y-102889646D01*
X129804784Y-102845969D01*
X129809134Y-102814603D01*
X129813923Y-102793281D01*
X129817105Y-102784147D01*
X129875679Y-102674472D01*
X129952078Y-102598164D01*
X130044964Y-102545816D01*
X130059570Y-102539823D01*
X130077632Y-102534364D01*
X130101472Y-102529416D01*
X130133415Y-102524953D01*
X130175781Y-102520950D01*
X130230896Y-102517382D01*
X130301081Y-102514225D01*
X130388659Y-102511452D01*
X130495953Y-102509040D01*
X130625287Y-102506963D01*
X130778982Y-102505197D01*
X130959362Y-102503716D01*
X131168750Y-102502496D01*
X131409469Y-102501511D01*
X131683841Y-102500737D01*
X131994189Y-102500148D01*
X132342837Y-102499720D01*
X132732107Y-102499428D01*
X133164322Y-102499247D01*
X133641804Y-102499151D01*
X134166878Y-102499117D01*
X134392712Y-102499114D01*
X134937643Y-102499131D01*
G36*
X88814583Y-52381984D02*
G01*
X89061364Y-52392573D01*
X89287140Y-52412009D01*
X89477784Y-52440187D01*
X89487880Y-52442170D01*
X89967009Y-52562426D01*
X90420871Y-52726587D01*
X90848898Y-52934351D01*
X91250519Y-53185417D01*
X91625167Y-53479485D01*
X91852916Y-53692509D01*
X92173044Y-54048140D01*
X92451893Y-54432802D01*
X92688328Y-54844307D01*
X92881211Y-55280469D01*
X93029405Y-55739099D01*
X93114882Y-56119950D01*
X93137882Y-56288575D01*
X93153643Y-56493845D01*
X93162165Y-56722072D01*
X93163447Y-56959568D01*
X93157490Y-57192644D01*
X93144294Y-57407613D01*
X93123858Y-57590786D01*
X93114882Y-57645475D01*
X93004308Y-58114978D01*
X92849306Y-58563070D01*
X92652253Y-58987368D01*
X92415528Y-59385487D01*
X92141508Y-59755043D01*
X91832572Y-60093652D01*
X91491098Y-60398929D01*
X91119465Y-60668490D01*
X90720049Y-60899951D01*
X90295230Y-61090927D01*
X89847386Y-61239035D01*
X89438188Y-61331646D01*
X89336704Y-61345609D01*
X89200276Y-61358399D01*
X89040140Y-61369560D01*
X88867536Y-61378638D01*
X88693703Y-61385178D01*
X88529878Y-61388725D01*
X88387299Y-61388823D01*
X88277207Y-61385018D01*
X88230480Y-61380540D01*
X87966752Y-61340046D01*
X87741695Y-61298485D01*
X87543148Y-61253372D01*
X87362691Y-61203359D01*
X86913216Y-61041505D01*
X86489219Y-60836927D01*
X86092906Y-60592118D01*
X85726485Y-60309568D01*
X85392163Y-59991769D01*
X85092147Y-59641213D01*
X84828643Y-59260389D01*
X84603859Y-58851790D01*
X84420003Y-58417907D01*
X84279281Y-57961231D01*
X84210543Y-57645475D01*
X84187543Y-57476850D01*
X84171782Y-57271580D01*
X84163260Y-57043353D01*
X84161978Y-56805857D01*
X84167935Y-56572781D01*
X84181131Y-56357812D01*
X84201567Y-56174639D01*
X84210543Y-56119950D01*
X84322204Y-55644552D01*
X84479159Y-55190539D01*
X84680361Y-54759925D01*
X84924760Y-54354722D01*
X85211309Y-53976946D01*
X85475460Y-53690574D01*
X85835130Y-53367859D01*
X86221941Y-53087959D01*
X86634509Y-52851596D01*
X87071448Y-52659488D01*
X87531375Y-52512355D01*
X87899950Y-52430231D01*
X88089481Y-52404366D01*
X88314515Y-52387775D01*
X88560924Y-52380349D01*
X88814583Y-52381984D01*
G37*
X88814583Y-52381984D02*
X89061364Y-52392573D01*
X89287140Y-52412009D01*
X89477784Y-52440187D01*
X89487880Y-52442170D01*
X89967009Y-52562426D01*
X90420871Y-52726587D01*
X90848898Y-52934351D01*
X91250519Y-53185417D01*
X91625167Y-53479485D01*
X91852916Y-53692509D01*
X92173044Y-54048140D01*
X92451893Y-54432802D01*
X92688328Y-54844307D01*
X92881211Y-55280469D01*
X93029405Y-55739099D01*
X93114882Y-56119950D01*
X93137882Y-56288575D01*
X93153643Y-56493845D01*
X93162165Y-56722072D01*
X93163447Y-56959568D01*
X93157490Y-57192644D01*
X93144294Y-57407613D01*
X93123858Y-57590786D01*
X93114882Y-57645475D01*
X93004308Y-58114978D01*
X92849306Y-58563070D01*
X92652253Y-58987368D01*
X92415528Y-59385487D01*
X92141508Y-59755043D01*
X91832572Y-60093652D01*
X91491098Y-60398929D01*
X91119465Y-60668490D01*
X90720049Y-60899951D01*
X90295230Y-61090927D01*
X89847386Y-61239035D01*
X89438188Y-61331646D01*
X89336704Y-61345609D01*
X89200276Y-61358399D01*
X89040140Y-61369560D01*
X88867536Y-61378638D01*
X88693703Y-61385178D01*
X88529878Y-61388725D01*
X88387299Y-61388823D01*
X88277207Y-61385018D01*
X88230480Y-61380540D01*
X87966752Y-61340046D01*
X87741695Y-61298485D01*
X87543148Y-61253372D01*
X87362691Y-61203359D01*
X86913216Y-61041505D01*
X86489219Y-60836927D01*
X86092906Y-60592118D01*
X85726485Y-60309568D01*
X85392163Y-59991769D01*
X85092147Y-59641213D01*
X84828643Y-59260389D01*
X84603859Y-58851790D01*
X84420003Y-58417907D01*
X84279281Y-57961231D01*
X84210543Y-57645475D01*
X84187543Y-57476850D01*
X84171782Y-57271580D01*
X84163260Y-57043353D01*
X84161978Y-56805857D01*
X84167935Y-56572781D01*
X84181131Y-56357812D01*
X84201567Y-56174639D01*
X84210543Y-56119950D01*
X84322204Y-55644552D01*
X84479159Y-55190539D01*
X84680361Y-54759925D01*
X84924760Y-54354722D01*
X85211309Y-53976946D01*
X85475460Y-53690574D01*
X85835130Y-53367859D01*
X86221941Y-53087959D01*
X86634509Y-52851596D01*
X87071448Y-52659488D01*
X87531375Y-52512355D01*
X87899950Y-52430231D01*
X88089481Y-52404366D01*
X88314515Y-52387775D01*
X88560924Y-52380349D01*
X88814583Y-52381984D01*
G36*
X65924583Y-52381984D02*
G01*
X66171364Y-52392573D01*
X66397140Y-52412009D01*
X66587784Y-52440187D01*
X66597880Y-52442170D01*
X67077009Y-52562426D01*
X67530871Y-52726587D01*
X67958898Y-52934351D01*
X68360519Y-53185417D01*
X68735167Y-53479485D01*
X68962916Y-53692509D01*
X69283044Y-54048140D01*
X69561893Y-54432802D01*
X69798328Y-54844307D01*
X69991211Y-55280469D01*
X70139405Y-55739099D01*
X70224882Y-56119950D01*
X70247882Y-56288575D01*
X70263643Y-56493845D01*
X70272165Y-56722072D01*
X70273447Y-56959568D01*
X70267490Y-57192644D01*
X70254294Y-57407613D01*
X70233858Y-57590786D01*
X70224882Y-57645475D01*
X70114308Y-58114978D01*
X69959306Y-58563070D01*
X69762253Y-58987368D01*
X69525528Y-59385487D01*
X69251508Y-59755043D01*
X68942572Y-60093652D01*
X68601098Y-60398929D01*
X68229465Y-60668490D01*
X67830049Y-60899951D01*
X67405230Y-61090927D01*
X66957386Y-61239035D01*
X66548188Y-61331646D01*
X66446704Y-61345609D01*
X66310276Y-61358399D01*
X66150140Y-61369560D01*
X65977536Y-61378638D01*
X65803703Y-61385178D01*
X65639878Y-61388725D01*
X65497299Y-61388823D01*
X65387207Y-61385018D01*
X65340480Y-61380540D01*
X65076752Y-61340046D01*
X64851695Y-61298485D01*
X64653148Y-61253372D01*
X64472691Y-61203359D01*
X64023216Y-61041505D01*
X63599219Y-60836927D01*
X63202906Y-60592118D01*
X62836485Y-60309568D01*
X62502163Y-59991769D01*
X62202147Y-59641213D01*
X61938643Y-59260389D01*
X61713859Y-58851790D01*
X61530003Y-58417907D01*
X61389281Y-57961231D01*
X61320543Y-57645475D01*
X61297543Y-57476850D01*
X61281782Y-57271580D01*
X61273260Y-57043353D01*
X61271978Y-56805857D01*
X61277935Y-56572781D01*
X61291131Y-56357812D01*
X61311567Y-56174639D01*
X61320543Y-56119950D01*
X61432204Y-55644552D01*
X61589159Y-55190539D01*
X61790361Y-54759925D01*
X62034760Y-54354722D01*
X62321309Y-53976946D01*
X62585460Y-53690574D01*
X62945130Y-53367859D01*
X63331941Y-53087959D01*
X63744509Y-52851596D01*
X64181448Y-52659488D01*
X64641375Y-52512355D01*
X65009950Y-52430231D01*
X65199481Y-52404366D01*
X65424515Y-52387775D01*
X65670924Y-52380349D01*
X65924583Y-52381984D01*
G37*
X65924583Y-52381984D02*
X66171364Y-52392573D01*
X66397140Y-52412009D01*
X66587784Y-52440187D01*
X66597880Y-52442170D01*
X67077009Y-52562426D01*
X67530871Y-52726587D01*
X67958898Y-52934351D01*
X68360519Y-53185417D01*
X68735167Y-53479485D01*
X68962916Y-53692509D01*
X69283044Y-54048140D01*
X69561893Y-54432802D01*
X69798328Y-54844307D01*
X69991211Y-55280469D01*
X70139405Y-55739099D01*
X70224882Y-56119950D01*
X70247882Y-56288575D01*
X70263643Y-56493845D01*
X70272165Y-56722072D01*
X70273447Y-56959568D01*
X70267490Y-57192644D01*
X70254294Y-57407613D01*
X70233858Y-57590786D01*
X70224882Y-57645475D01*
X70114308Y-58114978D01*
X69959306Y-58563070D01*
X69762253Y-58987368D01*
X69525528Y-59385487D01*
X69251508Y-59755043D01*
X68942572Y-60093652D01*
X68601098Y-60398929D01*
X68229465Y-60668490D01*
X67830049Y-60899951D01*
X67405230Y-61090927D01*
X66957386Y-61239035D01*
X66548188Y-61331646D01*
X66446704Y-61345609D01*
X66310276Y-61358399D01*
X66150140Y-61369560D01*
X65977536Y-61378638D01*
X65803703Y-61385178D01*
X65639878Y-61388725D01*
X65497299Y-61388823D01*
X65387207Y-61385018D01*
X65340480Y-61380540D01*
X65076752Y-61340046D01*
X64851695Y-61298485D01*
X64653148Y-61253372D01*
X64472691Y-61203359D01*
X64023216Y-61041505D01*
X63599219Y-60836927D01*
X63202906Y-60592118D01*
X62836485Y-60309568D01*
X62502163Y-59991769D01*
X62202147Y-59641213D01*
X61938643Y-59260389D01*
X61713859Y-58851790D01*
X61530003Y-58417907D01*
X61389281Y-57961231D01*
X61320543Y-57645475D01*
X61297543Y-57476850D01*
X61281782Y-57271580D01*
X61273260Y-57043353D01*
X61271978Y-56805857D01*
X61277935Y-56572781D01*
X61291131Y-56357812D01*
X61311567Y-56174639D01*
X61320543Y-56119950D01*
X61432204Y-55644552D01*
X61589159Y-55190539D01*
X61790361Y-54759925D01*
X62034760Y-54354722D01*
X62321309Y-53976946D01*
X62585460Y-53690574D01*
X62945130Y-53367859D01*
X63331941Y-53087959D01*
X63744509Y-52851596D01*
X64181448Y-52659488D01*
X64641375Y-52512355D01*
X65009950Y-52430231D01*
X65199481Y-52404366D01*
X65424515Y-52387775D01*
X65670924Y-52380349D01*
X65924583Y-52381984D01*
G36*
X146407643Y-52269131D02*
G01*
X146904047Y-52269199D01*
X147354245Y-52269343D01*
X147760561Y-52269587D01*
X148125317Y-52269958D01*
X148450838Y-52270478D01*
X148739444Y-52271175D01*
X148993461Y-52272071D01*
X149215209Y-52273194D01*
X149407012Y-52274567D01*
X149571194Y-52276215D01*
X149710076Y-52278163D01*
X149825982Y-52280437D01*
X149921235Y-52283061D01*
X149998158Y-52286060D01*
X150059073Y-52289460D01*
X150106303Y-52293284D01*
X150142171Y-52297559D01*
X150169001Y-52302308D01*
X150189114Y-52307558D01*
X150204835Y-52313332D01*
X150210460Y-52315816D01*
X150315608Y-52377387D01*
X150388542Y-52457274D01*
X150438319Y-52554147D01*
X150443384Y-52570383D01*
X150447997Y-52595246D01*
X150452180Y-52631001D01*
X150455951Y-52679915D01*
X150459331Y-52744252D01*
X150462341Y-52826280D01*
X150465000Y-52928263D01*
X150467328Y-53052468D01*
X150469347Y-53201159D01*
X150471075Y-53376604D01*
X150472534Y-53581067D01*
X150473742Y-53816815D01*
X150474721Y-54086113D01*
X150475490Y-54391227D01*
X150476070Y-54734422D01*
X150476481Y-55117965D01*
X150476743Y-55544122D01*
X150476876Y-56015158D01*
X150476900Y-56533338D01*
X150476869Y-56888252D01*
X150476780Y-57432818D01*
X150476646Y-57928858D01*
X150476443Y-58378695D01*
X150476144Y-58784656D01*
X150475725Y-59149063D01*
X150475160Y-59474241D01*
X150474424Y-59762515D01*
X150473491Y-60016209D01*
X150472337Y-60237648D01*
X150470936Y-60429156D01*
X150469263Y-60593058D01*
X150467291Y-60731677D01*
X150464997Y-60847339D01*
X150462355Y-60942367D01*
X150459339Y-61019087D01*
X150455925Y-61079822D01*
X150452086Y-61126897D01*
X150447798Y-61162637D01*
X150443035Y-61189366D01*
X150437773Y-61209408D01*
X150431985Y-61225088D01*
X150429609Y-61230460D01*
X150368037Y-61335608D01*
X150288150Y-61408542D01*
X150191277Y-61458319D01*
X150175041Y-61463384D01*
X150150178Y-61467997D01*
X150114423Y-61472180D01*
X150065510Y-61475951D01*
X150001172Y-61479331D01*
X149919144Y-61482341D01*
X149817161Y-61485000D01*
X149692957Y-61487328D01*
X149544265Y-61489347D01*
X149368821Y-61491075D01*
X149164357Y-61492534D01*
X148928610Y-61493742D01*
X148659312Y-61494721D01*
X148354198Y-61495490D01*
X148011002Y-61496070D01*
X147627459Y-61496481D01*
X147201302Y-61496743D01*
X146730267Y-61496876D01*
X146212086Y-61496900D01*
X145857172Y-61496869D01*
X145312606Y-61496780D01*
X144816567Y-61496646D01*
X144366729Y-61496443D01*
X143960769Y-61496144D01*
X143596362Y-61495725D01*
X143271184Y-61495160D01*
X142982909Y-61494424D01*
X142729215Y-61493491D01*
X142507776Y-61492337D01*
X142316268Y-61490936D01*
X142152367Y-61489263D01*
X142013748Y-61487291D01*
X141898086Y-61484997D01*
X141803057Y-61482355D01*
X141726338Y-61479339D01*
X141665602Y-61475925D01*
X141618527Y-61472086D01*
X141582787Y-61467798D01*
X141556058Y-61463035D01*
X141536016Y-61457773D01*
X141520336Y-61451985D01*
X141514964Y-61449609D01*
X141409816Y-61388037D01*
X141336882Y-61308150D01*
X141287105Y-61211277D01*
X141282037Y-61195024D01*
X141277419Y-61170125D01*
X141273231Y-61134314D01*
X141269453Y-61085325D01*
X141266064Y-61020889D01*
X141263043Y-60938740D01*
X141260371Y-60836610D01*
X141258027Y-60712234D01*
X141255990Y-60563343D01*
X141254239Y-60387671D01*
X141252755Y-60182951D01*
X141251517Y-59946915D01*
X141250504Y-59677297D01*
X141249696Y-59371830D01*
X141249072Y-59028246D01*
X141248612Y-58644278D01*
X141248296Y-58217660D01*
X141248103Y-57746125D01*
X141248012Y-57227405D01*
X141247998Y-56882712D01*
X141248036Y-56333738D01*
X141248163Y-55833348D01*
X141248402Y-55379275D01*
X141248770Y-54969251D01*
X141249291Y-54601010D01*
X141249982Y-54272284D01*
X141250866Y-53980808D01*
X141251963Y-53724313D01*
X141253293Y-53500532D01*
X141254877Y-53307199D01*
X141256734Y-53142046D01*
X141258887Y-53002807D01*
X141261354Y-52887215D01*
X141264157Y-52793002D01*
X141267316Y-52717901D01*
X141270852Y-52659646D01*
X141274784Y-52615969D01*
X141279134Y-52584603D01*
X141283923Y-52563281D01*
X141287105Y-52554147D01*
X141345679Y-52444472D01*
X141422078Y-52368164D01*
X141514964Y-52315816D01*
X141529570Y-52309823D01*
X141547632Y-52304364D01*
X141571472Y-52299416D01*
X141603415Y-52294953D01*
X141645781Y-52290950D01*
X141700896Y-52287382D01*
X141771081Y-52284225D01*
X141858659Y-52281452D01*
X141965953Y-52279040D01*
X142095287Y-52276963D01*
X142248982Y-52275197D01*
X142429362Y-52273716D01*
X142638750Y-52272496D01*
X142879469Y-52271511D01*
X143153841Y-52270737D01*
X143464189Y-52270148D01*
X143812837Y-52269720D01*
X144202107Y-52269428D01*
X144634322Y-52269247D01*
X145111804Y-52269151D01*
X145636878Y-52269117D01*
X145862712Y-52269114D01*
X146407643Y-52269131D01*
G37*
X146407643Y-52269131D02*
X146904047Y-52269199D01*
X147354245Y-52269343D01*
X147760561Y-52269587D01*
X148125317Y-52269958D01*
X148450838Y-52270478D01*
X148739444Y-52271175D01*
X148993461Y-52272071D01*
X149215209Y-52273194D01*
X149407012Y-52274567D01*
X149571194Y-52276215D01*
X149710076Y-52278163D01*
X149825982Y-52280437D01*
X149921235Y-52283061D01*
X149998158Y-52286060D01*
X150059073Y-52289460D01*
X150106303Y-52293284D01*
X150142171Y-52297559D01*
X150169001Y-52302308D01*
X150189114Y-52307558D01*
X150204835Y-52313332D01*
X150210460Y-52315816D01*
X150315608Y-52377387D01*
X150388542Y-52457274D01*
X150438319Y-52554147D01*
X150443384Y-52570383D01*
X150447997Y-52595246D01*
X150452180Y-52631001D01*
X150455951Y-52679915D01*
X150459331Y-52744252D01*
X150462341Y-52826280D01*
X150465000Y-52928263D01*
X150467328Y-53052468D01*
X150469347Y-53201159D01*
X150471075Y-53376604D01*
X150472534Y-53581067D01*
X150473742Y-53816815D01*
X150474721Y-54086113D01*
X150475490Y-54391227D01*
X150476070Y-54734422D01*
X150476481Y-55117965D01*
X150476743Y-55544122D01*
X150476876Y-56015158D01*
X150476900Y-56533338D01*
X150476869Y-56888252D01*
X150476780Y-57432818D01*
X150476646Y-57928858D01*
X150476443Y-58378695D01*
X150476144Y-58784656D01*
X150475725Y-59149063D01*
X150475160Y-59474241D01*
X150474424Y-59762515D01*
X150473491Y-60016209D01*
X150472337Y-60237648D01*
X150470936Y-60429156D01*
X150469263Y-60593058D01*
X150467291Y-60731677D01*
X150464997Y-60847339D01*
X150462355Y-60942367D01*
X150459339Y-61019087D01*
X150455925Y-61079822D01*
X150452086Y-61126897D01*
X150447798Y-61162637D01*
X150443035Y-61189366D01*
X150437773Y-61209408D01*
X150431985Y-61225088D01*
X150429609Y-61230460D01*
X150368037Y-61335608D01*
X150288150Y-61408542D01*
X150191277Y-61458319D01*
X150175041Y-61463384D01*
X150150178Y-61467997D01*
X150114423Y-61472180D01*
X150065510Y-61475951D01*
X150001172Y-61479331D01*
X149919144Y-61482341D01*
X149817161Y-61485000D01*
X149692957Y-61487328D01*
X149544265Y-61489347D01*
X149368821Y-61491075D01*
X149164357Y-61492534D01*
X148928610Y-61493742D01*
X148659312Y-61494721D01*
X148354198Y-61495490D01*
X148011002Y-61496070D01*
X147627459Y-61496481D01*
X147201302Y-61496743D01*
X146730267Y-61496876D01*
X146212086Y-61496900D01*
X145857172Y-61496869D01*
X145312606Y-61496780D01*
X144816567Y-61496646D01*
X144366729Y-61496443D01*
X143960769Y-61496144D01*
X143596362Y-61495725D01*
X143271184Y-61495160D01*
X142982909Y-61494424D01*
X142729215Y-61493491D01*
X142507776Y-61492337D01*
X142316268Y-61490936D01*
X142152367Y-61489263D01*
X142013748Y-61487291D01*
X141898086Y-61484997D01*
X141803057Y-61482355D01*
X141726338Y-61479339D01*
X141665602Y-61475925D01*
X141618527Y-61472086D01*
X141582787Y-61467798D01*
X141556058Y-61463035D01*
X141536016Y-61457773D01*
X141520336Y-61451985D01*
X141514964Y-61449609D01*
X141409816Y-61388037D01*
X141336882Y-61308150D01*
X141287105Y-61211277D01*
X141282037Y-61195024D01*
X141277419Y-61170125D01*
X141273231Y-61134314D01*
X141269453Y-61085325D01*
X141266064Y-61020889D01*
X141263043Y-60938740D01*
X141260371Y-60836610D01*
X141258027Y-60712234D01*
X141255990Y-60563343D01*
X141254239Y-60387671D01*
X141252755Y-60182951D01*
X141251517Y-59946915D01*
X141250504Y-59677297D01*
X141249696Y-59371830D01*
X141249072Y-59028246D01*
X141248612Y-58644278D01*
X141248296Y-58217660D01*
X141248103Y-57746125D01*
X141248012Y-57227405D01*
X141247998Y-56882712D01*
X141248036Y-56333738D01*
X141248163Y-55833348D01*
X141248402Y-55379275D01*
X141248770Y-54969251D01*
X141249291Y-54601010D01*
X141249982Y-54272284D01*
X141250866Y-53980808D01*
X141251963Y-53724313D01*
X141253293Y-53500532D01*
X141254877Y-53307199D01*
X141256734Y-53142046D01*
X141258887Y-53002807D01*
X141261354Y-52887215D01*
X141264157Y-52793002D01*
X141267316Y-52717901D01*
X141270852Y-52659646D01*
X141274784Y-52615969D01*
X141279134Y-52584603D01*
X141283923Y-52563281D01*
X141287105Y-52554147D01*
X141345679Y-52444472D01*
X141422078Y-52368164D01*
X141514964Y-52315816D01*
X141529570Y-52309823D01*
X141547632Y-52304364D01*
X141571472Y-52299416D01*
X141603415Y-52294953D01*
X141645781Y-52290950D01*
X141700896Y-52287382D01*
X141771081Y-52284225D01*
X141858659Y-52281452D01*
X141965953Y-52279040D01*
X142095287Y-52276963D01*
X142248982Y-52275197D01*
X142429362Y-52273716D01*
X142638750Y-52272496D01*
X142879469Y-52271511D01*
X143153841Y-52270737D01*
X143464189Y-52270148D01*
X143812837Y-52269720D01*
X144202107Y-52269428D01*
X144634322Y-52269247D01*
X145111804Y-52269151D01*
X145636878Y-52269117D01*
X145862712Y-52269114D01*
X146407643Y-52269131D01*
G36*
X89207643Y-102479131D02*
G01*
X89704047Y-102479199D01*
X90154245Y-102479343D01*
X90560561Y-102479587D01*
X90925317Y-102479958D01*
X91250838Y-102480478D01*
X91539444Y-102481175D01*
X91793461Y-102482071D01*
X92015209Y-102483194D01*
X92207012Y-102484567D01*
X92371194Y-102486215D01*
X92510076Y-102488163D01*
X92625982Y-102490437D01*
X92721235Y-102493061D01*
X92798158Y-102496060D01*
X92859073Y-102499460D01*
X92906303Y-102503284D01*
X92942171Y-102507559D01*
X92969001Y-102512308D01*
X92989114Y-102517558D01*
X93004835Y-102523332D01*
X93010460Y-102525816D01*
X93115608Y-102587387D01*
X93188542Y-102667274D01*
X93238319Y-102764147D01*
X93243384Y-102780383D01*
X93247997Y-102805246D01*
X93252180Y-102841001D01*
X93255951Y-102889915D01*
X93259331Y-102954252D01*
X93262341Y-103036280D01*
X93265000Y-103138263D01*
X93267328Y-103262468D01*
X93269347Y-103411159D01*
X93271075Y-103586604D01*
X93272534Y-103791067D01*
X93273742Y-104026815D01*
X93274721Y-104296113D01*
X93275490Y-104601227D01*
X93276070Y-104944422D01*
X93276481Y-105327965D01*
X93276743Y-105754122D01*
X93276876Y-106225158D01*
X93276900Y-106743338D01*
X93276869Y-107098252D01*
X93276780Y-107642818D01*
X93276646Y-108138858D01*
X93276443Y-108588695D01*
X93276144Y-108994656D01*
X93275725Y-109359063D01*
X93275160Y-109684241D01*
X93274424Y-109972515D01*
X93273491Y-110226209D01*
X93272337Y-110447648D01*
X93270936Y-110639156D01*
X93269263Y-110803058D01*
X93267291Y-110941677D01*
X93264997Y-111057339D01*
X93262355Y-111152367D01*
X93259339Y-111229087D01*
X93255925Y-111289822D01*
X93252086Y-111336897D01*
X93247798Y-111372637D01*
X93243035Y-111399366D01*
X93237773Y-111419408D01*
X93231985Y-111435088D01*
X93229609Y-111440460D01*
X93168037Y-111545608D01*
X93088150Y-111618542D01*
X92991277Y-111668319D01*
X92975041Y-111673384D01*
X92950178Y-111677997D01*
X92914423Y-111682180D01*
X92865510Y-111685951D01*
X92801172Y-111689331D01*
X92719144Y-111692341D01*
X92617161Y-111695000D01*
X92492957Y-111697328D01*
X92344265Y-111699347D01*
X92168821Y-111701075D01*
X91964357Y-111702534D01*
X91728610Y-111703742D01*
X91459312Y-111704721D01*
X91154198Y-111705490D01*
X90811002Y-111706070D01*
X90427459Y-111706481D01*
X90001302Y-111706743D01*
X89530267Y-111706876D01*
X89012086Y-111706900D01*
X88657172Y-111706869D01*
X88112606Y-111706780D01*
X87616567Y-111706646D01*
X87166729Y-111706443D01*
X86760769Y-111706144D01*
X86396362Y-111705725D01*
X86071184Y-111705160D01*
X85782909Y-111704424D01*
X85529215Y-111703491D01*
X85307776Y-111702337D01*
X85116268Y-111700936D01*
X84952367Y-111699263D01*
X84813748Y-111697291D01*
X84698086Y-111694997D01*
X84603057Y-111692355D01*
X84526338Y-111689339D01*
X84465602Y-111685925D01*
X84418527Y-111682086D01*
X84382787Y-111677798D01*
X84356058Y-111673035D01*
X84336016Y-111667773D01*
X84320336Y-111661985D01*
X84314964Y-111659609D01*
X84209816Y-111598037D01*
X84136882Y-111518150D01*
X84087105Y-111421277D01*
X84082037Y-111405024D01*
X84077419Y-111380125D01*
X84073231Y-111344314D01*
X84069453Y-111295325D01*
X84066064Y-111230889D01*
X84063043Y-111148740D01*
X84060371Y-111046610D01*
X84058027Y-110922234D01*
X84055990Y-110773343D01*
X84054239Y-110597671D01*
X84052755Y-110392951D01*
X84051517Y-110156915D01*
X84050504Y-109887297D01*
X84049696Y-109581830D01*
X84049072Y-109238246D01*
X84048612Y-108854278D01*
X84048296Y-108427660D01*
X84048103Y-107956125D01*
X84048012Y-107437405D01*
X84047998Y-107092712D01*
X84048036Y-106543738D01*
X84048163Y-106043348D01*
X84048402Y-105589275D01*
X84048770Y-105179251D01*
X84049291Y-104811010D01*
X84049982Y-104482284D01*
X84050866Y-104190808D01*
X84051963Y-103934313D01*
X84053293Y-103710532D01*
X84054877Y-103517199D01*
X84056734Y-103352046D01*
X84058887Y-103212807D01*
X84061354Y-103097215D01*
X84064157Y-103003002D01*
X84067316Y-102927901D01*
X84070852Y-102869646D01*
X84074784Y-102825969D01*
X84079134Y-102794603D01*
X84083923Y-102773281D01*
X84087105Y-102764147D01*
X84145679Y-102654472D01*
X84222078Y-102578164D01*
X84314964Y-102525816D01*
X84329570Y-102519823D01*
X84347632Y-102514364D01*
X84371472Y-102509416D01*
X84403415Y-102504953D01*
X84445781Y-102500950D01*
X84500896Y-102497382D01*
X84571081Y-102494225D01*
X84658659Y-102491452D01*
X84765953Y-102489040D01*
X84895287Y-102486963D01*
X85048982Y-102485197D01*
X85229362Y-102483716D01*
X85438750Y-102482496D01*
X85679469Y-102481511D01*
X85953841Y-102480737D01*
X86264189Y-102480148D01*
X86612837Y-102479720D01*
X87002107Y-102479428D01*
X87434322Y-102479247D01*
X87911804Y-102479151D01*
X88436878Y-102479117D01*
X88662712Y-102479114D01*
X89207643Y-102479131D01*
G37*
X89207643Y-102479131D02*
X89704047Y-102479199D01*
X90154245Y-102479343D01*
X90560561Y-102479587D01*
X90925317Y-102479958D01*
X91250838Y-102480478D01*
X91539444Y-102481175D01*
X91793461Y-102482071D01*
X92015209Y-102483194D01*
X92207012Y-102484567D01*
X92371194Y-102486215D01*
X92510076Y-102488163D01*
X92625982Y-102490437D01*
X92721235Y-102493061D01*
X92798158Y-102496060D01*
X92859073Y-102499460D01*
X92906303Y-102503284D01*
X92942171Y-102507559D01*
X92969001Y-102512308D01*
X92989114Y-102517558D01*
X93004835Y-102523332D01*
X93010460Y-102525816D01*
X93115608Y-102587387D01*
X93188542Y-102667274D01*
X93238319Y-102764147D01*
X93243384Y-102780383D01*
X93247997Y-102805246D01*
X93252180Y-102841001D01*
X93255951Y-102889915D01*
X93259331Y-102954252D01*
X93262341Y-103036280D01*
X93265000Y-103138263D01*
X93267328Y-103262468D01*
X93269347Y-103411159D01*
X93271075Y-103586604D01*
X93272534Y-103791067D01*
X93273742Y-104026815D01*
X93274721Y-104296113D01*
X93275490Y-104601227D01*
X93276070Y-104944422D01*
X93276481Y-105327965D01*
X93276743Y-105754122D01*
X93276876Y-106225158D01*
X93276900Y-106743338D01*
X93276869Y-107098252D01*
X93276780Y-107642818D01*
X93276646Y-108138858D01*
X93276443Y-108588695D01*
X93276144Y-108994656D01*
X93275725Y-109359063D01*
X93275160Y-109684241D01*
X93274424Y-109972515D01*
X93273491Y-110226209D01*
X93272337Y-110447648D01*
X93270936Y-110639156D01*
X93269263Y-110803058D01*
X93267291Y-110941677D01*
X93264997Y-111057339D01*
X93262355Y-111152367D01*
X93259339Y-111229087D01*
X93255925Y-111289822D01*
X93252086Y-111336897D01*
X93247798Y-111372637D01*
X93243035Y-111399366D01*
X93237773Y-111419408D01*
X93231985Y-111435088D01*
X93229609Y-111440460D01*
X93168037Y-111545608D01*
X93088150Y-111618542D01*
X92991277Y-111668319D01*
X92975041Y-111673384D01*
X92950178Y-111677997D01*
X92914423Y-111682180D01*
X92865510Y-111685951D01*
X92801172Y-111689331D01*
X92719144Y-111692341D01*
X92617161Y-111695000D01*
X92492957Y-111697328D01*
X92344265Y-111699347D01*
X92168821Y-111701075D01*
X91964357Y-111702534D01*
X91728610Y-111703742D01*
X91459312Y-111704721D01*
X91154198Y-111705490D01*
X90811002Y-111706070D01*
X90427459Y-111706481D01*
X90001302Y-111706743D01*
X89530267Y-111706876D01*
X89012086Y-111706900D01*
X88657172Y-111706869D01*
X88112606Y-111706780D01*
X87616567Y-111706646D01*
X87166729Y-111706443D01*
X86760769Y-111706144D01*
X86396362Y-111705725D01*
X86071184Y-111705160D01*
X85782909Y-111704424D01*
X85529215Y-111703491D01*
X85307776Y-111702337D01*
X85116268Y-111700936D01*
X84952367Y-111699263D01*
X84813748Y-111697291D01*
X84698086Y-111694997D01*
X84603057Y-111692355D01*
X84526338Y-111689339D01*
X84465602Y-111685925D01*
X84418527Y-111682086D01*
X84382787Y-111677798D01*
X84356058Y-111673035D01*
X84336016Y-111667773D01*
X84320336Y-111661985D01*
X84314964Y-111659609D01*
X84209816Y-111598037D01*
X84136882Y-111518150D01*
X84087105Y-111421277D01*
X84082037Y-111405024D01*
X84077419Y-111380125D01*
X84073231Y-111344314D01*
X84069453Y-111295325D01*
X84066064Y-111230889D01*
X84063043Y-111148740D01*
X84060371Y-111046610D01*
X84058027Y-110922234D01*
X84055990Y-110773343D01*
X84054239Y-110597671D01*
X84052755Y-110392951D01*
X84051517Y-110156915D01*
X84050504Y-109887297D01*
X84049696Y-109581830D01*
X84049072Y-109238246D01*
X84048612Y-108854278D01*
X84048296Y-108427660D01*
X84048103Y-107956125D01*
X84048012Y-107437405D01*
X84047998Y-107092712D01*
X84048036Y-106543738D01*
X84048163Y-106043348D01*
X84048402Y-105589275D01*
X84048770Y-105179251D01*
X84049291Y-104811010D01*
X84049982Y-104482284D01*
X84050866Y-104190808D01*
X84051963Y-103934313D01*
X84053293Y-103710532D01*
X84054877Y-103517199D01*
X84056734Y-103352046D01*
X84058887Y-103212807D01*
X84061354Y-103097215D01*
X84064157Y-103003002D01*
X84067316Y-102927901D01*
X84070852Y-102869646D01*
X84074784Y-102825969D01*
X84079134Y-102794603D01*
X84083923Y-102773281D01*
X84087105Y-102764147D01*
X84145679Y-102654472D01*
X84222078Y-102578164D01*
X84314964Y-102525816D01*
X84329570Y-102519823D01*
X84347632Y-102514364D01*
X84371472Y-102509416D01*
X84403415Y-102504953D01*
X84445781Y-102500950D01*
X84500896Y-102497382D01*
X84571081Y-102494225D01*
X84658659Y-102491452D01*
X84765953Y-102489040D01*
X84895287Y-102486963D01*
X85048982Y-102485197D01*
X85229362Y-102483716D01*
X85438750Y-102482496D01*
X85679469Y-102481511D01*
X85953841Y-102480737D01*
X86264189Y-102480148D01*
X86612837Y-102479720D01*
X87002107Y-102479428D01*
X87434322Y-102479247D01*
X87911804Y-102479151D01*
X88436878Y-102479117D01*
X88662712Y-102479114D01*
X89207643Y-102479131D01*
G36*
X100657643Y-52289131D02*
G01*
X101154047Y-52289199D01*
X101604245Y-52289343D01*
X102010561Y-52289587D01*
X102375317Y-52289958D01*
X102700838Y-52290478D01*
X102989444Y-52291175D01*
X103243461Y-52292071D01*
X103465209Y-52293194D01*
X103657012Y-52294567D01*
X103821194Y-52296215D01*
X103960076Y-52298163D01*
X104075982Y-52300437D01*
X104171235Y-52303061D01*
X104248158Y-52306060D01*
X104309073Y-52309460D01*
X104356303Y-52313284D01*
X104392171Y-52317559D01*
X104419001Y-52322308D01*
X104439114Y-52327558D01*
X104454835Y-52333332D01*
X104460460Y-52335816D01*
X104565608Y-52397387D01*
X104638542Y-52477274D01*
X104688319Y-52574147D01*
X104693384Y-52590383D01*
X104697997Y-52615246D01*
X104702180Y-52651001D01*
X104705951Y-52699915D01*
X104709331Y-52764252D01*
X104712341Y-52846280D01*
X104715000Y-52948263D01*
X104717328Y-53072468D01*
X104719347Y-53221159D01*
X104721075Y-53396604D01*
X104722534Y-53601067D01*
X104723742Y-53836815D01*
X104724721Y-54106113D01*
X104725490Y-54411227D01*
X104726070Y-54754422D01*
X104726481Y-55137965D01*
X104726743Y-55564122D01*
X104726876Y-56035158D01*
X104726900Y-56553338D01*
X104726869Y-56908252D01*
X104726780Y-57452818D01*
X104726646Y-57948858D01*
X104726443Y-58398695D01*
X104726144Y-58804656D01*
X104725725Y-59169063D01*
X104725160Y-59494241D01*
X104724424Y-59782515D01*
X104723491Y-60036209D01*
X104722337Y-60257648D01*
X104720936Y-60449156D01*
X104719263Y-60613058D01*
X104717291Y-60751677D01*
X104714997Y-60867339D01*
X104712355Y-60962367D01*
X104709339Y-61039087D01*
X104705925Y-61099822D01*
X104702086Y-61146897D01*
X104697798Y-61182637D01*
X104693035Y-61209366D01*
X104687773Y-61229408D01*
X104681985Y-61245088D01*
X104679609Y-61250460D01*
X104618037Y-61355608D01*
X104538150Y-61428542D01*
X104441277Y-61478319D01*
X104425041Y-61483384D01*
X104400178Y-61487997D01*
X104364423Y-61492180D01*
X104315510Y-61495951D01*
X104251172Y-61499331D01*
X104169144Y-61502341D01*
X104067161Y-61505000D01*
X103942957Y-61507328D01*
X103794265Y-61509347D01*
X103618821Y-61511075D01*
X103414357Y-61512534D01*
X103178610Y-61513742D01*
X102909312Y-61514721D01*
X102604198Y-61515490D01*
X102261002Y-61516070D01*
X101877459Y-61516481D01*
X101451302Y-61516743D01*
X100980267Y-61516876D01*
X100462086Y-61516900D01*
X100107172Y-61516869D01*
X99562606Y-61516780D01*
X99066567Y-61516646D01*
X98616729Y-61516443D01*
X98210769Y-61516144D01*
X97846362Y-61515725D01*
X97521184Y-61515160D01*
X97232909Y-61514424D01*
X96979215Y-61513491D01*
X96757776Y-61512337D01*
X96566268Y-61510936D01*
X96402367Y-61509263D01*
X96263748Y-61507291D01*
X96148086Y-61504997D01*
X96053057Y-61502355D01*
X95976338Y-61499339D01*
X95915602Y-61495925D01*
X95868527Y-61492086D01*
X95832787Y-61487798D01*
X95806058Y-61483035D01*
X95786016Y-61477773D01*
X95770336Y-61471985D01*
X95764964Y-61469609D01*
X95659816Y-61408037D01*
X95586882Y-61328150D01*
X95537105Y-61231277D01*
X95532037Y-61215024D01*
X95527419Y-61190125D01*
X95523231Y-61154314D01*
X95519453Y-61105325D01*
X95516064Y-61040889D01*
X95513043Y-60958740D01*
X95510371Y-60856610D01*
X95508027Y-60732234D01*
X95505990Y-60583343D01*
X95504239Y-60407671D01*
X95502755Y-60202951D01*
X95501517Y-59966915D01*
X95500504Y-59697297D01*
X95499696Y-59391830D01*
X95499072Y-59048246D01*
X95498612Y-58664278D01*
X95498296Y-58237660D01*
X95498103Y-57766125D01*
X95498012Y-57247405D01*
X95497998Y-56902712D01*
X95498036Y-56353738D01*
X95498163Y-55853348D01*
X95498402Y-55399275D01*
X95498770Y-54989251D01*
X95499291Y-54621010D01*
X95499982Y-54292284D01*
X95500866Y-54000808D01*
X95501963Y-53744313D01*
X95503293Y-53520532D01*
X95504877Y-53327199D01*
X95506734Y-53162046D01*
X95508887Y-53022807D01*
X95511354Y-52907215D01*
X95514157Y-52813002D01*
X95517316Y-52737901D01*
X95520852Y-52679646D01*
X95524784Y-52635969D01*
X95529134Y-52604603D01*
X95533923Y-52583281D01*
X95537105Y-52574147D01*
X95595679Y-52464472D01*
X95672078Y-52388164D01*
X95764964Y-52335816D01*
X95779570Y-52329823D01*
X95797632Y-52324364D01*
X95821472Y-52319416D01*
X95853415Y-52314953D01*
X95895781Y-52310950D01*
X95950896Y-52307382D01*
X96021081Y-52304225D01*
X96108659Y-52301452D01*
X96215953Y-52299040D01*
X96345287Y-52296963D01*
X96498982Y-52295197D01*
X96679362Y-52293716D01*
X96888750Y-52292496D01*
X97129469Y-52291511D01*
X97403841Y-52290737D01*
X97714189Y-52290148D01*
X98062837Y-52289720D01*
X98452107Y-52289428D01*
X98884322Y-52289247D01*
X99361804Y-52289151D01*
X99886878Y-52289117D01*
X100112712Y-52289114D01*
X100657643Y-52289131D01*
G37*
X100657643Y-52289131D02*
X101154047Y-52289199D01*
X101604245Y-52289343D01*
X102010561Y-52289587D01*
X102375317Y-52289958D01*
X102700838Y-52290478D01*
X102989444Y-52291175D01*
X103243461Y-52292071D01*
X103465209Y-52293194D01*
X103657012Y-52294567D01*
X103821194Y-52296215D01*
X103960076Y-52298163D01*
X104075982Y-52300437D01*
X104171235Y-52303061D01*
X104248158Y-52306060D01*
X104309073Y-52309460D01*
X104356303Y-52313284D01*
X104392171Y-52317559D01*
X104419001Y-52322308D01*
X104439114Y-52327558D01*
X104454835Y-52333332D01*
X104460460Y-52335816D01*
X104565608Y-52397387D01*
X104638542Y-52477274D01*
X104688319Y-52574147D01*
X104693384Y-52590383D01*
X104697997Y-52615246D01*
X104702180Y-52651001D01*
X104705951Y-52699915D01*
X104709331Y-52764252D01*
X104712341Y-52846280D01*
X104715000Y-52948263D01*
X104717328Y-53072468D01*
X104719347Y-53221159D01*
X104721075Y-53396604D01*
X104722534Y-53601067D01*
X104723742Y-53836815D01*
X104724721Y-54106113D01*
X104725490Y-54411227D01*
X104726070Y-54754422D01*
X104726481Y-55137965D01*
X104726743Y-55564122D01*
X104726876Y-56035158D01*
X104726900Y-56553338D01*
X104726869Y-56908252D01*
X104726780Y-57452818D01*
X104726646Y-57948858D01*
X104726443Y-58398695D01*
X104726144Y-58804656D01*
X104725725Y-59169063D01*
X104725160Y-59494241D01*
X104724424Y-59782515D01*
X104723491Y-60036209D01*
X104722337Y-60257648D01*
X104720936Y-60449156D01*
X104719263Y-60613058D01*
X104717291Y-60751677D01*
X104714997Y-60867339D01*
X104712355Y-60962367D01*
X104709339Y-61039087D01*
X104705925Y-61099822D01*
X104702086Y-61146897D01*
X104697798Y-61182637D01*
X104693035Y-61209366D01*
X104687773Y-61229408D01*
X104681985Y-61245088D01*
X104679609Y-61250460D01*
X104618037Y-61355608D01*
X104538150Y-61428542D01*
X104441277Y-61478319D01*
X104425041Y-61483384D01*
X104400178Y-61487997D01*
X104364423Y-61492180D01*
X104315510Y-61495951D01*
X104251172Y-61499331D01*
X104169144Y-61502341D01*
X104067161Y-61505000D01*
X103942957Y-61507328D01*
X103794265Y-61509347D01*
X103618821Y-61511075D01*
X103414357Y-61512534D01*
X103178610Y-61513742D01*
X102909312Y-61514721D01*
X102604198Y-61515490D01*
X102261002Y-61516070D01*
X101877459Y-61516481D01*
X101451302Y-61516743D01*
X100980267Y-61516876D01*
X100462086Y-61516900D01*
X100107172Y-61516869D01*
X99562606Y-61516780D01*
X99066567Y-61516646D01*
X98616729Y-61516443D01*
X98210769Y-61516144D01*
X97846362Y-61515725D01*
X97521184Y-61515160D01*
X97232909Y-61514424D01*
X96979215Y-61513491D01*
X96757776Y-61512337D01*
X96566268Y-61510936D01*
X96402367Y-61509263D01*
X96263748Y-61507291D01*
X96148086Y-61504997D01*
X96053057Y-61502355D01*
X95976338Y-61499339D01*
X95915602Y-61495925D01*
X95868527Y-61492086D01*
X95832787Y-61487798D01*
X95806058Y-61483035D01*
X95786016Y-61477773D01*
X95770336Y-61471985D01*
X95764964Y-61469609D01*
X95659816Y-61408037D01*
X95586882Y-61328150D01*
X95537105Y-61231277D01*
X95532037Y-61215024D01*
X95527419Y-61190125D01*
X95523231Y-61154314D01*
X95519453Y-61105325D01*
X95516064Y-61040889D01*
X95513043Y-60958740D01*
X95510371Y-60856610D01*
X95508027Y-60732234D01*
X95505990Y-60583343D01*
X95504239Y-60407671D01*
X95502755Y-60202951D01*
X95501517Y-59966915D01*
X95500504Y-59697297D01*
X95499696Y-59391830D01*
X95499072Y-59048246D01*
X95498612Y-58664278D01*
X95498296Y-58237660D01*
X95498103Y-57766125D01*
X95498012Y-57247405D01*
X95497998Y-56902712D01*
X95498036Y-56353738D01*
X95498163Y-55853348D01*
X95498402Y-55399275D01*
X95498770Y-54989251D01*
X95499291Y-54621010D01*
X95499982Y-54292284D01*
X95500866Y-54000808D01*
X95501963Y-53744313D01*
X95503293Y-53520532D01*
X95504877Y-53327199D01*
X95506734Y-53162046D01*
X95508887Y-53022807D01*
X95511354Y-52907215D01*
X95514157Y-52813002D01*
X95517316Y-52737901D01*
X95520852Y-52679646D01*
X95524784Y-52635969D01*
X95529134Y-52604603D01*
X95533923Y-52583281D01*
X95537105Y-52574147D01*
X95595679Y-52464472D01*
X95672078Y-52388164D01*
X95764964Y-52335816D01*
X95779570Y-52329823D01*
X95797632Y-52324364D01*
X95821472Y-52319416D01*
X95853415Y-52314953D01*
X95895781Y-52310950D01*
X95950896Y-52307382D01*
X96021081Y-52304225D01*
X96108659Y-52301452D01*
X96215953Y-52299040D01*
X96345287Y-52296963D01*
X96498982Y-52295197D01*
X96679362Y-52293716D01*
X96888750Y-52292496D01*
X97129469Y-52291511D01*
X97403841Y-52290737D01*
X97714189Y-52290148D01*
X98062837Y-52289720D01*
X98452107Y-52289428D01*
X98884322Y-52289247D01*
X99361804Y-52289151D01*
X99886878Y-52289117D01*
X100112712Y-52289114D01*
X100657643Y-52289131D01*
G36*
X77757643Y-52289131D02*
G01*
X78254047Y-52289199D01*
X78704245Y-52289343D01*
X79110561Y-52289587D01*
X79475317Y-52289958D01*
X79800838Y-52290478D01*
X80089444Y-52291175D01*
X80343461Y-52292071D01*
X80565209Y-52293194D01*
X80757012Y-52294567D01*
X80921194Y-52296215D01*
X81060076Y-52298163D01*
X81175982Y-52300437D01*
X81271235Y-52303061D01*
X81348158Y-52306060D01*
X81409073Y-52309460D01*
X81456303Y-52313284D01*
X81492171Y-52317559D01*
X81519001Y-52322308D01*
X81539114Y-52327558D01*
X81554835Y-52333332D01*
X81560460Y-52335816D01*
X81665608Y-52397387D01*
X81738542Y-52477274D01*
X81788319Y-52574147D01*
X81793384Y-52590383D01*
X81797997Y-52615246D01*
X81802180Y-52651001D01*
X81805951Y-52699915D01*
X81809331Y-52764252D01*
X81812341Y-52846280D01*
X81815000Y-52948263D01*
X81817328Y-53072468D01*
X81819347Y-53221159D01*
X81821075Y-53396604D01*
X81822534Y-53601067D01*
X81823742Y-53836815D01*
X81824721Y-54106113D01*
X81825490Y-54411227D01*
X81826070Y-54754422D01*
X81826481Y-55137965D01*
X81826743Y-55564122D01*
X81826876Y-56035158D01*
X81826900Y-56553338D01*
X81826869Y-56908252D01*
X81826780Y-57452818D01*
X81826646Y-57948858D01*
X81826443Y-58398695D01*
X81826144Y-58804656D01*
X81825725Y-59169063D01*
X81825160Y-59494241D01*
X81824424Y-59782515D01*
X81823491Y-60036209D01*
X81822337Y-60257648D01*
X81820936Y-60449156D01*
X81819263Y-60613058D01*
X81817291Y-60751677D01*
X81814997Y-60867339D01*
X81812355Y-60962367D01*
X81809339Y-61039087D01*
X81805925Y-61099822D01*
X81802086Y-61146897D01*
X81797798Y-61182637D01*
X81793035Y-61209366D01*
X81787773Y-61229408D01*
X81781985Y-61245088D01*
X81779609Y-61250460D01*
X81718037Y-61355608D01*
X81638150Y-61428542D01*
X81541277Y-61478319D01*
X81525041Y-61483384D01*
X81500178Y-61487997D01*
X81464423Y-61492180D01*
X81415510Y-61495951D01*
X81351172Y-61499331D01*
X81269144Y-61502341D01*
X81167161Y-61505000D01*
X81042957Y-61507328D01*
X80894265Y-61509347D01*
X80718821Y-61511075D01*
X80514357Y-61512534D01*
X80278610Y-61513742D01*
X80009312Y-61514721D01*
X79704198Y-61515490D01*
X79361002Y-61516070D01*
X78977459Y-61516481D01*
X78551302Y-61516743D01*
X78080267Y-61516876D01*
X77562086Y-61516900D01*
X77207172Y-61516869D01*
X76662606Y-61516780D01*
X76166567Y-61516646D01*
X75716729Y-61516443D01*
X75310769Y-61516144D01*
X74946362Y-61515725D01*
X74621184Y-61515160D01*
X74332909Y-61514424D01*
X74079215Y-61513491D01*
X73857776Y-61512337D01*
X73666268Y-61510936D01*
X73502367Y-61509263D01*
X73363748Y-61507291D01*
X73248086Y-61504997D01*
X73153057Y-61502355D01*
X73076338Y-61499339D01*
X73015602Y-61495925D01*
X72968527Y-61492086D01*
X72932787Y-61487798D01*
X72906058Y-61483035D01*
X72886016Y-61477773D01*
X72870336Y-61471985D01*
X72864964Y-61469609D01*
X72759816Y-61408037D01*
X72686882Y-61328150D01*
X72637105Y-61231277D01*
X72632037Y-61215024D01*
X72627419Y-61190125D01*
X72623231Y-61154314D01*
X72619453Y-61105325D01*
X72616064Y-61040889D01*
X72613043Y-60958740D01*
X72610371Y-60856610D01*
X72608027Y-60732234D01*
X72605990Y-60583343D01*
X72604239Y-60407671D01*
X72602755Y-60202951D01*
X72601517Y-59966915D01*
X72600504Y-59697297D01*
X72599696Y-59391830D01*
X72599072Y-59048246D01*
X72598612Y-58664278D01*
X72598296Y-58237660D01*
X72598103Y-57766125D01*
X72598012Y-57247405D01*
X72597998Y-56902712D01*
X72598036Y-56353738D01*
X72598163Y-55853348D01*
X72598402Y-55399275D01*
X72598770Y-54989251D01*
X72599291Y-54621010D01*
X72599982Y-54292284D01*
X72600866Y-54000808D01*
X72601963Y-53744313D01*
X72603293Y-53520532D01*
X72604877Y-53327199D01*
X72606734Y-53162046D01*
X72608887Y-53022807D01*
X72611354Y-52907215D01*
X72614157Y-52813002D01*
X72617316Y-52737901D01*
X72620852Y-52679646D01*
X72624784Y-52635969D01*
X72629134Y-52604603D01*
X72633923Y-52583281D01*
X72637105Y-52574147D01*
X72695679Y-52464472D01*
X72772078Y-52388164D01*
X72864964Y-52335816D01*
X72879570Y-52329823D01*
X72897632Y-52324364D01*
X72921472Y-52319416D01*
X72953415Y-52314953D01*
X72995781Y-52310950D01*
X73050896Y-52307382D01*
X73121081Y-52304225D01*
X73208659Y-52301452D01*
X73315953Y-52299040D01*
X73445287Y-52296963D01*
X73598982Y-52295197D01*
X73779362Y-52293716D01*
X73988750Y-52292496D01*
X74229469Y-52291511D01*
X74503841Y-52290737D01*
X74814189Y-52290148D01*
X75162837Y-52289720D01*
X75552107Y-52289428D01*
X75984322Y-52289247D01*
X76461804Y-52289151D01*
X76986878Y-52289117D01*
X77212712Y-52289114D01*
X77757643Y-52289131D01*
G37*
X77757643Y-52289131D02*
X78254047Y-52289199D01*
X78704245Y-52289343D01*
X79110561Y-52289587D01*
X79475317Y-52289958D01*
X79800838Y-52290478D01*
X80089444Y-52291175D01*
X80343461Y-52292071D01*
X80565209Y-52293194D01*
X80757012Y-52294567D01*
X80921194Y-52296215D01*
X81060076Y-52298163D01*
X81175982Y-52300437D01*
X81271235Y-52303061D01*
X81348158Y-52306060D01*
X81409073Y-52309460D01*
X81456303Y-52313284D01*
X81492171Y-52317559D01*
X81519001Y-52322308D01*
X81539114Y-52327558D01*
X81554835Y-52333332D01*
X81560460Y-52335816D01*
X81665608Y-52397387D01*
X81738542Y-52477274D01*
X81788319Y-52574147D01*
X81793384Y-52590383D01*
X81797997Y-52615246D01*
X81802180Y-52651001D01*
X81805951Y-52699915D01*
X81809331Y-52764252D01*
X81812341Y-52846280D01*
X81815000Y-52948263D01*
X81817328Y-53072468D01*
X81819347Y-53221159D01*
X81821075Y-53396604D01*
X81822534Y-53601067D01*
X81823742Y-53836815D01*
X81824721Y-54106113D01*
X81825490Y-54411227D01*
X81826070Y-54754422D01*
X81826481Y-55137965D01*
X81826743Y-55564122D01*
X81826876Y-56035158D01*
X81826900Y-56553338D01*
X81826869Y-56908252D01*
X81826780Y-57452818D01*
X81826646Y-57948858D01*
X81826443Y-58398695D01*
X81826144Y-58804656D01*
X81825725Y-59169063D01*
X81825160Y-59494241D01*
X81824424Y-59782515D01*
X81823491Y-60036209D01*
X81822337Y-60257648D01*
X81820936Y-60449156D01*
X81819263Y-60613058D01*
X81817291Y-60751677D01*
X81814997Y-60867339D01*
X81812355Y-60962367D01*
X81809339Y-61039087D01*
X81805925Y-61099822D01*
X81802086Y-61146897D01*
X81797798Y-61182637D01*
X81793035Y-61209366D01*
X81787773Y-61229408D01*
X81781985Y-61245088D01*
X81779609Y-61250460D01*
X81718037Y-61355608D01*
X81638150Y-61428542D01*
X81541277Y-61478319D01*
X81525041Y-61483384D01*
X81500178Y-61487997D01*
X81464423Y-61492180D01*
X81415510Y-61495951D01*
X81351172Y-61499331D01*
X81269144Y-61502341D01*
X81167161Y-61505000D01*
X81042957Y-61507328D01*
X80894265Y-61509347D01*
X80718821Y-61511075D01*
X80514357Y-61512534D01*
X80278610Y-61513742D01*
X80009312Y-61514721D01*
X79704198Y-61515490D01*
X79361002Y-61516070D01*
X78977459Y-61516481D01*
X78551302Y-61516743D01*
X78080267Y-61516876D01*
X77562086Y-61516900D01*
X77207172Y-61516869D01*
X76662606Y-61516780D01*
X76166567Y-61516646D01*
X75716729Y-61516443D01*
X75310769Y-61516144D01*
X74946362Y-61515725D01*
X74621184Y-61515160D01*
X74332909Y-61514424D01*
X74079215Y-61513491D01*
X73857776Y-61512337D01*
X73666268Y-61510936D01*
X73502367Y-61509263D01*
X73363748Y-61507291D01*
X73248086Y-61504997D01*
X73153057Y-61502355D01*
X73076338Y-61499339D01*
X73015602Y-61495925D01*
X72968527Y-61492086D01*
X72932787Y-61487798D01*
X72906058Y-61483035D01*
X72886016Y-61477773D01*
X72870336Y-61471985D01*
X72864964Y-61469609D01*
X72759816Y-61408037D01*
X72686882Y-61328150D01*
X72637105Y-61231277D01*
X72632037Y-61215024D01*
X72627419Y-61190125D01*
X72623231Y-61154314D01*
X72619453Y-61105325D01*
X72616064Y-61040889D01*
X72613043Y-60958740D01*
X72610371Y-60856610D01*
X72608027Y-60732234D01*
X72605990Y-60583343D01*
X72604239Y-60407671D01*
X72602755Y-60202951D01*
X72601517Y-59966915D01*
X72600504Y-59697297D01*
X72599696Y-59391830D01*
X72599072Y-59048246D01*
X72598612Y-58664278D01*
X72598296Y-58237660D01*
X72598103Y-57766125D01*
X72598012Y-57247405D01*
X72597998Y-56902712D01*
X72598036Y-56353738D01*
X72598163Y-55853348D01*
X72598402Y-55399275D01*
X72598770Y-54989251D01*
X72599291Y-54621010D01*
X72599982Y-54292284D01*
X72600866Y-54000808D01*
X72601963Y-53744313D01*
X72603293Y-53520532D01*
X72604877Y-53327199D01*
X72606734Y-53162046D01*
X72608887Y-53022807D01*
X72611354Y-52907215D01*
X72614157Y-52813002D01*
X72617316Y-52737901D01*
X72620852Y-52679646D01*
X72624784Y-52635969D01*
X72629134Y-52604603D01*
X72633923Y-52583281D01*
X72637105Y-52574147D01*
X72695679Y-52464472D01*
X72772078Y-52388164D01*
X72864964Y-52335816D01*
X72879570Y-52329823D01*
X72897632Y-52324364D01*
X72921472Y-52319416D01*
X72953415Y-52314953D01*
X72995781Y-52310950D01*
X73050896Y-52307382D01*
X73121081Y-52304225D01*
X73208659Y-52301452D01*
X73315953Y-52299040D01*
X73445287Y-52296963D01*
X73598982Y-52295197D01*
X73779362Y-52293716D01*
X73988750Y-52292496D01*
X74229469Y-52291511D01*
X74503841Y-52290737D01*
X74814189Y-52290148D01*
X75162837Y-52289720D01*
X75552107Y-52289428D01*
X75984322Y-52289247D01*
X76461804Y-52289151D01*
X76986878Y-52289117D01*
X77212712Y-52289114D01*
X77757643Y-52289131D01*
G36*
X123527643Y-52279131D02*
G01*
X124024047Y-52279199D01*
X124474245Y-52279343D01*
X124880561Y-52279587D01*
X125245317Y-52279958D01*
X125570838Y-52280478D01*
X125859444Y-52281175D01*
X126113461Y-52282071D01*
X126335209Y-52283194D01*
X126527012Y-52284567D01*
X126691194Y-52286215D01*
X126830076Y-52288163D01*
X126945982Y-52290437D01*
X127041235Y-52293061D01*
X127118158Y-52296060D01*
X127179073Y-52299460D01*
X127226303Y-52303284D01*
X127262171Y-52307559D01*
X127289001Y-52312308D01*
X127309114Y-52317558D01*
X127324835Y-52323332D01*
X127330460Y-52325816D01*
X127435608Y-52387387D01*
X127508542Y-52467274D01*
X127558319Y-52564147D01*
X127563384Y-52580383D01*
X127567997Y-52605246D01*
X127572180Y-52641001D01*
X127575951Y-52689915D01*
X127579331Y-52754252D01*
X127582341Y-52836280D01*
X127585000Y-52938263D01*
X127587328Y-53062468D01*
X127589347Y-53211159D01*
X127591075Y-53386604D01*
X127592534Y-53591067D01*
X127593742Y-53826815D01*
X127594721Y-54096113D01*
X127595490Y-54401227D01*
X127596070Y-54744422D01*
X127596481Y-55127965D01*
X127596743Y-55554122D01*
X127596876Y-56025158D01*
X127596900Y-56543338D01*
X127596869Y-56898252D01*
X127596780Y-57442818D01*
X127596646Y-57938858D01*
X127596443Y-58388695D01*
X127596144Y-58794656D01*
X127595725Y-59159063D01*
X127595160Y-59484241D01*
X127594424Y-59772515D01*
X127593491Y-60026209D01*
X127592337Y-60247648D01*
X127590936Y-60439156D01*
X127589263Y-60603058D01*
X127587291Y-60741677D01*
X127584997Y-60857339D01*
X127582355Y-60952367D01*
X127579339Y-61029087D01*
X127575925Y-61089822D01*
X127572086Y-61136897D01*
X127567798Y-61172637D01*
X127563035Y-61199366D01*
X127557773Y-61219408D01*
X127551985Y-61235088D01*
X127549609Y-61240460D01*
X127488037Y-61345608D01*
X127408150Y-61418542D01*
X127311277Y-61468319D01*
X127295041Y-61473384D01*
X127270178Y-61477997D01*
X127234423Y-61482180D01*
X127185510Y-61485951D01*
X127121172Y-61489331D01*
X127039144Y-61492341D01*
X126937161Y-61495000D01*
X126812957Y-61497328D01*
X126664265Y-61499347D01*
X126488821Y-61501075D01*
X126284357Y-61502534D01*
X126048610Y-61503742D01*
X125779312Y-61504721D01*
X125474198Y-61505490D01*
X125131002Y-61506070D01*
X124747459Y-61506481D01*
X124321302Y-61506743D01*
X123850267Y-61506876D01*
X123332086Y-61506900D01*
X122977172Y-61506869D01*
X122432606Y-61506780D01*
X121936567Y-61506646D01*
X121486729Y-61506443D01*
X121080769Y-61506144D01*
X120716362Y-61505725D01*
X120391184Y-61505160D01*
X120102909Y-61504424D01*
X119849215Y-61503491D01*
X119627776Y-61502337D01*
X119436268Y-61500936D01*
X119272367Y-61499263D01*
X119133748Y-61497291D01*
X119018086Y-61494997D01*
X118923057Y-61492355D01*
X118846338Y-61489339D01*
X118785602Y-61485925D01*
X118738527Y-61482086D01*
X118702787Y-61477798D01*
X118676058Y-61473035D01*
X118656016Y-61467773D01*
X118640336Y-61461985D01*
X118634964Y-61459609D01*
X118529816Y-61398037D01*
X118456882Y-61318150D01*
X118407105Y-61221277D01*
X118402037Y-61205024D01*
X118397419Y-61180125D01*
X118393231Y-61144314D01*
X118389453Y-61095325D01*
X118386064Y-61030889D01*
X118383043Y-60948740D01*
X118380371Y-60846610D01*
X118378027Y-60722234D01*
X118375990Y-60573343D01*
X118374239Y-60397671D01*
X118372755Y-60192951D01*
X118371517Y-59956915D01*
X118370504Y-59687297D01*
X118369696Y-59381830D01*
X118369072Y-59038246D01*
X118368612Y-58654278D01*
X118368296Y-58227660D01*
X118368103Y-57756125D01*
X118368012Y-57237405D01*
X118367998Y-56892712D01*
X118368036Y-56343738D01*
X118368163Y-55843348D01*
X118368402Y-55389275D01*
X118368770Y-54979251D01*
X118369291Y-54611010D01*
X118369982Y-54282284D01*
X118370866Y-53990808D01*
X118371963Y-53734313D01*
X118373293Y-53510532D01*
X118374877Y-53317199D01*
X118376734Y-53152046D01*
X118378887Y-53012807D01*
X118381354Y-52897215D01*
X118384157Y-52803002D01*
X118387316Y-52727901D01*
X118390852Y-52669646D01*
X118394784Y-52625969D01*
X118399134Y-52594603D01*
X118403923Y-52573281D01*
X118407105Y-52564147D01*
X118465679Y-52454472D01*
X118542078Y-52378164D01*
X118634964Y-52325816D01*
X118649570Y-52319823D01*
X118667632Y-52314364D01*
X118691472Y-52309416D01*
X118723415Y-52304953D01*
X118765781Y-52300950D01*
X118820896Y-52297382D01*
X118891081Y-52294225D01*
X118978659Y-52291452D01*
X119085953Y-52289040D01*
X119215287Y-52286963D01*
X119368982Y-52285197D01*
X119549362Y-52283716D01*
X119758750Y-52282496D01*
X119999469Y-52281511D01*
X120273841Y-52280737D01*
X120584189Y-52280148D01*
X120932837Y-52279720D01*
X121322107Y-52279428D01*
X121754322Y-52279247D01*
X122231804Y-52279151D01*
X122756878Y-52279117D01*
X122982712Y-52279114D01*
X123527643Y-52279131D01*
G37*
X123527643Y-52279131D02*
X124024047Y-52279199D01*
X124474245Y-52279343D01*
X124880561Y-52279587D01*
X125245317Y-52279958D01*
X125570838Y-52280478D01*
X125859444Y-52281175D01*
X126113461Y-52282071D01*
X126335209Y-52283194D01*
X126527012Y-52284567D01*
X126691194Y-52286215D01*
X126830076Y-52288163D01*
X126945982Y-52290437D01*
X127041235Y-52293061D01*
X127118158Y-52296060D01*
X127179073Y-52299460D01*
X127226303Y-52303284D01*
X127262171Y-52307559D01*
X127289001Y-52312308D01*
X127309114Y-52317558D01*
X127324835Y-52323332D01*
X127330460Y-52325816D01*
X127435608Y-52387387D01*
X127508542Y-52467274D01*
X127558319Y-52564147D01*
X127563384Y-52580383D01*
X127567997Y-52605246D01*
X127572180Y-52641001D01*
X127575951Y-52689915D01*
X127579331Y-52754252D01*
X127582341Y-52836280D01*
X127585000Y-52938263D01*
X127587328Y-53062468D01*
X127589347Y-53211159D01*
X127591075Y-53386604D01*
X127592534Y-53591067D01*
X127593742Y-53826815D01*
X127594721Y-54096113D01*
X127595490Y-54401227D01*
X127596070Y-54744422D01*
X127596481Y-55127965D01*
X127596743Y-55554122D01*
X127596876Y-56025158D01*
X127596900Y-56543338D01*
X127596869Y-56898252D01*
X127596780Y-57442818D01*
X127596646Y-57938858D01*
X127596443Y-58388695D01*
X127596144Y-58794656D01*
X127595725Y-59159063D01*
X127595160Y-59484241D01*
X127594424Y-59772515D01*
X127593491Y-60026209D01*
X127592337Y-60247648D01*
X127590936Y-60439156D01*
X127589263Y-60603058D01*
X127587291Y-60741677D01*
X127584997Y-60857339D01*
X127582355Y-60952367D01*
X127579339Y-61029087D01*
X127575925Y-61089822D01*
X127572086Y-61136897D01*
X127567798Y-61172637D01*
X127563035Y-61199366D01*
X127557773Y-61219408D01*
X127551985Y-61235088D01*
X127549609Y-61240460D01*
X127488037Y-61345608D01*
X127408150Y-61418542D01*
X127311277Y-61468319D01*
X127295041Y-61473384D01*
X127270178Y-61477997D01*
X127234423Y-61482180D01*
X127185510Y-61485951D01*
X127121172Y-61489331D01*
X127039144Y-61492341D01*
X126937161Y-61495000D01*
X126812957Y-61497328D01*
X126664265Y-61499347D01*
X126488821Y-61501075D01*
X126284357Y-61502534D01*
X126048610Y-61503742D01*
X125779312Y-61504721D01*
X125474198Y-61505490D01*
X125131002Y-61506070D01*
X124747459Y-61506481D01*
X124321302Y-61506743D01*
X123850267Y-61506876D01*
X123332086Y-61506900D01*
X122977172Y-61506869D01*
X122432606Y-61506780D01*
X121936567Y-61506646D01*
X121486729Y-61506443D01*
X121080769Y-61506144D01*
X120716362Y-61505725D01*
X120391184Y-61505160D01*
X120102909Y-61504424D01*
X119849215Y-61503491D01*
X119627776Y-61502337D01*
X119436268Y-61500936D01*
X119272367Y-61499263D01*
X119133748Y-61497291D01*
X119018086Y-61494997D01*
X118923057Y-61492355D01*
X118846338Y-61489339D01*
X118785602Y-61485925D01*
X118738527Y-61482086D01*
X118702787Y-61477798D01*
X118676058Y-61473035D01*
X118656016Y-61467773D01*
X118640336Y-61461985D01*
X118634964Y-61459609D01*
X118529816Y-61398037D01*
X118456882Y-61318150D01*
X118407105Y-61221277D01*
X118402037Y-61205024D01*
X118397419Y-61180125D01*
X118393231Y-61144314D01*
X118389453Y-61095325D01*
X118386064Y-61030889D01*
X118383043Y-60948740D01*
X118380371Y-60846610D01*
X118378027Y-60722234D01*
X118375990Y-60573343D01*
X118374239Y-60397671D01*
X118372755Y-60192951D01*
X118371517Y-59956915D01*
X118370504Y-59687297D01*
X118369696Y-59381830D01*
X118369072Y-59038246D01*
X118368612Y-58654278D01*
X118368296Y-58227660D01*
X118368103Y-57756125D01*
X118368012Y-57237405D01*
X118367998Y-56892712D01*
X118368036Y-56343738D01*
X118368163Y-55843348D01*
X118368402Y-55389275D01*
X118368770Y-54979251D01*
X118369291Y-54611010D01*
X118369982Y-54282284D01*
X118370866Y-53990808D01*
X118371963Y-53734313D01*
X118373293Y-53510532D01*
X118374877Y-53317199D01*
X118376734Y-53152046D01*
X118378887Y-53012807D01*
X118381354Y-52897215D01*
X118384157Y-52803002D01*
X118387316Y-52727901D01*
X118390852Y-52669646D01*
X118394784Y-52625969D01*
X118399134Y-52594603D01*
X118403923Y-52573281D01*
X118407105Y-52564147D01*
X118465679Y-52454472D01*
X118542078Y-52378164D01*
X118634964Y-52325816D01*
X118649570Y-52319823D01*
X118667632Y-52314364D01*
X118691472Y-52309416D01*
X118723415Y-52304953D01*
X118765781Y-52300950D01*
X118820896Y-52297382D01*
X118891081Y-52294225D01*
X118978659Y-52291452D01*
X119085953Y-52289040D01*
X119215287Y-52286963D01*
X119368982Y-52285197D01*
X119549362Y-52283716D01*
X119758750Y-52282496D01*
X119999469Y-52281511D01*
X120273841Y-52280737D01*
X120584189Y-52280148D01*
X120932837Y-52279720D01*
X121322107Y-52279428D01*
X121754322Y-52279247D01*
X122231804Y-52279151D01*
X122756878Y-52279117D01*
X122982712Y-52279114D01*
X123527643Y-52279131D01*
G36*
X77354583Y-102641984D02*
G01*
X77601364Y-102652573D01*
X77827140Y-102672009D01*
X78017784Y-102700187D01*
X78027880Y-102702170D01*
X78507009Y-102822426D01*
X78960871Y-102986587D01*
X79388898Y-103194351D01*
X79790519Y-103445417D01*
X80165167Y-103739485D01*
X80392916Y-103952509D01*
X80713044Y-104308140D01*
X80991893Y-104692802D01*
X81228328Y-105104307D01*
X81421211Y-105540469D01*
X81569405Y-105999099D01*
X81654882Y-106379950D01*
X81677882Y-106548575D01*
X81693643Y-106753845D01*
X81702165Y-106982072D01*
X81703447Y-107219568D01*
X81697490Y-107452644D01*
X81684294Y-107667613D01*
X81663858Y-107850786D01*
X81654882Y-107905475D01*
X81544308Y-108374978D01*
X81389306Y-108823070D01*
X81192253Y-109247368D01*
X80955528Y-109645487D01*
X80681508Y-110015043D01*
X80372572Y-110353652D01*
X80031098Y-110658929D01*
X79659465Y-110928490D01*
X79260049Y-111159951D01*
X78835230Y-111350927D01*
X78387386Y-111499035D01*
X77978188Y-111591646D01*
X77876704Y-111605609D01*
X77740276Y-111618399D01*
X77580140Y-111629560D01*
X77407536Y-111638638D01*
X77233703Y-111645178D01*
X77069878Y-111648725D01*
X76927299Y-111648823D01*
X76817207Y-111645018D01*
X76770480Y-111640540D01*
X76506752Y-111600046D01*
X76281695Y-111558485D01*
X76083148Y-111513372D01*
X75902691Y-111463359D01*
X75453216Y-111301505D01*
X75029219Y-111096927D01*
X74632906Y-110852118D01*
X74266485Y-110569568D01*
X73932163Y-110251769D01*
X73632147Y-109901213D01*
X73368643Y-109520389D01*
X73143859Y-109111790D01*
X72960003Y-108677907D01*
X72819281Y-108221231D01*
X72750543Y-107905475D01*
X72727543Y-107736850D01*
X72711782Y-107531580D01*
X72703260Y-107303353D01*
X72701978Y-107065857D01*
X72707935Y-106832781D01*
X72721131Y-106617812D01*
X72741567Y-106434639D01*
X72750543Y-106379950D01*
X72862204Y-105904552D01*
X73019159Y-105450539D01*
X73220361Y-105019925D01*
X73464760Y-104614722D01*
X73751309Y-104236946D01*
X74015460Y-103950574D01*
X74375130Y-103627859D01*
X74761941Y-103347959D01*
X75174509Y-103111596D01*
X75611448Y-102919488D01*
X76071375Y-102772355D01*
X76439950Y-102690231D01*
X76629481Y-102664366D01*
X76854515Y-102647775D01*
X77100924Y-102640349D01*
X77354583Y-102641984D01*
G37*
X77354583Y-102641984D02*
X77601364Y-102652573D01*
X77827140Y-102672009D01*
X78017784Y-102700187D01*
X78027880Y-102702170D01*
X78507009Y-102822426D01*
X78960871Y-102986587D01*
X79388898Y-103194351D01*
X79790519Y-103445417D01*
X80165167Y-103739485D01*
X80392916Y-103952509D01*
X80713044Y-104308140D01*
X80991893Y-104692802D01*
X81228328Y-105104307D01*
X81421211Y-105540469D01*
X81569405Y-105999099D01*
X81654882Y-106379950D01*
X81677882Y-106548575D01*
X81693643Y-106753845D01*
X81702165Y-106982072D01*
X81703447Y-107219568D01*
X81697490Y-107452644D01*
X81684294Y-107667613D01*
X81663858Y-107850786D01*
X81654882Y-107905475D01*
X81544308Y-108374978D01*
X81389306Y-108823070D01*
X81192253Y-109247368D01*
X80955528Y-109645487D01*
X80681508Y-110015043D01*
X80372572Y-110353652D01*
X80031098Y-110658929D01*
X79659465Y-110928490D01*
X79260049Y-111159951D01*
X78835230Y-111350927D01*
X78387386Y-111499035D01*
X77978188Y-111591646D01*
X77876704Y-111605609D01*
X77740276Y-111618399D01*
X77580140Y-111629560D01*
X77407536Y-111638638D01*
X77233703Y-111645178D01*
X77069878Y-111648725D01*
X76927299Y-111648823D01*
X76817207Y-111645018D01*
X76770480Y-111640540D01*
X76506752Y-111600046D01*
X76281695Y-111558485D01*
X76083148Y-111513372D01*
X75902691Y-111463359D01*
X75453216Y-111301505D01*
X75029219Y-111096927D01*
X74632906Y-110852118D01*
X74266485Y-110569568D01*
X73932163Y-110251769D01*
X73632147Y-109901213D01*
X73368643Y-109520389D01*
X73143859Y-109111790D01*
X72960003Y-108677907D01*
X72819281Y-108221231D01*
X72750543Y-107905475D01*
X72727543Y-107736850D01*
X72711782Y-107531580D01*
X72703260Y-107303353D01*
X72701978Y-107065857D01*
X72707935Y-106832781D01*
X72721131Y-106617812D01*
X72741567Y-106434639D01*
X72750543Y-106379950D01*
X72862204Y-105904552D01*
X73019159Y-105450539D01*
X73220361Y-105019925D01*
X73464760Y-104614722D01*
X73751309Y-104236946D01*
X74015460Y-103950574D01*
X74375130Y-103627859D01*
X74761941Y-103347959D01*
X75174509Y-103111596D01*
X75611448Y-102919488D01*
X76071375Y-102772355D01*
X76439950Y-102690231D01*
X76629481Y-102664366D01*
X76854515Y-102647775D01*
X77100924Y-102640349D01*
X77354583Y-102641984D01*
G36*
X134564583Y-52391984D02*
G01*
X134811364Y-52402573D01*
X135037140Y-52422009D01*
X135227784Y-52450187D01*
X135237880Y-52452170D01*
X135717009Y-52572426D01*
X136170871Y-52736587D01*
X136598898Y-52944351D01*
X137000519Y-53195417D01*
X137375167Y-53489485D01*
X137602916Y-53702509D01*
X137923044Y-54058140D01*
X138201893Y-54442802D01*
X138438328Y-54854307D01*
X138631211Y-55290469D01*
X138779405Y-55749099D01*
X138864882Y-56129950D01*
X138887882Y-56298575D01*
X138903643Y-56503845D01*
X138912165Y-56732072D01*
X138913447Y-56969568D01*
X138907490Y-57202644D01*
X138894294Y-57417613D01*
X138873858Y-57600786D01*
X138864882Y-57655475D01*
X138754308Y-58124978D01*
X138599306Y-58573070D01*
X138402253Y-58997368D01*
X138165528Y-59395487D01*
X137891508Y-59765043D01*
X137582572Y-60103652D01*
X137241098Y-60408929D01*
X136869465Y-60678490D01*
X136470049Y-60909951D01*
X136045230Y-61100927D01*
X135597386Y-61249035D01*
X135188188Y-61341646D01*
X135086704Y-61355609D01*
X134950276Y-61368399D01*
X134790140Y-61379560D01*
X134617536Y-61388638D01*
X134443703Y-61395178D01*
X134279878Y-61398725D01*
X134137299Y-61398823D01*
X134027207Y-61395018D01*
X133980480Y-61390540D01*
X133716752Y-61350046D01*
X133491695Y-61308485D01*
X133293148Y-61263372D01*
X133112691Y-61213359D01*
X132663216Y-61051505D01*
X132239219Y-60846927D01*
X131842906Y-60602118D01*
X131476485Y-60319568D01*
X131142163Y-60001769D01*
X130842147Y-59651213D01*
X130578643Y-59270389D01*
X130353859Y-58861790D01*
X130170003Y-58427907D01*
X130029281Y-57971231D01*
X129960543Y-57655475D01*
X129937543Y-57486850D01*
X129921782Y-57281580D01*
X129913260Y-57053353D01*
X129911978Y-56815857D01*
X129917935Y-56582781D01*
X129931131Y-56367812D01*
X129951567Y-56184639D01*
X129960543Y-56129950D01*
X130072204Y-55654552D01*
X130229159Y-55200539D01*
X130430361Y-54769925D01*
X130674760Y-54364722D01*
X130961309Y-53986946D01*
X131225460Y-53700574D01*
X131585130Y-53377859D01*
X131971941Y-53097959D01*
X132384509Y-52861596D01*
X132821448Y-52669488D01*
X133281375Y-52522355D01*
X133649950Y-52440231D01*
X133839481Y-52414366D01*
X134064515Y-52397775D01*
X134310924Y-52390349D01*
X134564583Y-52391984D01*
G37*
X134564583Y-52391984D02*
X134811364Y-52402573D01*
X135037140Y-52422009D01*
X135227784Y-52450187D01*
X135237880Y-52452170D01*
X135717009Y-52572426D01*
X136170871Y-52736587D01*
X136598898Y-52944351D01*
X137000519Y-53195417D01*
X137375167Y-53489485D01*
X137602916Y-53702509D01*
X137923044Y-54058140D01*
X138201893Y-54442802D01*
X138438328Y-54854307D01*
X138631211Y-55290469D01*
X138779405Y-55749099D01*
X138864882Y-56129950D01*
X138887882Y-56298575D01*
X138903643Y-56503845D01*
X138912165Y-56732072D01*
X138913447Y-56969568D01*
X138907490Y-57202644D01*
X138894294Y-57417613D01*
X138873858Y-57600786D01*
X138864882Y-57655475D01*
X138754308Y-58124978D01*
X138599306Y-58573070D01*
X138402253Y-58997368D01*
X138165528Y-59395487D01*
X137891508Y-59765043D01*
X137582572Y-60103652D01*
X137241098Y-60408929D01*
X136869465Y-60678490D01*
X136470049Y-60909951D01*
X136045230Y-61100927D01*
X135597386Y-61249035D01*
X135188188Y-61341646D01*
X135086704Y-61355609D01*
X134950276Y-61368399D01*
X134790140Y-61379560D01*
X134617536Y-61388638D01*
X134443703Y-61395178D01*
X134279878Y-61398725D01*
X134137299Y-61398823D01*
X134027207Y-61395018D01*
X133980480Y-61390540D01*
X133716752Y-61350046D01*
X133491695Y-61308485D01*
X133293148Y-61263372D01*
X133112691Y-61213359D01*
X132663216Y-61051505D01*
X132239219Y-60846927D01*
X131842906Y-60602118D01*
X131476485Y-60319568D01*
X131142163Y-60001769D01*
X130842147Y-59651213D01*
X130578643Y-59270389D01*
X130353859Y-58861790D01*
X130170003Y-58427907D01*
X130029281Y-57971231D01*
X129960543Y-57655475D01*
X129937543Y-57486850D01*
X129921782Y-57281580D01*
X129913260Y-57053353D01*
X129911978Y-56815857D01*
X129917935Y-56582781D01*
X129931131Y-56367812D01*
X129951567Y-56184639D01*
X129960543Y-56129950D01*
X130072204Y-55654552D01*
X130229159Y-55200539D01*
X130430361Y-54769925D01*
X130674760Y-54364722D01*
X130961309Y-53986946D01*
X131225460Y-53700574D01*
X131585130Y-53377859D01*
X131971941Y-53097959D01*
X132384509Y-52861596D01*
X132821448Y-52669488D01*
X133281375Y-52522355D01*
X133649950Y-52440231D01*
X133839481Y-52414366D01*
X134064515Y-52397775D01*
X134310924Y-52390349D01*
X134564583Y-52391984D01*
G36*
X100244583Y-102641984D02*
G01*
X100491364Y-102652573D01*
X100717140Y-102672009D01*
X100907784Y-102700187D01*
X100917880Y-102702170D01*
X101397009Y-102822426D01*
X101850871Y-102986587D01*
X102278898Y-103194351D01*
X102680519Y-103445417D01*
X103055167Y-103739485D01*
X103282916Y-103952509D01*
X103603044Y-104308140D01*
X103881893Y-104692802D01*
X104118328Y-105104307D01*
X104311211Y-105540469D01*
X104459405Y-105999099D01*
X104544882Y-106379950D01*
X104567882Y-106548575D01*
X104583643Y-106753845D01*
X104592165Y-106982072D01*
X104593447Y-107219568D01*
X104587490Y-107452644D01*
X104574294Y-107667613D01*
X104553858Y-107850786D01*
X104544882Y-107905475D01*
X104434308Y-108374978D01*
X104279306Y-108823070D01*
X104082253Y-109247368D01*
X103845528Y-109645487D01*
X103571508Y-110015043D01*
X103262572Y-110353652D01*
X102921098Y-110658929D01*
X102549465Y-110928490D01*
X102150049Y-111159951D01*
X101725230Y-111350927D01*
X101277386Y-111499035D01*
X100868188Y-111591646D01*
X100766704Y-111605609D01*
X100630276Y-111618399D01*
X100470140Y-111629560D01*
X100297536Y-111638638D01*
X100123703Y-111645178D01*
X99959878Y-111648725D01*
X99817299Y-111648823D01*
X99707207Y-111645018D01*
X99660480Y-111640540D01*
X99396752Y-111600046D01*
X99171695Y-111558485D01*
X98973148Y-111513372D01*
X98792691Y-111463359D01*
X98343216Y-111301505D01*
X97919219Y-111096927D01*
X97522906Y-110852118D01*
X97156485Y-110569568D01*
X96822163Y-110251769D01*
X96522147Y-109901213D01*
X96258643Y-109520389D01*
X96033859Y-109111790D01*
X95850003Y-108677907D01*
X95709281Y-108221231D01*
X95640543Y-107905475D01*
X95617543Y-107736850D01*
X95601782Y-107531580D01*
X95593260Y-107303353D01*
X95591978Y-107065857D01*
X95597935Y-106832781D01*
X95611131Y-106617812D01*
X95631567Y-106434639D01*
X95640543Y-106379950D01*
X95752204Y-105904552D01*
X95909159Y-105450539D01*
X96110361Y-105019925D01*
X96354760Y-104614722D01*
X96641309Y-104236946D01*
X96905460Y-103950574D01*
X97265130Y-103627859D01*
X97651941Y-103347959D01*
X98064509Y-103111596D01*
X98501448Y-102919488D01*
X98961375Y-102772355D01*
X99329950Y-102690231D01*
X99519481Y-102664366D01*
X99744515Y-102647775D01*
X99990924Y-102640349D01*
X100244583Y-102641984D01*
G37*
X100244583Y-102641984D02*
X100491364Y-102652573D01*
X100717140Y-102672009D01*
X100907784Y-102700187D01*
X100917880Y-102702170D01*
X101397009Y-102822426D01*
X101850871Y-102986587D01*
X102278898Y-103194351D01*
X102680519Y-103445417D01*
X103055167Y-103739485D01*
X103282916Y-103952509D01*
X103603044Y-104308140D01*
X103881893Y-104692802D01*
X104118328Y-105104307D01*
X104311211Y-105540469D01*
X104459405Y-105999099D01*
X104544882Y-106379950D01*
X104567882Y-106548575D01*
X104583643Y-106753845D01*
X104592165Y-106982072D01*
X104593447Y-107219568D01*
X104587490Y-107452644D01*
X104574294Y-107667613D01*
X104553858Y-107850786D01*
X104544882Y-107905475D01*
X104434308Y-108374978D01*
X104279306Y-108823070D01*
X104082253Y-109247368D01*
X103845528Y-109645487D01*
X103571508Y-110015043D01*
X103262572Y-110353652D01*
X102921098Y-110658929D01*
X102549465Y-110928490D01*
X102150049Y-111159951D01*
X101725230Y-111350927D01*
X101277386Y-111499035D01*
X100868188Y-111591646D01*
X100766704Y-111605609D01*
X100630276Y-111618399D01*
X100470140Y-111629560D01*
X100297536Y-111638638D01*
X100123703Y-111645178D01*
X99959878Y-111648725D01*
X99817299Y-111648823D01*
X99707207Y-111645018D01*
X99660480Y-111640540D01*
X99396752Y-111600046D01*
X99171695Y-111558485D01*
X98973148Y-111513372D01*
X98792691Y-111463359D01*
X98343216Y-111301505D01*
X97919219Y-111096927D01*
X97522906Y-110852118D01*
X97156485Y-110569568D01*
X96822163Y-110251769D01*
X96522147Y-109901213D01*
X96258643Y-109520389D01*
X96033859Y-109111790D01*
X95850003Y-108677907D01*
X95709281Y-108221231D01*
X95640543Y-107905475D01*
X95617543Y-107736850D01*
X95601782Y-107531580D01*
X95593260Y-107303353D01*
X95591978Y-107065857D01*
X95597935Y-106832781D01*
X95611131Y-106617812D01*
X95631567Y-106434639D01*
X95640543Y-106379950D01*
X95752204Y-105904552D01*
X95909159Y-105450539D01*
X96110361Y-105019925D01*
X96354760Y-104614722D01*
X96641309Y-104236946D01*
X96905460Y-103950574D01*
X97265130Y-103627859D01*
X97651941Y-103347959D01*
X98064509Y-103111596D01*
X98501448Y-102919488D01*
X98961375Y-102772355D01*
X99329950Y-102690231D01*
X99519481Y-102664366D01*
X99744515Y-102647775D01*
X99990924Y-102640349D01*
X100244583Y-102641984D01*
%TD*%
D11*
%TO.C,REF\u002A\u002A*%
X74650000Y-89330000D03*
D12*
X74650000Y-99490000D03*
%TD*%
D11*
%TO.C,REF\u002A\u002A*%
X203650000Y-76640000D03*
D12*
X203650000Y-86800000D03*
%TD*%
%TO.C,REF\u002A\u002A*%
X199860000Y-86800000D03*
D11*
X199860000Y-76640000D03*
%TD*%
D12*
%TO.C,REF\u002A\u002A*%
X167470000Y-76610000D03*
D11*
X157310000Y-76610000D03*
%TD*%
%TO.C,REF\u002A\u002A*%
X151010000Y-72790000D03*
D12*
X161170000Y-72790000D03*
%TD*%
%TO.C,REF\u002A\u002A*%
X156040000Y-68950000D03*
D11*
X156040000Y-58790000D03*
%TD*%
%TO.C,REF\u002A\u002A*%
X156650000Y-80420000D03*
D12*
X166810000Y-80420000D03*
%TD*%
D11*
%TO.C,REF\u002A\u002A*%
X175030000Y-75890000D03*
D12*
X175030000Y-86050000D03*
%TD*%
%TO.C,REF\u002A\u002A*%
X196020000Y-72230000D03*
D11*
X196020000Y-62070000D03*
%TD*%
D13*
%TO.C,REF\u002A\u002A*%
X148400000Y-65750000D03*
%TD*%
D14*
%TO.C,REF\u002A\u002A*%
X163005961Y-63901759D03*
D15*
G36*
X169378070Y-63756051D02*
G01*
X168943949Y-66218070D01*
X166481930Y-65783949D01*
X166916051Y-63321930D01*
X169378070Y-63756051D01*
G37*
%TD*%
D16*
%TO.C,REF\u002A\u002A*%
X163000000Y-99560000D03*
D17*
X160500000Y-99560000D03*
X158000000Y-99560000D03*
D18*
X155700000Y-107060000D03*
X165300000Y-107060000D03*
%TD*%
D11*
%TO.C,REF\u002A\u002A*%
X121730000Y-85460000D03*
X103950000Y-77840000D03*
X119190000Y-85460000D03*
X106490000Y-77840000D03*
X116650000Y-85460000D03*
X109030000Y-77840000D03*
X114110000Y-85460000D03*
X111570000Y-77840000D03*
X111570000Y-85460000D03*
X114110000Y-77840000D03*
X109030000Y-85460000D03*
X116650000Y-77840000D03*
X106490000Y-85460000D03*
X119190000Y-77840000D03*
X103950000Y-85460000D03*
D19*
X121730000Y-77840000D03*
%TD*%
D11*
%TO.C,REF\u002A\u002A*%
X180150000Y-77860000D03*
X195390000Y-85480000D03*
X182690000Y-77860000D03*
X192850000Y-85480000D03*
X185230000Y-77860000D03*
X190310000Y-85480000D03*
X187770000Y-77860000D03*
X187770000Y-85480000D03*
X190310000Y-77860000D03*
X185230000Y-85480000D03*
X192850000Y-77860000D03*
X182690000Y-85480000D03*
X195390000Y-77860000D03*
D19*
X180150000Y-85480000D03*
%TD*%
D13*
%TO.C,REF\u002A\u002A*%
X123690000Y-93220000D03*
%TD*%
D12*
%TO.C,REF\u002A\u002A*%
X140160000Y-67090000D03*
X135160000Y-67090000D03*
%TD*%
D19*
%TO.C,REF\u002A\u002A*%
X153550000Y-77830000D03*
D11*
X135770000Y-85450000D03*
X151010000Y-77830000D03*
X138310000Y-85450000D03*
X148470000Y-77830000D03*
X140850000Y-85450000D03*
X145930000Y-77830000D03*
X143390000Y-85450000D03*
X143390000Y-77830000D03*
X145930000Y-85450000D03*
X140850000Y-77830000D03*
X148470000Y-85450000D03*
X138310000Y-77830000D03*
X151010000Y-85450000D03*
X135770000Y-77830000D03*
X153550000Y-85450000D03*
%TD*%
D20*
%TO.C,REF\u002A\u002A*%
X202390000Y-56270000D03*
%TD*%
D18*
%TO.C,REF\u002A\u002A*%
X179190000Y-59600000D03*
X188790000Y-59600000D03*
D17*
X186490000Y-67100000D03*
X183990000Y-67100000D03*
D16*
X181490000Y-67100000D03*
%TD*%
D19*
%TO.C,REF\u002A\u002A*%
X88650000Y-77840000D03*
D11*
X70870000Y-85460000D03*
X86110000Y-77840000D03*
X73410000Y-85460000D03*
X83570000Y-77840000D03*
X75950000Y-85460000D03*
X81030000Y-77840000D03*
X78490000Y-85460000D03*
X78490000Y-77840000D03*
X81030000Y-85460000D03*
X75950000Y-77840000D03*
X83570000Y-85460000D03*
X73410000Y-77840000D03*
X86110000Y-85460000D03*
X70870000Y-77840000D03*
X88650000Y-85460000D03*
%TD*%
D21*
%TO.C,REF\u002A\u002A*%
X206740000Y-46750000D03*
%TD*%
%TO.C,REF\u002A\u002A*%
X55630000Y-117940000D03*
%TD*%
D12*
%TO.C,REF\u002A\u002A*%
X130600000Y-72770000D03*
X130600000Y-67770000D03*
%TD*%
D21*
%TO.C,REF\u002A\u002A*%
X55630000Y-46750000D03*
%TD*%
%TO.C,REF\u002A\u002A*%
X206740000Y-117940000D03*
%TD*%
D20*
%TO.C,REF\u002A\u002A*%
X203460000Y-98110000D03*
%TD*%
D17*
%TO.C,.*%
X202560000Y-71490000D03*
D16*
X205100000Y-71490000D03*
%TD*%
D22*
%TO.C,REF\u002A\u002A*%
X203540000Y-106890000D03*
D23*
X200160000Y-106890000D03*
D24*
X197060000Y-106890000D03*
D23*
X208460000Y-106890000D03*
%TD*%
D12*
%TO.C,REF\u002A\u002A*%
X173830269Y-113224764D03*
G36*
G01*
X170646061Y-104476226D02*
X170646061Y-104476226D01*
G75*
G02*
X169556605Y-103968204I-290717J798739D01*
G01*
X169556605Y-103968204D01*
G75*
G02*
X170064627Y-102878748I798739J290717D01*
G01*
X170064627Y-102878748D01*
G75*
G02*
X171154083Y-103386770I290717J-798739D01*
G01*
X171154083Y-103386770D01*
G75*
G02*
X170646061Y-104476226I-798739J-290717D01*
G01*
G37*
%TD*%
D11*
%TO.C,REF\u002A\u002A*%
X175579535Y-116658705D03*
D12*
X185739535Y-116658705D03*
%TD*%
D25*
%TO.C,.*%
X169940000Y-112520000D03*
D26*
X169940000Y-117600000D03*
X169940000Y-115060000D03*
%TD*%
D11*
%TO.C,REF\u002A\u002A*%
X207810000Y-76640000D03*
D12*
X207810000Y-86800000D03*
%TD*%
%TO.C,REF\u002A\u002A*%
G36*
G01*
X156175000Y-96762696D02*
X156175000Y-96762696D01*
G75*
G02*
X157336122Y-97073818I425000J-736122D01*
G01*
X157336122Y-97073818D01*
G75*
G02*
X157025000Y-98234940I-736122J-425000D01*
G01*
X157025000Y-98234940D01*
G75*
G02*
X155863878Y-97923818I-425000J736122D01*
G01*
X155863878Y-97923818D01*
G75*
G02*
X156175000Y-96762696I736122J425000D01*
G01*
G37*
X151520000Y-88700000D03*
%TD*%
%TO.C,REF\u002A\u002A*%
G36*
G01*
X135368538Y-91344208D02*
X135368538Y-91344208D01*
G75*
G02*
X136457994Y-90836186I798739J-290717D01*
G01*
X136457994Y-90836186D01*
G75*
G02*
X136966016Y-91925642I-290717J-798739D01*
G01*
X136966016Y-91925642D01*
G75*
G02*
X135876560Y-92433664I-798739J290717D01*
G01*
X135876560Y-92433664D01*
G75*
G02*
X135368538Y-91344208I290717J798739D01*
G01*
G37*
X126620000Y-88160000D03*
%TD*%
%TO.C,REF\u002A\u002A*%
G36*
G01*
X171885792Y-97438538D02*
X171885792Y-97438538D01*
G75*
G02*
X172393814Y-98527994I-290717J-798739D01*
G01*
X172393814Y-98527994D01*
G75*
G02*
X171304358Y-99036016I-798739J290717D01*
G01*
X171304358Y-99036016D01*
G75*
G02*
X170796336Y-97946560I290717J798739D01*
G01*
X170796336Y-97946560D01*
G75*
G02*
X171885792Y-97438538I798739J-290717D01*
G01*
G37*
X175070000Y-88690000D03*
%TD*%
%TO.C,REF\u002A\u002A*%
X124930000Y-65170000D03*
G36*
G01*
X121745792Y-73918538D02*
X121745792Y-73918538D01*
G75*
G02*
X122253814Y-75007994I-290717J-798739D01*
G01*
X122253814Y-75007994D01*
G75*
G02*
X121164358Y-75516016I-798739J290717D01*
G01*
X121164358Y-75516016D01*
G75*
G02*
X120656336Y-74426560I290717J798739D01*
G01*
X120656336Y-74426560D01*
G75*
G02*
X121745792Y-73918538I798739J-290717D01*
G01*
G37*
%TD*%
%TO.C,REF\u002A\u002A*%
X196550127Y-94440000D03*
X192220000Y-91940000D03*
%TD*%
D11*
%TO.C,REF\u002A\u002A*%
X175080000Y-73450000D03*
D12*
X185240000Y-73450000D03*
%TD*%
%TO.C,REF\u002A\u002A*%
X135670000Y-72790000D03*
X140670000Y-72790000D03*
%TD*%
D25*
%TO.C,REF\u002A\u002A*%
X141660000Y-93540000D03*
D26*
X141660000Y-88460000D03*
X139120000Y-91000000D03*
%TD*%
%TO.C,REF\u002A\u002A*%
X148720000Y-91200000D03*
X146180000Y-93740000D03*
D25*
X146180000Y-88660000D03*
%TD*%
D12*
%TO.C,REF\u002A\u002A*%
X180760000Y-69610000D03*
D11*
X170600000Y-69610000D03*
%TD*%
%TO.C,REF\u002A\u002A*%
G36*
G01*
X194582696Y-100295000D02*
X194582696Y-100295000D01*
G75*
G02*
X195743818Y-99983878I736122J-425000D01*
G01*
X195743818Y-99983878D01*
G75*
G02*
X196054940Y-101145000I-425000J-736122D01*
G01*
X196054940Y-101145000D01*
G75*
G02*
X194893818Y-101456122I-736122J425000D01*
G01*
X194893818Y-101456122D01*
G75*
G02*
X194582696Y-100295000I425000J736122D01*
G01*
G37*
D12*
X186520000Y-95640000D03*
%TD*%
%TO.C,REF\u002A\u002A*%
X182930000Y-90400000D03*
G36*
G01*
X176945647Y-97531874D02*
X176945647Y-97531874D01*
G75*
G02*
X177050416Y-98729381I-546369J-651138D01*
G01*
X177050416Y-98729381D01*
G75*
G02*
X175852909Y-98834150I-651138J546369D01*
G01*
X175852909Y-98834150D01*
G75*
G02*
X175748140Y-97636643I546369J651138D01*
G01*
X175748140Y-97636643D01*
G75*
G02*
X176945647Y-97531874I651138J-546369D01*
G01*
G37*
%TD*%
%TO.C,REF\u002A\u002A*%
X155360000Y-88020000D03*
G36*
G01*
X162491874Y-94004353D02*
X162491874Y-94004353D01*
G75*
G02*
X163689381Y-93899584I651138J-546369D01*
G01*
X163689381Y-93899584D01*
G75*
G02*
X163794150Y-95097091I-546369J-651138D01*
G01*
X163794150Y-95097091D01*
G75*
G02*
X162596643Y-95201860I-651138J546369D01*
G01*
X162596643Y-95201860D01*
G75*
G02*
X162491874Y-94004353I546369J651138D01*
G01*
G37*
%TD*%
%TO.C,REF\u002A\u002A*%
X159770000Y-84230000D03*
G36*
G01*
X168938560Y-85846664D02*
X168938560Y-85846664D01*
G75*
G02*
X169923248Y-85157178I837087J-147601D01*
G01*
X169923248Y-85157178D01*
G75*
G02*
X170612734Y-86141866I-147601J-837087D01*
G01*
X170612734Y-86141866D01*
G75*
G02*
X169628046Y-86831352I-837087J147601D01*
G01*
X169628046Y-86831352D01*
G75*
G02*
X168938560Y-85846664I147601J837087D01*
G01*
G37*
%TD*%
%TO.C,REF\u002A\u002A*%
G36*
G01*
X89675000Y-73362696D02*
X89675000Y-73362696D01*
G75*
G02*
X89986122Y-74523818I-425000J-736122D01*
G01*
X89986122Y-74523818D01*
G75*
G02*
X88825000Y-74834940I-736122J425000D01*
G01*
X88825000Y-74834940D01*
G75*
G02*
X88513878Y-73673818I425000J736122D01*
G01*
X88513878Y-73673818D01*
G75*
G02*
X89675000Y-73362696I736122J-425000D01*
G01*
G37*
X94330000Y-65300000D03*
%TD*%
%TO.C,REF\u002A\u002A*%
G36*
G01*
X78886664Y-71738560D02*
X78886664Y-71738560D01*
G75*
G02*
X79871352Y-72428046I147601J-837087D01*
G01*
X79871352Y-72428046D01*
G75*
G02*
X79181866Y-73412734I-837087J-147601D01*
G01*
X79181866Y-73412734D01*
G75*
G02*
X78197178Y-72723248I-147601J837087D01*
G01*
X78197178Y-72723248D01*
G75*
G02*
X78886664Y-71738560I837087J147601D01*
G01*
G37*
X77270000Y-62570000D03*
%TD*%
%TO.C,REF\u002A\u002A*%
G36*
G01*
X109295792Y-90151462D02*
X109295792Y-90151462D01*
G75*
G02*
X108206336Y-89643440I-290717J798739D01*
G01*
X108206336Y-89643440D01*
G75*
G02*
X108714358Y-88553984I798739J290717D01*
G01*
X108714358Y-88553984D01*
G75*
G02*
X109803814Y-89062006I290717J-798739D01*
G01*
X109803814Y-89062006D01*
G75*
G02*
X109295792Y-90151462I-798739J-290717D01*
G01*
G37*
X112480000Y-98900000D03*
%TD*%
%TO.C,REF\u002A\u002A*%
G36*
G01*
X108344208Y-72618538D02*
X108344208Y-72618538D01*
G75*
G02*
X109433664Y-73126560I290717J-798739D01*
G01*
X109433664Y-73126560D01*
G75*
G02*
X108925642Y-74216016I-798739J-290717D01*
G01*
X108925642Y-74216016D01*
G75*
G02*
X107836186Y-73707994I-290717J798739D01*
G01*
X107836186Y-73707994D01*
G75*
G02*
X108344208Y-72618538I798739J290717D01*
G01*
G37*
X105160000Y-63870000D03*
%TD*%
%TO.C,REF\u002A\u002A*%
X168150000Y-49300000D03*
G36*
G01*
X171334208Y-58048538D02*
X171334208Y-58048538D01*
G75*
G02*
X172423664Y-58556560I290717J-798739D01*
G01*
X172423664Y-58556560D01*
G75*
G02*
X171915642Y-59646016I-798739J-290717D01*
G01*
X171915642Y-59646016D01*
G75*
G02*
X170826186Y-59137994I-290717J798739D01*
G01*
X170826186Y-59137994D01*
G75*
G02*
X171334208Y-58048538I798739J290717D01*
G01*
G37*
%TD*%
%TO.C,REF\u002A\u002A*%
X68750000Y-65610000D03*
G36*
G01*
X74734353Y-72741874D02*
X74734353Y-72741874D01*
G75*
G02*
X75931860Y-72846643I546369J-651138D01*
G01*
X75931860Y-72846643D01*
G75*
G02*
X75827091Y-74044150I-651138J-546369D01*
G01*
X75827091Y-74044150D01*
G75*
G02*
X74629584Y-73939381I-546369J651138D01*
G01*
X74629584Y-73939381D01*
G75*
G02*
X74734353Y-72741874I651138J546369D01*
G01*
G37*
%TD*%
%TO.C,REF\u002A\u002A*%
G36*
G01*
X117503336Y-73718560D02*
X117503336Y-73718560D01*
G75*
G02*
X118192822Y-74703248I-147601J-837087D01*
G01*
X118192822Y-74703248D01*
G75*
G02*
X117208134Y-75392734I-837087J147601D01*
G01*
X117208134Y-75392734D01*
G75*
G02*
X116518648Y-74408046I147601J837087D01*
G01*
X116518648Y-74408046D01*
G75*
G02*
X117503336Y-73718560I837087J-147601D01*
G01*
G37*
X119120000Y-64550000D03*
%TD*%
%TO.C,REF\u002A\u002A*%
X86200000Y-63600000D03*
G36*
G01*
X83790395Y-72592769D02*
X83790395Y-72592769D01*
G75*
G02*
X84391436Y-73633802I-219996J-821037D01*
G01*
X84391436Y-73633802D01*
G75*
G02*
X83350403Y-74234843I-821037J219996D01*
G01*
X83350403Y-74234843D01*
G75*
G02*
X82749362Y-73193810I219996J821037D01*
G01*
X82749362Y-73193810D01*
G75*
G02*
X83790395Y-72592769I821037J-219996D01*
G01*
G37*
%TD*%
%TO.C,REF\u002A\u002A*%
G36*
G01*
X81644208Y-97998538D02*
X81644208Y-97998538D01*
G75*
G02*
X82733664Y-98506560I290717J-798739D01*
G01*
X82733664Y-98506560D01*
G75*
G02*
X82225642Y-99596016I-798739J-290717D01*
G01*
X82225642Y-99596016D01*
G75*
G02*
X81136186Y-99087994I-290717J798739D01*
G01*
X81136186Y-99087994D01*
G75*
G02*
X81644208Y-97998538I798739J290717D01*
G01*
G37*
X78460000Y-89250000D03*
%TD*%
%TO.C,REF\u002A\u002A*%
X106970000Y-99270000D03*
G36*
G01*
X103785792Y-90521462D02*
X103785792Y-90521462D01*
G75*
G02*
X102696336Y-90013440I-290717J798739D01*
G01*
X102696336Y-90013440D01*
G75*
G02*
X103204358Y-88923984I798739J290717D01*
G01*
X103204358Y-88923984D01*
G75*
G02*
X104293814Y-89432006I290717J-798739D01*
G01*
X104293814Y-89432006D01*
G75*
G02*
X103785792Y-90521462I-798739J-290717D01*
G01*
G37*
%TD*%
%TO.C,REF\u002A\u002A*%
X112820000Y-63820000D03*
D11*
X112820000Y-73980000D03*
%TD*%
%TO.C,REF\u002A\u002A*%
G36*
G01*
X196414353Y-55041874D02*
X196414353Y-55041874D01*
G75*
G02*
X197611860Y-55146643I546369J-651138D01*
G01*
X197611860Y-55146643D01*
G75*
G02*
X197507091Y-56344150I-651138J-546369D01*
G01*
X197507091Y-56344150D01*
G75*
G02*
X196309584Y-56239381I-546369J651138D01*
G01*
X196309584Y-56239381D01*
G75*
G02*
X196414353Y-55041874I651138J546369D01*
G01*
G37*
D12*
X190430000Y-47910000D03*
%TD*%
%TO.C,REF\u002A\u002A*%
X82040000Y-89090000D03*
G36*
G01*
X88024353Y-96221874D02*
X88024353Y-96221874D01*
G75*
G02*
X89221860Y-96326643I546369J-651138D01*
G01*
X89221860Y-96326643D01*
G75*
G02*
X89117091Y-97524150I-651138J-546369D01*
G01*
X89117091Y-97524150D01*
G75*
G02*
X87919584Y-97419381I-546369J651138D01*
G01*
X87919584Y-97419381D01*
G75*
G02*
X88024353Y-96221874I651138J546369D01*
G01*
G37*
%TD*%
%TO.C,REF\u002A\u002A*%
X191980000Y-113020000D03*
D11*
X202140000Y-113020000D03*
%TD*%
D12*
%TO.C,REF\u002A\u002A*%
X117580000Y-98860000D03*
G36*
G01*
X114395792Y-90111462D02*
X114395792Y-90111462D01*
G75*
G02*
X113306336Y-89603440I-290717J798739D01*
G01*
X113306336Y-89603440D01*
G75*
G02*
X113814358Y-88513984I798739J290717D01*
G01*
X113814358Y-88513984D01*
G75*
G02*
X114903814Y-89022006I290717J-798739D01*
G01*
X114903814Y-89022006D01*
G75*
G02*
X114395792Y-90111462I-798739J-290717D01*
G01*
G37*
%TD*%
%TO.C,REF\u002A\u002A*%
G36*
G01*
X66165000Y-97342696D02*
X66165000Y-97342696D01*
G75*
G02*
X66476122Y-98503818I-425000J-736122D01*
G01*
X66476122Y-98503818D01*
G75*
G02*
X65315000Y-98814940I-736122J425000D01*
G01*
X65315000Y-98814940D01*
G75*
G02*
X65003878Y-97653818I425000J736122D01*
G01*
X65003878Y-97653818D01*
G75*
G02*
X66165000Y-97342696I736122J-425000D01*
G01*
G37*
X70820000Y-89280000D03*
%TD*%
D18*
%TO.C,REF\u002A\u002A*%
X187440000Y-107060000D03*
X177840000Y-107060000D03*
D17*
X180140000Y-99560000D03*
X182640000Y-99560000D03*
D16*
X185140000Y-99560000D03*
%TD*%
D27*
G36*
X150723000Y-50093000D02*
G01*
X61820000Y-50093000D01*
X61795224Y-50095440D01*
X61771399Y-50102667D01*
X61749443Y-50114403D01*
X61730868Y-50129532D01*
X59020868Y-52799532D01*
X59004931Y-52818659D01*
X58993032Y-52840528D01*
X58985628Y-52864298D01*
X58983000Y-52889978D01*
X58973000Y-110929978D01*
X58975436Y-110954755D01*
X58982659Y-110978581D01*
X58994391Y-111000539D01*
X59004005Y-111013150D01*
X61464005Y-113853150D01*
X61482072Y-113870280D01*
X61503133Y-113883557D01*
X61526379Y-113892469D01*
X61559984Y-113897000D01*
X141263000Y-113906984D01*
X141263000Y-120622984D01*
X61447000Y-120613016D01*
X61447000Y-116640000D01*
X61444560Y-116615224D01*
X61437333Y-116591399D01*
X61425597Y-116569443D01*
X61416426Y-116557349D01*
X57756426Y-112287349D01*
X57738448Y-112270126D01*
X57717457Y-112256740D01*
X57694257Y-112247707D01*
X57660000Y-112243000D01*
X52246937Y-112243000D01*
X52217064Y-52397267D01*
X56859734Y-52407000D01*
X56884515Y-52404611D01*
X56908355Y-52397434D01*
X56930336Y-52385744D01*
X56949917Y-52369688D01*
X60859917Y-48449688D01*
X60875687Y-48430423D01*
X60887395Y-48408451D01*
X60894591Y-48384617D01*
X60897000Y-48360000D01*
X60897000Y-43367000D01*
X150723000Y-43367000D01*
X150723000Y-50093000D01*
G37*
X150723000Y-50093000D02*
X61820000Y-50093000D01*
X61795224Y-50095440D01*
X61771399Y-50102667D01*
X61749443Y-50114403D01*
X61730868Y-50129532D01*
X59020868Y-52799532D01*
X59004931Y-52818659D01*
X58993032Y-52840528D01*
X58985628Y-52864298D01*
X58983000Y-52889978D01*
X58973000Y-110929978D01*
X58975436Y-110954755D01*
X58982659Y-110978581D01*
X58994391Y-111000539D01*
X59004005Y-111013150D01*
X61464005Y-113853150D01*
X61482072Y-113870280D01*
X61503133Y-113883557D01*
X61526379Y-113892469D01*
X61559984Y-113897000D01*
X141263000Y-113906984D01*
X141263000Y-120622984D01*
X61447000Y-120613016D01*
X61447000Y-116640000D01*
X61444560Y-116615224D01*
X61437333Y-116591399D01*
X61425597Y-116569443D01*
X61416426Y-116557349D01*
X57756426Y-112287349D01*
X57738448Y-112270126D01*
X57717457Y-112256740D01*
X57694257Y-112247707D01*
X57660000Y-112243000D01*
X52246937Y-112243000D01*
X52217064Y-52397267D01*
X56859734Y-52407000D01*
X56884515Y-52404611D01*
X56908355Y-52397434D01*
X56930336Y-52385744D01*
X56949917Y-52369688D01*
X60859917Y-48449688D01*
X60875687Y-48430423D01*
X60887395Y-48408451D01*
X60894591Y-48384617D01*
X60897000Y-48360000D01*
X60897000Y-43367000D01*
X150723000Y-43367000D01*
X150723000Y-50093000D01*
M02*
