%TF.GenerationSoftware,KiCad,Pcbnew,(5.1.6)-1*%
%TF.CreationDate,2021-02-23T20:11:17-06:00*%
%TF.ProjectId,WALKING RING,57414c4b-494e-4472-9052-494e472e6b69,rev?*%
%TF.SameCoordinates,Original*%
%TF.FileFunction,Soldermask,Top*%
%TF.FilePolarity,Negative*%
%FSLAX46Y46*%
G04 Gerber Fmt 4.6, Leading zero omitted, Abs format (unit mm)*
G04 Created by KiCad (PCBNEW (5.1.6)-1) date 2021-02-23 20:11:17*
%MOMM*%
%LPD*%
G01*
G04 APERTURE LIST*
%ADD10C,0.100000*%
%ADD11C,0.120000*%
%ADD12O,1.700000X1.700000*%
%ADD13C,1.700000*%
%ADD14C,2.100000*%
%ADD15C,2.500000*%
%ADD16R,1.900000X1.900000*%
%ADD17C,1.900000*%
%ADD18C,3.340000*%
%ADD19R,1.700000X1.700000*%
%ADD20R,2.100000X2.100000*%
%ADD21C,3.300000*%
%ADD22O,1.400000X5.300000*%
%ADD23C,2.230000*%
%ADD24R,1.930000X2.030000*%
%ADD25R,1.600000X1.600000*%
%ADD26C,1.600000*%
G04 APERTURE END LIST*
D10*
%TO.C,*%
X164000000Y-107060000D02*
G75*
G03*
X164000000Y-107060000I-3500000J0D01*
G01*
D11*
X206210019Y-106890000D02*
G75*
G03*
X206210019Y-106890000I-2670019J0D01*
G01*
D10*
X187490000Y-59600000D02*
G75*
G03*
X187490000Y-59600000I-3500000J0D01*
G01*
X186140000Y-107060000D02*
G75*
G03*
X186140000Y-107060000I-3500000J0D01*
G01*
%TD*%
D12*
%TO.C,REF\u002A\u002A*%
X74650000Y-89330000D03*
D13*
X74650000Y-99490000D03*
%TD*%
D12*
%TO.C,REF\u002A\u002A*%
X203650000Y-76640000D03*
D13*
X203650000Y-86800000D03*
%TD*%
%TO.C,REF\u002A\u002A*%
X199860000Y-86800000D03*
D12*
X199860000Y-76640000D03*
%TD*%
D13*
%TO.C,REF\u002A\u002A*%
X167470000Y-76610000D03*
D12*
X157310000Y-76610000D03*
%TD*%
%TO.C,REF\u002A\u002A*%
X151010000Y-72790000D03*
D13*
X161170000Y-72790000D03*
%TD*%
%TO.C,REF\u002A\u002A*%
X156040000Y-68950000D03*
D12*
X156040000Y-58790000D03*
%TD*%
%TO.C,REF\u002A\u002A*%
X156650000Y-80420000D03*
D13*
X166810000Y-80420000D03*
%TD*%
D12*
%TO.C,REF\u002A\u002A*%
X175030000Y-75890000D03*
D13*
X175030000Y-86050000D03*
%TD*%
%TO.C,REF\u002A\u002A*%
X196020000Y-72230000D03*
D12*
X196020000Y-62070000D03*
%TD*%
D14*
%TO.C,REF\u002A\u002A*%
X148400000Y-65750000D03*
%TD*%
D15*
%TO.C,REF\u002A\u002A*%
X163005961Y-63901759D03*
D10*
G36*
X169378070Y-63756051D02*
G01*
X168943949Y-66218070D01*
X166481930Y-65783949D01*
X166916051Y-63321930D01*
X169378070Y-63756051D01*
G37*
%TD*%
D16*
%TO.C,REF\u002A\u002A*%
X163000000Y-99560000D03*
D17*
X160500000Y-99560000D03*
X158000000Y-99560000D03*
D18*
X155700000Y-107060000D03*
X165300000Y-107060000D03*
%TD*%
D12*
%TO.C,REF\u002A\u002A*%
X121730000Y-85460000D03*
X103950000Y-77840000D03*
X119190000Y-85460000D03*
X106490000Y-77840000D03*
X116650000Y-85460000D03*
X109030000Y-77840000D03*
X114110000Y-85460000D03*
X111570000Y-77840000D03*
X111570000Y-85460000D03*
X114110000Y-77840000D03*
X109030000Y-85460000D03*
X116650000Y-77840000D03*
X106490000Y-85460000D03*
X119190000Y-77840000D03*
X103950000Y-85460000D03*
D19*
X121730000Y-77840000D03*
%TD*%
D12*
%TO.C,REF\u002A\u002A*%
X180150000Y-77860000D03*
X195390000Y-85480000D03*
X182690000Y-77860000D03*
X192850000Y-85480000D03*
X185230000Y-77860000D03*
X190310000Y-85480000D03*
X187770000Y-77860000D03*
X187770000Y-85480000D03*
X190310000Y-77860000D03*
X185230000Y-85480000D03*
X192850000Y-77860000D03*
X182690000Y-85480000D03*
X195390000Y-77860000D03*
D19*
X180150000Y-85480000D03*
%TD*%
D14*
%TO.C,REF\u002A\u002A*%
X123690000Y-93220000D03*
%TD*%
D13*
%TO.C,REF\u002A\u002A*%
X140160000Y-67090000D03*
X135160000Y-67090000D03*
%TD*%
D19*
%TO.C,REF\u002A\u002A*%
X153550000Y-77830000D03*
D12*
X135770000Y-85450000D03*
X151010000Y-77830000D03*
X138310000Y-85450000D03*
X148470000Y-77830000D03*
X140850000Y-85450000D03*
X145930000Y-77830000D03*
X143390000Y-85450000D03*
X143390000Y-77830000D03*
X145930000Y-85450000D03*
X140850000Y-77830000D03*
X148470000Y-85450000D03*
X138310000Y-77830000D03*
X151010000Y-85450000D03*
X135770000Y-77830000D03*
X153550000Y-85450000D03*
%TD*%
D20*
%TO.C,REF\u002A\u002A*%
X202390000Y-56270000D03*
%TD*%
D18*
%TO.C,REF\u002A\u002A*%
X179190000Y-59600000D03*
X188790000Y-59600000D03*
D17*
X186490000Y-67100000D03*
X183990000Y-67100000D03*
D16*
X181490000Y-67100000D03*
%TD*%
D19*
%TO.C,REF\u002A\u002A*%
X88650000Y-77840000D03*
D12*
X70870000Y-85460000D03*
X86110000Y-77840000D03*
X73410000Y-85460000D03*
X83570000Y-77840000D03*
X75950000Y-85460000D03*
X81030000Y-77840000D03*
X78490000Y-85460000D03*
X78490000Y-77840000D03*
X81030000Y-85460000D03*
X75950000Y-77840000D03*
X83570000Y-85460000D03*
X73410000Y-77840000D03*
X86110000Y-85460000D03*
X70870000Y-77840000D03*
X88650000Y-85460000D03*
%TD*%
D21*
%TO.C,REF\u002A\u002A*%
X206740000Y-46750000D03*
%TD*%
%TO.C,REF\u002A\u002A*%
X55630000Y-117940000D03*
%TD*%
D13*
%TO.C,REF\u002A\u002A*%
X130600000Y-72770000D03*
X130600000Y-67770000D03*
%TD*%
D21*
%TO.C,REF\u002A\u002A*%
X55630000Y-46750000D03*
%TD*%
%TO.C,REF\u002A\u002A*%
X206740000Y-117940000D03*
%TD*%
D20*
%TO.C,REF\u002A\u002A*%
X203460000Y-98110000D03*
%TD*%
D17*
%TO.C,.*%
X202560000Y-71490000D03*
D16*
X205100000Y-71490000D03*
%TD*%
D22*
%TO.C,REF\u002A\u002A*%
X203540000Y-106890000D03*
D23*
X200160000Y-106890000D03*
D24*
X197060000Y-106890000D03*
D23*
X208460000Y-106890000D03*
%TD*%
D13*
%TO.C,REF\u002A\u002A*%
X173830269Y-113224764D03*
G36*
G01*
X170646061Y-104476226D02*
X170646061Y-104476226D01*
G75*
G02*
X169556605Y-103968204I-290717J798739D01*
G01*
X169556605Y-103968204D01*
G75*
G02*
X170064627Y-102878748I798739J290717D01*
G01*
X170064627Y-102878748D01*
G75*
G02*
X171154083Y-103386770I290717J-798739D01*
G01*
X171154083Y-103386770D01*
G75*
G02*
X170646061Y-104476226I-798739J-290717D01*
G01*
G37*
%TD*%
D12*
%TO.C,REF\u002A\u002A*%
X175579535Y-116658705D03*
D13*
X185739535Y-116658705D03*
%TD*%
D25*
%TO.C,.*%
X169940000Y-112520000D03*
D26*
X169940000Y-117600000D03*
X169940000Y-115060000D03*
%TD*%
D12*
%TO.C,REF\u002A\u002A*%
X207810000Y-76640000D03*
D13*
X207810000Y-86800000D03*
%TD*%
%TO.C,REF\u002A\u002A*%
G36*
G01*
X156175000Y-96762696D02*
X156175000Y-96762696D01*
G75*
G02*
X157336122Y-97073818I425000J-736122D01*
G01*
X157336122Y-97073818D01*
G75*
G02*
X157025000Y-98234940I-736122J-425000D01*
G01*
X157025000Y-98234940D01*
G75*
G02*
X155863878Y-97923818I-425000J736122D01*
G01*
X155863878Y-97923818D01*
G75*
G02*
X156175000Y-96762696I736122J425000D01*
G01*
G37*
X151520000Y-88700000D03*
%TD*%
%TO.C,REF\u002A\u002A*%
G36*
G01*
X135368538Y-91344208D02*
X135368538Y-91344208D01*
G75*
G02*
X136457994Y-90836186I798739J-290717D01*
G01*
X136457994Y-90836186D01*
G75*
G02*
X136966016Y-91925642I-290717J-798739D01*
G01*
X136966016Y-91925642D01*
G75*
G02*
X135876560Y-92433664I-798739J290717D01*
G01*
X135876560Y-92433664D01*
G75*
G02*
X135368538Y-91344208I290717J798739D01*
G01*
G37*
X126620000Y-88160000D03*
%TD*%
%TO.C,REF\u002A\u002A*%
G36*
G01*
X171885792Y-97438538D02*
X171885792Y-97438538D01*
G75*
G02*
X172393814Y-98527994I-290717J-798739D01*
G01*
X172393814Y-98527994D01*
G75*
G02*
X171304358Y-99036016I-798739J290717D01*
G01*
X171304358Y-99036016D01*
G75*
G02*
X170796336Y-97946560I290717J798739D01*
G01*
X170796336Y-97946560D01*
G75*
G02*
X171885792Y-97438538I798739J-290717D01*
G01*
G37*
X175070000Y-88690000D03*
%TD*%
%TO.C,REF\u002A\u002A*%
X124930000Y-65170000D03*
G36*
G01*
X121745792Y-73918538D02*
X121745792Y-73918538D01*
G75*
G02*
X122253814Y-75007994I-290717J-798739D01*
G01*
X122253814Y-75007994D01*
G75*
G02*
X121164358Y-75516016I-798739J290717D01*
G01*
X121164358Y-75516016D01*
G75*
G02*
X120656336Y-74426560I290717J798739D01*
G01*
X120656336Y-74426560D01*
G75*
G02*
X121745792Y-73918538I798739J-290717D01*
G01*
G37*
%TD*%
%TO.C,REF\u002A\u002A*%
X196550127Y-94440000D03*
X192220000Y-91940000D03*
%TD*%
D12*
%TO.C,REF\u002A\u002A*%
X175080000Y-73450000D03*
D13*
X185240000Y-73450000D03*
%TD*%
%TO.C,REF\u002A\u002A*%
X135670000Y-72790000D03*
X140670000Y-72790000D03*
%TD*%
D25*
%TO.C,REF\u002A\u002A*%
X141660000Y-93540000D03*
D26*
X141660000Y-88460000D03*
X139120000Y-91000000D03*
%TD*%
%TO.C,REF\u002A\u002A*%
X148720000Y-91200000D03*
X146180000Y-93740000D03*
D25*
X146180000Y-88660000D03*
%TD*%
D13*
%TO.C,REF\u002A\u002A*%
X180760000Y-69610000D03*
D12*
X170600000Y-69610000D03*
%TD*%
%TO.C,REF\u002A\u002A*%
G36*
G01*
X194582696Y-100295000D02*
X194582696Y-100295000D01*
G75*
G02*
X195743818Y-99983878I736122J-425000D01*
G01*
X195743818Y-99983878D01*
G75*
G02*
X196054940Y-101145000I-425000J-736122D01*
G01*
X196054940Y-101145000D01*
G75*
G02*
X194893818Y-101456122I-736122J425000D01*
G01*
X194893818Y-101456122D01*
G75*
G02*
X194582696Y-100295000I425000J736122D01*
G01*
G37*
D13*
X186520000Y-95640000D03*
%TD*%
%TO.C,REF\u002A\u002A*%
X182930000Y-90400000D03*
G36*
G01*
X176945647Y-97531874D02*
X176945647Y-97531874D01*
G75*
G02*
X177050416Y-98729381I-546369J-651138D01*
G01*
X177050416Y-98729381D01*
G75*
G02*
X175852909Y-98834150I-651138J546369D01*
G01*
X175852909Y-98834150D01*
G75*
G02*
X175748140Y-97636643I546369J651138D01*
G01*
X175748140Y-97636643D01*
G75*
G02*
X176945647Y-97531874I651138J-546369D01*
G01*
G37*
%TD*%
%TO.C,REF\u002A\u002A*%
X155360000Y-88020000D03*
G36*
G01*
X162491874Y-94004353D02*
X162491874Y-94004353D01*
G75*
G02*
X163689381Y-93899584I651138J-546369D01*
G01*
X163689381Y-93899584D01*
G75*
G02*
X163794150Y-95097091I-546369J-651138D01*
G01*
X163794150Y-95097091D01*
G75*
G02*
X162596643Y-95201860I-651138J546369D01*
G01*
X162596643Y-95201860D01*
G75*
G02*
X162491874Y-94004353I546369J651138D01*
G01*
G37*
%TD*%
%TO.C,REF\u002A\u002A*%
X159770000Y-84230000D03*
G36*
G01*
X168938560Y-85846664D02*
X168938560Y-85846664D01*
G75*
G02*
X169923248Y-85157178I837087J-147601D01*
G01*
X169923248Y-85157178D01*
G75*
G02*
X170612734Y-86141866I-147601J-837087D01*
G01*
X170612734Y-86141866D01*
G75*
G02*
X169628046Y-86831352I-837087J147601D01*
G01*
X169628046Y-86831352D01*
G75*
G02*
X168938560Y-85846664I147601J837087D01*
G01*
G37*
%TD*%
%TO.C,REF\u002A\u002A*%
G36*
G01*
X89675000Y-73362696D02*
X89675000Y-73362696D01*
G75*
G02*
X89986122Y-74523818I-425000J-736122D01*
G01*
X89986122Y-74523818D01*
G75*
G02*
X88825000Y-74834940I-736122J425000D01*
G01*
X88825000Y-74834940D01*
G75*
G02*
X88513878Y-73673818I425000J736122D01*
G01*
X88513878Y-73673818D01*
G75*
G02*
X89675000Y-73362696I736122J-425000D01*
G01*
G37*
X94330000Y-65300000D03*
%TD*%
%TO.C,REF\u002A\u002A*%
G36*
G01*
X78886664Y-71738560D02*
X78886664Y-71738560D01*
G75*
G02*
X79871352Y-72428046I147601J-837087D01*
G01*
X79871352Y-72428046D01*
G75*
G02*
X79181866Y-73412734I-837087J-147601D01*
G01*
X79181866Y-73412734D01*
G75*
G02*
X78197178Y-72723248I-147601J837087D01*
G01*
X78197178Y-72723248D01*
G75*
G02*
X78886664Y-71738560I837087J147601D01*
G01*
G37*
X77270000Y-62570000D03*
%TD*%
%TO.C,REF\u002A\u002A*%
G36*
G01*
X109295792Y-90151462D02*
X109295792Y-90151462D01*
G75*
G02*
X108206336Y-89643440I-290717J798739D01*
G01*
X108206336Y-89643440D01*
G75*
G02*
X108714358Y-88553984I798739J290717D01*
G01*
X108714358Y-88553984D01*
G75*
G02*
X109803814Y-89062006I290717J-798739D01*
G01*
X109803814Y-89062006D01*
G75*
G02*
X109295792Y-90151462I-798739J-290717D01*
G01*
G37*
X112480000Y-98900000D03*
%TD*%
%TO.C,REF\u002A\u002A*%
G36*
G01*
X108344208Y-72618538D02*
X108344208Y-72618538D01*
G75*
G02*
X109433664Y-73126560I290717J-798739D01*
G01*
X109433664Y-73126560D01*
G75*
G02*
X108925642Y-74216016I-798739J-290717D01*
G01*
X108925642Y-74216016D01*
G75*
G02*
X107836186Y-73707994I-290717J798739D01*
G01*
X107836186Y-73707994D01*
G75*
G02*
X108344208Y-72618538I798739J290717D01*
G01*
G37*
X105160000Y-63870000D03*
%TD*%
%TO.C,REF\u002A\u002A*%
X168150000Y-49300000D03*
G36*
G01*
X171334208Y-58048538D02*
X171334208Y-58048538D01*
G75*
G02*
X172423664Y-58556560I290717J-798739D01*
G01*
X172423664Y-58556560D01*
G75*
G02*
X171915642Y-59646016I-798739J-290717D01*
G01*
X171915642Y-59646016D01*
G75*
G02*
X170826186Y-59137994I-290717J798739D01*
G01*
X170826186Y-59137994D01*
G75*
G02*
X171334208Y-58048538I798739J290717D01*
G01*
G37*
%TD*%
%TO.C,REF\u002A\u002A*%
X68750000Y-65610000D03*
G36*
G01*
X74734353Y-72741874D02*
X74734353Y-72741874D01*
G75*
G02*
X75931860Y-72846643I546369J-651138D01*
G01*
X75931860Y-72846643D01*
G75*
G02*
X75827091Y-74044150I-651138J-546369D01*
G01*
X75827091Y-74044150D01*
G75*
G02*
X74629584Y-73939381I-546369J651138D01*
G01*
X74629584Y-73939381D01*
G75*
G02*
X74734353Y-72741874I651138J546369D01*
G01*
G37*
%TD*%
%TO.C,REF\u002A\u002A*%
G36*
G01*
X117503336Y-73718560D02*
X117503336Y-73718560D01*
G75*
G02*
X118192822Y-74703248I-147601J-837087D01*
G01*
X118192822Y-74703248D01*
G75*
G02*
X117208134Y-75392734I-837087J147601D01*
G01*
X117208134Y-75392734D01*
G75*
G02*
X116518648Y-74408046I147601J837087D01*
G01*
X116518648Y-74408046D01*
G75*
G02*
X117503336Y-73718560I837087J-147601D01*
G01*
G37*
X119120000Y-64550000D03*
%TD*%
%TO.C,REF\u002A\u002A*%
X86200000Y-63600000D03*
G36*
G01*
X83790395Y-72592769D02*
X83790395Y-72592769D01*
G75*
G02*
X84391436Y-73633802I-219996J-821037D01*
G01*
X84391436Y-73633802D01*
G75*
G02*
X83350403Y-74234843I-821037J219996D01*
G01*
X83350403Y-74234843D01*
G75*
G02*
X82749362Y-73193810I219996J821037D01*
G01*
X82749362Y-73193810D01*
G75*
G02*
X83790395Y-72592769I821037J-219996D01*
G01*
G37*
%TD*%
%TO.C,REF\u002A\u002A*%
G36*
G01*
X81644208Y-97998538D02*
X81644208Y-97998538D01*
G75*
G02*
X82733664Y-98506560I290717J-798739D01*
G01*
X82733664Y-98506560D01*
G75*
G02*
X82225642Y-99596016I-798739J-290717D01*
G01*
X82225642Y-99596016D01*
G75*
G02*
X81136186Y-99087994I-290717J798739D01*
G01*
X81136186Y-99087994D01*
G75*
G02*
X81644208Y-97998538I798739J290717D01*
G01*
G37*
X78460000Y-89250000D03*
%TD*%
%TO.C,REF\u002A\u002A*%
X106970000Y-99270000D03*
G36*
G01*
X103785792Y-90521462D02*
X103785792Y-90521462D01*
G75*
G02*
X102696336Y-90013440I-290717J798739D01*
G01*
X102696336Y-90013440D01*
G75*
G02*
X103204358Y-88923984I798739J290717D01*
G01*
X103204358Y-88923984D01*
G75*
G02*
X104293814Y-89432006I290717J-798739D01*
G01*
X104293814Y-89432006D01*
G75*
G02*
X103785792Y-90521462I-798739J-290717D01*
G01*
G37*
%TD*%
%TO.C,REF\u002A\u002A*%
X112820000Y-63820000D03*
D12*
X112820000Y-73980000D03*
%TD*%
%TO.C,REF\u002A\u002A*%
G36*
G01*
X196414353Y-55041874D02*
X196414353Y-55041874D01*
G75*
G02*
X197611860Y-55146643I546369J-651138D01*
G01*
X197611860Y-55146643D01*
G75*
G02*
X197507091Y-56344150I-651138J-546369D01*
G01*
X197507091Y-56344150D01*
G75*
G02*
X196309584Y-56239381I-546369J651138D01*
G01*
X196309584Y-56239381D01*
G75*
G02*
X196414353Y-55041874I651138J546369D01*
G01*
G37*
D13*
X190430000Y-47910000D03*
%TD*%
%TO.C,REF\u002A\u002A*%
X82040000Y-89090000D03*
G36*
G01*
X88024353Y-96221874D02*
X88024353Y-96221874D01*
G75*
G02*
X89221860Y-96326643I546369J-651138D01*
G01*
X89221860Y-96326643D01*
G75*
G02*
X89117091Y-97524150I-651138J-546369D01*
G01*
X89117091Y-97524150D01*
G75*
G02*
X87919584Y-97419381I-546369J651138D01*
G01*
X87919584Y-97419381D01*
G75*
G02*
X88024353Y-96221874I651138J546369D01*
G01*
G37*
%TD*%
%TO.C,REF\u002A\u002A*%
X191980000Y-113020000D03*
D12*
X202140000Y-113020000D03*
%TD*%
D13*
%TO.C,REF\u002A\u002A*%
X117580000Y-98860000D03*
G36*
G01*
X114395792Y-90111462D02*
X114395792Y-90111462D01*
G75*
G02*
X113306336Y-89603440I-290717J798739D01*
G01*
X113306336Y-89603440D01*
G75*
G02*
X113814358Y-88513984I798739J290717D01*
G01*
X113814358Y-88513984D01*
G75*
G02*
X114903814Y-89022006I290717J-798739D01*
G01*
X114903814Y-89022006D01*
G75*
G02*
X114395792Y-90111462I-798739J-290717D01*
G01*
G37*
%TD*%
%TO.C,REF\u002A\u002A*%
G36*
G01*
X66165000Y-97342696D02*
X66165000Y-97342696D01*
G75*
G02*
X66476122Y-98503818I-425000J-736122D01*
G01*
X66476122Y-98503818D01*
G75*
G02*
X65315000Y-98814940I-736122J425000D01*
G01*
X65315000Y-98814940D01*
G75*
G02*
X65003878Y-97653818I425000J736122D01*
G01*
X65003878Y-97653818D01*
G75*
G02*
X66165000Y-97342696I736122J-425000D01*
G01*
G37*
X70820000Y-89280000D03*
%TD*%
D18*
%TO.C,REF\u002A\u002A*%
X187440000Y-107060000D03*
X177840000Y-107060000D03*
D17*
X180140000Y-99560000D03*
X182640000Y-99560000D03*
D16*
X185140000Y-99560000D03*
%TD*%
M02*
